<?xml version="1.0" encoding="utf-8"?>
<!-- Generator: Adobe Illustrator 23.0.3, SVG Export Plug-In . SVG Version: 6.00 Build 0)  -->
<svg version="1.1" id="Layer_1" xmlns="http://www.w3.org/2000/svg" xmlns:xlink="http://www.w3.org/1999/xlink" x="0px" y="0px"
	 viewBox="0 0 500 500" style="enable-background:new 0 0 500 500;" xml:space="preserve">
<style type="text/css">
	.st0{clip-path:url(#SVGID_2_);fill-rule:evenodd;clip-rule:evenodd;fill:#252021;}
	.st1{clip-path:url(#SVGID_2_);}
	.st2{clip-path:url(#SVGID_4_);fill-rule:evenodd;clip-rule:evenodd;fill:#252021;}
	.st3{clip-path:url(#SVGID_4_);fill:#252021;}
	.st4{clip-path:url(#SVGID_4_);fill:#4E4E50;}
	.st5{clip-path:url(#SVGID_4_);fill-rule:evenodd;clip-rule:evenodd;fill:#8B8C8C;}
	.st6{clip-path:url(#SVGID_4_);fill:#4E4D50;}
	.st7{clip-path:url(#SVGID_4_);fill:none;stroke:#4E4D50;stroke-width:0.0969;stroke-miterlimit:2.613;}
</style>
<g>
	<g>
		<defs>
			<rect id="SVGID_1_" x="39" y="168" width="416.74" height="155.09"/>
		</defs>
		<clipPath id="SVGID_2_">
			<use xlink:href="#SVGID_1_"  style="overflow:visible;"/>
		</clipPath>
		<polygon class="st0" points="326.47,261.16 314.34,261.16 314.34,265.12 312.79,265.12 312.79,259.76 328.03,259.76 
			328.03,273.88 321.18,273.88 321.18,272.46 326.47,272.46 		"/>
		<polygon class="st0" points="307.8,264.84 312.78,270.49 318.39,264.84 323.98,264.84 314.96,273.87 314.96,279.25 310.61,279.25 
			310.61,274.15 302.21,264.84 		"/>
		<g class="st1">
			<defs>
				<rect id="SVGID_3_" x="39" y="168" width="416.74" height="155.09"/>
			</defs>
			<clipPath id="SVGID_4_">
				<use xlink:href="#SVGID_3_"  style="overflow:visible;"/>
			</clipPath>
			<path class="st2" d="M216.95,268.52h9.03c0.62,0,1.24,0.55,1.24,1.12v4.81c0,0.57-0.62,0.84-1.24,0.84h-9.03
				c-0.61,0-1.24-0.28-1.24-0.84v-4.81C215.71,269.07,216.33,268.52,216.95,268.52 M212.9,264.84c-0.93,0-1.54,0.86-1.54,1.7v11
				c0,0.85,0.61,1.71,1.54,1.71h16.81c0.94,0,1.86-0.86,1.86-1.71v-11c0-0.84-0.93-1.7-1.86-1.7H212.9z"/>
			<polygon class="st2" points="259.27,264.84 259.27,279.25 254.29,279.25 254.29,268.23 247.75,279.25 244.95,279.25 
				238.73,268.52 238.73,279.25 233.44,279.25 233.44,264.84 242.16,264.84 246.2,272.74 250.56,264.84 			"/>
			<path class="st2" d="M209.17,264.84H193.3c-0.94,0-1.55,0.86-1.55,1.41v5.65c0,1.4,1.55,1.68,3.11,1.68h9.03
				c0.31,0,0.93,0.29,0.93,0.86c0,0.57-0.61,0.84-0.93,0.84h-12.14v3.96h15.87c0.94,0,1.55-0.86,1.55-1.42v-5.64
				c0-1.4-0.93-1.99-3.42-1.99h-8.71c-0.62,0-0.93-0.27-0.93-0.85c0-0.28,0.31-0.83,0.93-0.83h12.13V264.84z"/>
			<polygon class="st2" points="296.6,264.84 301.27,264.84 301.27,279.25 294.12,279.25 286.03,268.23 286.03,279.25 
				281.36,279.25 281.36,264.84 288.83,264.84 296.6,275.29 			"/>
			<path class="st2" d="M272.65,273.88l-2.49-4.81l-2.5,4.81H272.65z M280.12,279.25L280.12,279.25h-4.97l-0.95-2.26h-8.09
				l-1.24,2.26h-4.36l7.47-14.41h4.35L280.12,279.25z"/>
			<path class="st3" d="M319.36,276.91c0.38,0,0.72,0.14,0.96,0.36c0.25,0.22,0.4,0.54,0.4,0.88c0,0.35-0.15,0.65-0.4,0.88
				c-0.25,0.23-0.59,0.37-0.96,0.37c-0.38,0-0.72-0.14-0.97-0.37c-0.25-0.23-0.4-0.53-0.4-0.88c0-0.34,0.15-0.66,0.4-0.88
				C318.63,277.04,318.98,276.91,319.36,276.91 M320.17,277.41c-0.21-0.19-0.49-0.3-0.81-0.3c-0.32,0-0.61,0.12-0.81,0.3
				c-0.21,0.19-0.33,0.45-0.33,0.74c0,0.29,0.13,0.55,0.33,0.74c0.21,0.19,0.49,0.3,0.81,0.3c0.31,0,0.6-0.12,0.81-0.3h0
				c0.21-0.19,0.34-0.45,0.34-0.74C320.5,277.86,320.37,277.6,320.17,277.41"/>
			<path class="st3" d="M318.66,278.86v-1.42h0.66c0.17,0,0.29,0.01,0.37,0.04c0.08,0.03,0.13,0.07,0.18,0.14
				c0.04,0.07,0.07,0.14,0.07,0.22c0,0.11-0.03,0.2-0.1,0.26c-0.06,0.07-0.17,0.11-0.31,0.13c0.07,0.04,0.13,0.08,0.17,0.12
				c0.04,0.04,0.1,0.12,0.18,0.23l0.19,0.28h-0.38l-0.23-0.31c-0.08-0.11-0.14-0.18-0.17-0.21c-0.03-0.03-0.06-0.05-0.09-0.06
				c-0.04-0.01-0.09-0.02-0.16-0.02h-0.07v0.6H318.66z M318.97,278.04h0.24c0.16,0,0.25,0,0.29-0.02c0.04-0.01,0.06-0.03,0.09-0.06
				c0.02-0.03,0.03-0.07,0.03-0.11c0-0.05-0.01-0.08-0.04-0.11c-0.03-0.03-0.07-0.05-0.11-0.06c-0.03,0-0.11,0-0.23,0h-0.25V278.04z
				"/>
			<path class="st4" d="M185.53,269.58l-5.61,10.66c-0.06,0.1-0.11,0.2-0.16,0.3c-0.05,0.1-0.1,0.2-0.16,0.3
				c-0.45,0.85-1,1.62-1.65,2.32c-0.65,0.7-1.48,1.05-2.49,1.05c-0.12,0-0.23-0.01-0.33-0.03c-0.11-0.02-0.22-0.05-0.33-0.08
				l0.3-1.23c0.04,0.01,0.09,0.03,0.14,0.03c0.05,0.01,0.1,0.01,0.14,0.01c0.04,0.01,0.09,0.02,0.14,0.02h0.14
				c0.52,0,0.96-0.2,1.33-0.61c0.37-0.41,0.69-0.86,0.96-1.35c0.13-0.24,0.25-0.48,0.36-0.7c0.11-0.22,0.2-0.43,0.29-0.61h-0.54
				l-1.04-10.08h1.53l0.82,8.97l4.62-8.97H185.53z M167.21,274.33l-0.15,0.56c-0.1,0.43-0.19,0.82-0.26,1.17
				c-0.07,0.35-0.11,0.66-0.11,0.95c0,0.52,0.17,0.9,0.52,1.15c0.35,0.25,0.97,0.38,1.88,0.38c0.82,0,1.46-0.14,1.92-0.41
				c0.46-0.27,0.85-0.83,1.16-1.68c0.13-0.33,0.24-0.66,0.33-0.98c0.09-0.32,0.18-0.65,0.27-0.98c0.12-0.46,0.22-0.88,0.31-1.27
				c0.09-0.39,0.14-0.73,0.14-1.04c0-0.5-0.17-0.88-0.5-1.13c-0.33-0.25-0.93-0.38-1.81-0.38c-1.24,0-2.08,0.3-2.54,0.9
				c-0.45,0.6-0.82,1.43-1.11,2.51c0,0.04-0.01,0.09-0.02,0.14c-0.01,0.05-0.03,0.1-0.04,0.14V274.33z M164.3,279.66l3.73-14.39
				h1.49l-1.45,5.59c0.32-0.4,0.69-0.71,1.11-0.92c0.42-0.21,0.87-0.35,1.33-0.42c0.16-0.03,0.32-0.05,0.5-0.05
				c0.17-0.01,0.34-0.01,0.5-0.01c1.24,0,2.1,0.2,2.58,0.61c0.48,0.41,0.72,1.02,0.72,1.82c0,0.35-0.04,0.73-0.12,1.16
				c-0.08,0.43-0.18,0.9-0.31,1.4c-0.4,1.55-0.94,2.82-1.62,3.81c-0.68,0.99-1.96,1.48-3.86,1.48c-0.62,0-1.19-0.09-1.73-0.27
				c-0.53-0.18-0.91-0.54-1.14-1.07l-0.24,1.25H164.3z"/>
			<path class="st5" d="M428.41,249.35c-123.82-0.43-247.71-0.79-372.82,0C180.71,250.14,304.6,249.78,428.41,249.35"/>
			<polygon class="st4" points="59.83,225.58 77.73,225.58 77.73,227.85 59.83,227.85 59.83,238.32 57.09,238.32 57.09,215.71 
				78.68,215.71 78.68,218.02 59.83,218.02 			"/>
			<path class="st4" d="M105.22,215.71c2.55,0.02,4.47,0.46,5.75,1.31c1.28,0.85,1.91,2.66,1.91,5.44c0,1.99-0.3,3.37-0.9,4.15
				c-0.6,0.78-1.91,1.32-3.92,1.61c1.31,0.16,2.37,0.49,3.19,1c0.81,0.51,1.22,1.51,1.22,3v6.1h-2.71v-5.02
				c0-1.72-0.38-2.83-1.13-3.34c-0.76-0.51-1.97-0.76-3.65-0.76H89.56v9.12h-2.75v-22.61H105.22z M104.71,226.9
				c1.92,0.02,3.29-0.26,4.1-0.85c0.81-0.59,1.22-1.84,1.22-3.76c0-1.9-0.46-3.08-1.39-3.54c-0.93-0.46-2.26-0.69-4-0.69H89.56v8.85
				H104.71z"/>
			<polygon class="st4" points="124.44,225.48 143.38,225.48 143.38,227.75 124.44,227.75 124.44,236.05 144.33,236.05 
				144.33,238.32 121.69,238.32 121.69,215.71 144.1,215.71 144.1,218.02 124.44,218.02 			"/>
			<polygon class="st4" points="155.21,238.32 152.47,238.32 152.47,215.71 157.04,215.71 177.89,236.16 177.89,215.71 
				180.63,215.71 180.63,238.32 176.13,238.32 155.21,217.78 			"/>
			<path class="st4" d="M216.02,230.83c0,2.78-0.41,4.72-1.22,5.83c-0.81,1.11-2.91,1.69-6.3,1.76l-5.83,0.1h-0.63
				c-0.21,0-0.42,0.01-0.63,0.03h-0.63h-0.63c-0.84,0-1.67-0.02-2.51-0.05c-0.84-0.03-1.67-0.1-2.51-0.19
				c-1.99-0.18-3.46-0.8-4.42-1.86c-0.96-1.06-1.5-2.58-1.61-4.57c-0.02-0.36-0.05-0.72-0.07-1.08c-0.02-0.36-0.03-0.72-0.03-1.08
				c-0.02-0.34-0.03-0.69-0.03-1.05v-1.08v-1.34c0-0.44,0.01-0.89,0.03-1.34c0.02-0.65,0.06-1.31,0.12-1.98
				c0.06-0.67,0.14-1.33,0.25-1.98c0.41-2.07,1.2-3.43,2.37-4.08c1.17-0.65,2.71-1.04,4.61-1.18c0.68-0.07,1.36-0.11,2.05-0.13
				c0.69-0.02,1.38-0.05,2.08-0.07h1.04h1.03h0.81c0.27,0,0.54-0.01,0.81-0.04H205h0.81c1,0,1.98,0.03,2.95,0.08
				c0.97,0.06,1.94,0.19,2.92,0.39c1.85,0.36,2.98,1.23,3.37,2.61c0.4,1.37,0.63,2.84,0.7,4.41l-2.71-0.04v-0.2
				c0-0.21,0-0.44-0.02-0.7c-0.01-0.26-0.03-0.53-0.05-0.8c-0.04-0.5-0.15-0.97-0.3-1.42c-0.16-0.45-0.42-0.79-0.78-1.02
				c-0.41-0.27-1.05-0.47-1.93-0.59c-0.88-0.12-1.82-0.2-2.81-0.22c-0.5-0.02-0.99-0.04-1.49-0.05c-0.5-0.01-0.96-0.02-1.39-0.02
				c-1.24,0-2.48,0.01-3.71,0.02c-1.23,0.01-2.47,0.07-3.71,0.19c-1.94,0.16-3.19,0.51-3.73,1.07c-0.54,0.55-0.92,1.77-1.12,3.64
				c-0.05,0.47-0.08,0.95-0.1,1.42c-0.02,0.47-0.03,0.95-0.03,1.42c-0.02,0.5-0.03,0.98-0.03,1.46v1.42c0,2.4,0.23,4.25,0.68,5.58
				c0.45,1.32,2.04,1.98,4.78,1.98c0.88,0.02,1.76,0.04,2.64,0.05c0.88,0.01,1.76,0.02,2.64,0.02l5.05-0.1
				c1.85-0.02,3.24-0.24,4.17-0.66c0.93-0.42,1.39-1.63,1.39-3.64v-0.95H216.02z"/>
			<polygon class="st4" points="226.9,227.78 226.9,238.32 224.15,238.32 224.15,215.71 226.9,215.71 226.9,225.51 247.98,225.51 
				247.98,215.71 250.69,215.71 250.69,238.32 247.98,238.32 247.98,227.78 			"/>
			<path class="st6" d="M271.94,237.88c4.82,0,8.1-3.07,8.93-8.47h0.61c-0.74,5.64-4.33,9.08-9.51,9.08
				c-5.89,0-9.97-4.69-9.97-11.32c0-6.75,4.26-11.62,10.24-11.62c4.51,0,8.22,2.76,8.84,7.09h-0.61c-0.74-4.2-4.2-6.47-8.22-6.47
				c-5.52,0-9.63,4.66-9.63,10.89C262.62,233.4,266.45,237.88,271.94,237.88"/>
			<path class="st7" d="M271.94,237.88c4.82,0,8.1-3.07,8.93-8.47h0.61c-0.74,5.64-4.33,9.08-9.51,9.08
				c-5.89,0-9.97-4.69-9.97-11.32c0-6.75,4.26-11.62,10.24-11.62c4.51,0,8.22,2.76,8.84,7.09h-0.61c-0.74-4.2-4.2-6.47-8.22-6.47
				c-5.52,0-9.63,4.66-9.63,10.89C262.62,233.4,266.45,237.88,271.94,237.88z"/>
			<path class="st6" d="M293.32,238.49c-6.1,0-10.06-4.6-10.06-11.47c0-6.87,3.96-11.47,10.06-11.47c6.14,0,10.09,4.6,10.09,11.47
				C303.41,233.89,299.46,238.49,293.32,238.49 M293.32,216.16c-5.68,0-9.45,4.39-9.45,10.86c0,6.47,3.77,10.86,9.45,10.86
				c5.74,0,9.48-4.39,9.48-10.86C302.8,220.55,299.06,216.16,293.32,216.16"/>
			<path class="st7" d="M293.32,238.49c-6.1,0-10.06-4.6-10.06-11.47c0-6.87,3.96-11.47,10.06-11.47c6.14,0,10.09,4.6,10.09,11.47
				C303.41,233.89,299.46,238.49,293.32,238.49z M293.32,216.16c-5.68,0-9.45,4.39-9.45,10.86c0,6.47,3.77,10.86,9.45,10.86
				c5.74,0,9.48-4.39,9.48-10.86C302.8,220.55,299.06,216.16,293.32,216.16z"/>
			<polygon class="st6" points="306.63,237.36 319.45,237.36 319.45,237.97 306.02,237.97 306.02,216.07 306.63,216.07 			"/>
			<polygon class="st7" points="306.63,237.36 319.45,237.36 319.45,237.97 306.02,237.97 306.02,216.07 306.63,216.07 			"/>
			<polygon class="st6" points="323.79,237.36 336.61,237.36 336.61,237.97 323.18,237.97 323.18,216.07 323.79,216.07 			"/>
			<polygon class="st7" points="323.79,237.36 336.61,237.36 336.61,237.97 323.18,237.97 323.18,216.07 323.79,216.07 			"/>
			<polygon class="st6" points="340.36,237.97 340.36,216.07 354.87,216.07 354.87,216.69 340.94,216.69 340.94,226.26 
				353.95,226.26 353.95,226.84 340.94,226.84 340.94,237.36 355.02,237.36 355.02,237.97 			"/>
			<polygon class="st7" points="340.36,237.97 340.36,216.07 354.87,216.07 354.87,216.69 340.94,216.69 340.94,226.26 
				353.95,226.26 353.95,226.84 340.94,226.84 340.94,237.36 355.02,237.36 355.02,237.97 			"/>
			<path class="st6" d="M365.88,237.88c4.82,0,8.1-3.07,8.93-8.47h0.61c-0.74,5.64-4.32,9.08-9.51,9.08
				c-5.89,0-9.97-4.69-9.97-11.32c0-6.75,4.26-11.62,10.24-11.62c4.51,0,8.22,2.76,8.83,7.09h-0.61c-0.74-4.2-4.2-6.47-8.22-6.47
				c-5.52,0-9.63,4.66-9.63,10.89C356.55,233.4,360.39,237.88,365.88,237.88"/>
			<path class="st7" d="M365.88,237.88c4.82,0,8.1-3.07,8.93-8.47h0.61c-0.74,5.64-4.32,9.08-9.51,9.08
				c-5.89,0-9.97-4.69-9.97-11.32c0-6.75,4.26-11.62,10.25-11.62c4.51,0,8.22,2.76,8.83,7.09h-0.62c-0.74-4.2-4.2-6.47-8.22-6.47
				c-5.52,0-9.63,4.66-9.63,10.89C356.55,233.4,360.39,237.88,365.88,237.88z"/>
			<polygon class="st6" points="383.55,237.97 383.55,216.69 375.67,216.69 375.67,216.07 392.05,216.07 392.05,216.69 
				384.16,216.69 384.16,237.97 			"/>
			<polygon class="st7" points="383.55,237.97 383.55,216.69 375.67,216.69 375.67,216.07 392.05,216.07 392.05,216.69 
				384.16,216.69 384.16,237.97 			"/>
			<rect x="395.83" y="216.07" class="st6" width="0.61" height="21.9"/>
			<rect x="395.83" y="216.07" class="st7" width="0.61" height="21.9"/>
			<path class="st6" d="M409.17,238.49c-6.1,0-10.06-4.6-10.06-11.47c0-6.87,3.96-11.47,10.06-11.47c6.14,0,10.09,4.6,10.09,11.47
				C419.26,233.89,415.31,238.49,409.17,238.49 M409.17,216.16c-5.67,0-9.45,4.39-9.45,10.86c0,6.47,3.77,10.86,9.45,10.86
				c5.74,0,9.48-4.39,9.48-10.86C418.65,220.55,414.91,216.16,409.17,216.16"/>
			<path class="st7" d="M409.17,238.49c-6.1,0-10.06-4.6-10.06-11.47c0-6.87,3.96-11.47,10.06-11.47c6.14,0,10.09,4.6,10.09,11.47
				C419.26,233.89,415.31,238.49,409.17,238.49z M409.17,216.16c-5.67,0-9.45,4.39-9.45,10.86c0,6.47,3.77,10.86,9.45,10.86
				c5.74,0,9.48-4.39,9.48-10.86C418.65,220.55,414.91,216.16,409.17,216.16z"/>
			<path class="st6" d="M437.79,216.07h0.61v21.9h-0.89l-15.03-21.23v21.23h-0.61v-21.9h0.92c2.48,3.65,5,7.18,7.48,10.61
				c2.52,3.41,5.03,6.93,7.52,10.58V216.07z"/>
			<path class="st7" d="M437.79,216.07h0.61v21.9h-0.89l-15.03-21.23v21.23h-0.61v-21.9h0.92c2.48,3.65,5,7.18,7.48,10.61
				c2.52,3.41,5.03,6.93,7.52,10.58V216.07z"/>
		</g>
	</g>
</g>
</svg>
