<?xml version="1.0" encoding="utf-8"?>
<!-- Generator: Adobe Illustrator 23.0.3, SVG Export Plug-In . SVG Version: 6.00 Build 0)  -->
<svg version="1.1" id="Layer_1" xmlns="http://www.w3.org/2000/svg" xmlns:xlink="http://www.w3.org/1999/xlink" x="0px" y="0px"
	 viewBox="0 0 500 500" style="enable-background:new 0 0 500 500;" xml:space="preserve">
<style type="text/css">
	.st0{clip-path:url(#SVGID_2_);fill:#FFFFFF;}
	.st1{clip-path:url(#SVGID_2_);fill:none;stroke:#FFFFFF;stroke-width:0;stroke-miterlimit:2.613;}
	.st2{clip-path:url(#SVGID_2_);}
	.st3{clip-path:url(#SVGID_4_);fill-rule:evenodd;clip-rule:evenodd;fill:#939598;}
	.st4{clip-path:url(#SVGID_4_);fill:none;stroke:#939598;stroke-width:0;stroke-miterlimit:2.613;}
	.st5{clip-path:url(#SVGID_4_);fill-rule:evenodd;clip-rule:evenodd;fill:#231F20;}
</style>
<g>
	<g>
		<defs>
			<rect id="SVGID_1_" x="13.32" y="149.08" width="467.09" height="221.92"/>
		</defs>
		<clipPath id="SVGID_2_">
			<use xlink:href="#SVGID_1_"  style="overflow:visible;"/>
		</clipPath>
		<rect x="28.76" y="220.07" class="st0" width="446.86" height="43.06"/>
		<rect x="28.76" y="220.07" class="st1" width="446.86" height="43.06"/>
		<g class="st2">
			<defs>
				<rect id="SVGID_3_" x="13.32" y="149.08" width="467.09" height="221.92"/>
			</defs>
			<clipPath id="SVGID_4_">
				<use xlink:href="#SVGID_3_"  style="overflow:visible;"/>
			</clipPath>
			<path class="st3" d="M424.46,238.45c0-4.54,3.52-7.97,8.02-7.97c4.45,0,7.97,3.43,7.97,7.97c0,4.62-3.52,8.03-7.97,8.03
				C427.98,246.48,424.46,243.07,424.46,238.45 M423,238.45c0-5.38,4.16-9.43,9.49-9.43c5.27,0,9.43,4.05,9.43,9.43
				c0,5.47-4.16,9.49-9.43,9.49C427.16,247.93,423,243.92,423,238.45"/>
			<path class="st4" d="M424.46,238.45c0-4.54,3.52-7.97,8.02-7.97c4.45,0,7.97,3.43,7.97,7.97c0,4.62-3.52,8.03-7.97,8.03
				C427.98,246.48,424.46,243.07,424.46,238.45z M423,238.45c0-5.38,4.16-9.43,9.49-9.43c5.27,0,9.43,4.05,9.43,9.43
				c0,5.47-4.16,9.49-9.43,9.49C427.16,247.93,423,243.92,423,238.45z"/>
			<path class="st3" d="M433.8,235.09l1.26,4.11l1.25-4.11h2.07v6.77h-1.42v-4.61h-0.04l-1.32,4.61h-1.08l-1.33-4.61h-0.02v4.61
				h-1.42v-6.77H433.8z M430.7,235.09v1.4h-1.56v5.37h-1.49v-5.37h-1.55v-1.4H430.7z"/>
			<path class="st4" d="M433.8,235.09l1.26,4.11l1.25-4.11h2.07v6.77h-1.42v-4.61h-0.04l-1.32,4.61h-1.08l-1.33-4.61h-0.02v4.61
				h-1.42v-6.77H433.8z M430.7,235.09v1.4h-1.56v5.37h-1.49v-5.37h-1.55v-1.4H430.7z"/>
			<path class="st3" d="M68.07,296.73c2.56-0.71,5.11-1.51,7.64-2.22c8.59-2.38,8.67-6.19,8.84-14.54
				c0.34-17.14-6.61-39.27-7.06-54.21c-0.19-6.57,1.25-13.81,6.29-20.25c5.27-6.77,12.84-10.87,23.05-12.67
				c5.45-0.95,6.04,0.72,3.51,2.75c-2.62,2.09-8.59,4.05-9.41,4.27c-13.94,3.59-12.39,16-11.81,27.8
				c0.84,16.85,7.91,43.34,2.27,59.2c-2.49,6.98-11.25,12.01-18.99,14.11c-2.79,0.75-7.72,2.09-9.65-1.13
				C61.18,297.2,66.51,297.17,68.07,296.73"/>
			<path class="st4" d="M68.07,296.73c2.56-0.71,5.11-1.51,7.64-2.22c8.59-2.38,8.67-6.19,8.84-14.54
				c0.34-17.14-6.61-39.27-7.06-54.21c-0.19-6.57,1.25-13.81,6.29-20.25c5.27-6.77,12.84-10.87,23.05-12.67
				c5.45-0.95,6.04,0.72,3.51,2.75c-2.62,2.09-8.59,4.05-9.41,4.27c-13.94,3.59-12.39,16-11.81,27.8
				c0.84,16.85,7.91,43.34,2.27,59.2c-2.49,6.98-11.25,12.01-18.99,14.11c-2.79,0.75-7.72,2.09-9.65-1.13
				C61.18,297.2,66.51,297.17,68.07,296.73z"/>
			<path class="st3" d="M99.62,261.02c2.84-3.94,7.02-6.22,14.34-8.23c3.58-1.03,4.61,0.81,4.64,3.59
				c-0.9,12.35-2.91,24.7-5.02,36.95c-0.85,1.43-2.55,2.46-2.88,0.31c0.66-5.41,6.67-36.89-0.73-36.56
				c-2.84-0.21-5.45,1.62-7.96,4.37C100.73,261.85,99.93,261.71,99.62,261.02 M111.05,240.93c-2.53-1.1-2.39-4.6-1.39-6.82
				c1.01-2.22,3.72-5.37,6.4-4.19c2.68,1.17,5.71,5.95,4.36,8.91C119.09,241.81,113.59,242.04,111.05,240.93"/>
			<path class="st4" d="M99.62,261.02c2.84-3.94,7.02-6.22,14.34-8.23c3.58-1.03,4.61,0.81,4.64,3.59
				c-0.9,12.35-2.91,24.7-5.02,36.95c-0.85,1.43-2.55,2.46-2.88,0.31c0.66-5.41,6.67-36.89-0.73-36.56
				c-2.84-0.21-5.45,1.62-7.96,4.37C100.73,261.85,99.93,261.71,99.62,261.02z M111.05,240.93c-2.53-1.1-2.39-4.6-1.39-6.82
				c1.01-2.22,3.72-5.37,6.4-4.19c2.68,1.17,5.71,5.95,4.36,8.91C119.09,241.81,113.59,242.04,111.05,240.93z"/>
			<path class="st3" d="M126.01,266.5c3.68-3.88,11.18-11.96,19.03-13.92c4.58-1.93,1.68,3.6,0.28,6.25
				c-3.97,8.7-5.47,16.09-7.98,24.43c-0.07,7.24,8.43-9.11,9.95-11.74c0.34-4.75,1.15-6.72,1.7-11.59c0.63-5.61,4.96-9.58,6.44-7.95
				c0.94,1.05,0.27,3.91,0.34,7.23c-0.85,7.69-1.7,15.39-2.55,23.08c-1.4,12.71-1.87,27.35-9.2,38.31
				c-8.91,9.69-19.38,11.47-32.1,1.71c-0.45-1.65,0.94-1.54,2.98-0.43c10.29,5.56,22.01,6.98,27.49-6.37
				c4.58-11.16,4.98-26.69,5.1-40.36c-3.76,6.25-5.61,12.23-12.29,15.85c-2.55,1.37-4.68,1.68-3.65-2.31
				c2.31-8.89,4.4-17.45,6.75-26.4c0.59-2.28,2.01-4.22-0.93-2.33c-3.24,2.08-6.4,4.66-9.03,6.94
				C126.95,267.31,126.18,267.17,126.01,266.5"/>
			<path class="st4" d="M126.01,266.5c3.68-3.88,11.18-11.96,19.03-13.92c4.58-1.93,1.68,3.6,0.28,6.25
				c-3.97,8.7-5.47,16.09-7.98,24.43c-0.07,7.24,8.43-9.11,9.95-11.74c0.34-4.75,1.15-6.72,1.7-11.59c0.63-5.61,4.96-9.58,6.44-7.95
				c0.94,1.05,0.27,3.91,0.34,7.23c-0.85,7.69-1.7,15.39-2.55,23.08c-1.4,12.71-1.87,27.35-9.2,38.31
				c-8.91,9.69-19.38,11.47-32.1,1.71c-0.45-1.65,0.94-1.54,2.98-0.43c10.29,5.56,22.01,6.98,27.49-6.37
				c4.58-11.16,4.98-26.69,5.1-40.36c-3.76,6.25-5.61,12.23-12.29,15.85c-2.55,1.37-4.68,1.68-3.65-2.31
				c2.31-8.89,4.4-17.45,6.75-26.4c0.59-2.28,2.01-4.22-0.93-2.33c-3.24,2.08-6.4,4.66-9.03,6.94
				C126.95,267.31,126.18,267.17,126.01,266.5z"/>
			<path class="st3" d="M169.38,257.7c1.27-1.46,1.97-0.45,1.84,1.09c-0.28,3.41-0.39,21.59,0.95,20.77
				c6.23-3.77,11.19-9.73,17.37-13.53c2.99-1.84,5.61-2.14,6.07,2.73c0.16,1.69,0.51,3.6,1.11,5.34c1.43,4.12,3.29,3.61,5.63,2.03
				c2.37-1.6,5.08-3.37,8.65-5.51c2.19-1.31,2.07,1.02,0.57,2.84c-2.83,3.45-17.53,13.58-20.05,11.53
				c-2.08-1.68-2.13-11.53-5.38-10.48c-2.02,0.64-13.03,9.12-18.43,13.68c-7.23,6.1-4.08-4.23-3.51-9.84
				C165.11,269.31,167.74,259.57,169.38,257.7"/>
			<path class="st4" d="M169.38,257.7c1.27-1.46,1.97-0.45,1.84,1.09c-0.28,3.41-0.39,21.59,0.95,20.77
				c6.23-3.77,11.19-9.73,17.37-13.53c2.99-1.84,5.61-2.14,6.07,2.73c0.16,1.69,0.51,3.6,1.11,5.34c1.43,4.12,3.29,3.61,5.63,2.03
				c2.37-1.6,5.08-3.37,8.65-5.51c2.19-1.31,2.07,1.02,0.57,2.84c-2.83,3.45-17.53,13.58-20.05,11.53
				c-2.08-1.68-2.13-11.53-5.38-10.48c-2.02,0.64-13.03,9.12-18.43,13.68c-7.23,6.1-4.08-4.23-3.51-9.84
				C165.11,269.31,167.74,259.57,169.38,257.7z"/>
			<path class="st3" d="M239.66,245.46c1.83,1.17,2.8,4.49-0.04,5.77c-1.7,0.76-4.01,0.69-5.24,1.62
				c-3.99,3.02-8.14,9.95-11.14,17.48c-0.68,1.7-1.39,3.67-2.03,5.65c-3.83,11.95,1.2,6.58,5.84-0.05c2.5-3.59,6.37-8.09,9.34-11.82
				c4.8-6,8.51-10.19,9.69-7.08c1.04,2.76,0.04,9.29,0.03,14.82c0,4.04,0.17,7.52,3.79,8.77c2.67,0.92,5.32-2.15,8.51-5.08
				c3.32-3.04,7.6-8.42,10.5-11.19c2.89-2.76,3.17-1.64,2.31,0.56c-0.2,0.52-0.68,1.04-1.17,1.7c-2.16,2.92-5.6,7-9.61,10.8
				c-4.96,4.71-10.04,10.1-16.69,9.19c-5.51-0.75-3.05-12.4-5.57-16.73c-1.63-2.77-8.1,6.95-14.25,14.05
				c-2.44,2.82-6.52,6.43-8.79,7.21c-3.29,1.13-0.33-6.57-0.05-7.57c1.79-6.48,4.41-14.16,7.86-21.1
				C224.68,258.98,233.82,241.74,239.66,245.46"/>
			<path class="st4" d="M239.66,245.46c1.83,1.17,2.8,4.49-0.04,5.77c-1.7,0.76-4.01,0.69-5.24,1.62
				c-3.99,3.02-8.14,9.95-11.14,17.48c-0.68,1.7-1.39,3.67-2.03,5.65c-3.83,11.95,1.2,6.58,5.84-0.05c2.5-3.59,6.37-8.09,9.34-11.82
				c4.8-6,8.51-10.19,9.69-7.08c1.04,2.76,0.04,9.29,0.03,14.82c0,4.04,0.17,7.52,3.79,8.77c2.67,0.92,5.32-2.15,8.51-5.08
				c3.32-3.04,7.6-8.42,10.5-11.19c2.89-2.76,3.17-1.64,2.31,0.56c-0.2,0.52-0.68,1.04-1.17,1.7c-2.16,2.92-5.6,7-9.61,10.8
				c-4.96,4.71-10.04,10.1-16.69,9.19c-5.51-0.75-3.05-12.4-5.57-16.73c-1.63-2.77-8.1,6.95-14.25,14.05
				c-2.44,2.82-6.52,6.43-8.79,7.21c-3.29,1.13-0.33-6.57-0.05-7.57c1.79-6.48,4.41-14.16,7.86-21.1
				C224.68,258.98,233.82,241.74,239.66,245.46z"/>
			<path class="st3" d="M283.66,239.75c-1.86,7.19-0.96,2.84-2.58,10.25c5.26-0.11,11.6,0.17,18.9,0.47
				c1.09,0.05,1.89,0.28,2.31,0.64c0.42,0.36,0.45,0.83,0.01,1.37c-3.16,0.23-6.24,0.49-9.28,0.8c-3.87,0.38-8.4,0.36-12.73,0.68
				c-0.73,3.93-2.76,15-4.08,24.12c-2.51,17.54,1.35,18.43,10.5,5.84c2.23-3.07,4.14-6.54,6.39-9.5c1.36-2.03,2.19-1.04,2.26,1.97
				c-5.36,9.21-10.7,16.91-19.07,21.13c-5.36,1.6-6.25-1.82-6-5.35c1.16-12.98,2.92-25.54,5.11-37.64c-1.1,0.19-2.17,0.43-3.18,0.73
				c-2.15,0.64-9.2-0.5-4.34-2.99c2.1-1.08,4.89-1.7,8.32-2.01c1.76-9.23,0.63-6.92,2.78-15.54c2.45-5.99,5.15-5.13,5.79-2.08
				C285.2,234.62,284.18,237.72,283.66,239.75"/>
			<path class="st4" d="M283.66,239.75c-1.86,7.19-0.96,2.84-2.58,10.25c5.26-0.11,11.6,0.17,18.9,0.47
				c1.09,0.05,1.89,0.28,2.31,0.64c0.42,0.36,0.45,0.83,0.01,1.37c-3.16,0.23-6.24,0.49-9.28,0.8c-3.87,0.38-8.4,0.36-12.73,0.68
				c-0.73,3.93-2.76,15-4.08,24.12c-2.51,17.54,1.35,18.43,10.5,5.84c2.23-3.07,4.14-6.54,6.39-9.5c1.36-2.03,2.19-1.04,2.26,1.97
				c-5.36,9.21-10.7,16.91-19.07,21.13c-5.36,1.6-6.25-1.82-6-5.35c1.16-12.98,2.92-25.54,5.11-37.64c-1.1,0.19-2.17,0.43-3.18,0.73
				c-2.15,0.64-9.2-0.5-4.34-2.99c2.1-1.08,4.89-1.7,8.32-2.01c1.76-9.23,0.63-6.92,2.78-15.54c2.45-5.99,5.15-5.13,5.79-2.08
				C285.2,234.62,284.18,237.72,283.66,239.75z"/>
			<path class="st3" d="M314.74,257.62c-7.68,20.64-7.12,22.82-1.14,17.84c1.83-1.52,11.95-10.36,15.66-13.08
				c4.29-3.14,11.75-11.08,10.82-1.7c-0.25,2.5-3.51,14.1,0.26,13.76c2.88-0.27,10.96-8.09,14.54-10.24
				c2.18-1.3,2.06,1.02,0.57,2.84c-1.51,1.84-7.54,6.55-13.02,10.56c-8.06,5.92-12.45,9.62-11.55-2.15
				c0.34-4.56,0.34-9.47-1.55-8.87c-2.02,0.65-15.26,12.5-21.02,16.61c-5.48,3.91-6.26,2.38-5.68-1.23
				c1.21-7.58,2.93-11.26,2.21-19.38c-0.25-2.69,3.02-7.23,6.14-9.22C313.38,251.82,316.02,254.2,314.74,257.62"/>
			<path class="st4" d="M314.74,257.62c-7.68,20.64-7.12,22.82-1.14,17.84c1.83-1.52,11.95-10.36,15.66-13.08
				c4.29-3.14,11.75-11.08,10.82-1.7c-0.25,2.5-3.51,14.1,0.26,13.76c2.88-0.27,10.96-8.09,14.54-10.24
				c2.18-1.3,2.06,1.02,0.57,2.84c-1.51,1.84-7.54,6.55-13.02,10.56c-8.06,5.92-12.45,9.62-11.55-2.15
				c0.34-4.56,0.34-9.47-1.55-8.87c-2.02,0.65-15.26,12.5-21.02,16.61c-5.48,3.91-6.26,2.38-5.68-1.23
				c1.21-7.58,2.93-11.26,2.21-19.38c-0.25-2.69,3.02-7.23,6.14-9.22C313.38,251.82,316.02,254.2,314.74,257.62z"/>
			<path class="st3" d="M363.03,258.24c-2.1,8.32-1.29,17.83-3.52,26.11c0.26,3.3,5.57-2.21,7.76-4.95
				c3.14-3.72,6.04-8.06,8.71-12.3c2.36-3.75,4.44-7.43,7.5-10.44c1.6-1.64,2.58-1.64,3.35-1.17c0.96,0.59,5.75,3.31,4.63,0.59
				c-0.83-2.02-4.96-5.99-7.1-5.53c-4.37,0.94-9.82,12.73-11.96,16.47c-1.13,1.97-2.34,3.82-3.83,5.22c-2.14,2-1.45,1.29-1.24-1.14
				c0.58-6.6,2.08-11.82,2.39-17.47C370.01,248.57,363.7,255.58,363.03,258.24"/>
			<path class="st4" d="M363.03,258.24c-2.1,8.32-1.29,17.83-3.52,26.11c0.26,3.3,5.57-2.21,7.76-4.95
				c3.14-3.72,6.04-8.06,8.71-12.3c2.36-3.75,4.44-7.43,7.5-10.44c1.6-1.64,2.58-1.64,3.35-1.17c0.96,0.59,5.75,3.31,4.63,0.59
				c-0.83-2.02-4.96-5.99-7.1-5.53c-4.37,0.94-9.82,12.73-11.96,16.47c-1.13,1.97-2.34,3.82-3.83,5.22c-2.14,2-1.45,1.29-1.24-1.14
				c0.58-6.6,2.08-11.82,2.39-17.47C370.01,248.57,363.7,255.58,363.03,258.24z"/>
			<path class="st3" d="M401.11,267.32c0.9-4.8,2.28-8.48,3.5-12.11c2.71-8.06,6.52-9.39,4.08-0.61
				C407.35,259.39,406.03,264.27,401.11,267.32 M394.14,276.31c0.34-7.15,2.16-17.49,6.21-24.32c4.24-9.02,16.64-14.13,15.97-6.67
				c0.09,5.29-3.12,11.95-7.26,18.18c4.69-3.71,9.62-6.46,15.78-10.2c1.83-0.67,2.71,0.05,1.93,1.59
				c-7.97,5.2-16.64,11.13-24.51,17.58c-0.49,0.58-0.98,1.15-1.47,1.7c0.04,5.35,1.08,8.38,5.77,6.7
				c6.75-2.53,11.42-9.06,17.27-13.3c3.66-2.66,3.72,0.93,1.07,3.22c-2.19,1.89-6,5.69-10.02,9.4
				C408.18,286.39,393.78,293.3,394.14,276.31"/>
			<path class="st4" d="M401.11,267.32c0.9-4.8,2.28-8.48,3.5-12.11c2.71-8.06,6.52-9.39,4.08-0.61
				C407.35,259.39,406.03,264.27,401.11,267.32z M394.14,276.31c0.34-7.15,2.16-17.49,6.21-24.32c4.24-9.02,16.64-14.13,15.97-6.67
				c0.09,5.29-3.12,11.95-7.26,18.18c4.69-3.71,9.62-6.46,15.78-10.2c1.83-0.67,2.71,0.05,1.93,1.59
				c-7.97,5.2-16.64,11.13-24.51,17.58c-0.49,0.58-0.98,1.15-1.47,1.7c0.04,5.35,1.08,8.38,5.77,6.7
				c6.75-2.53,11.42-9.06,17.27-13.3c3.66-2.66,3.72,0.93,1.07,3.22c-2.19,1.89-6,5.69-10.02,9.4
				C408.18,286.39,393.78,293.3,394.14,276.31z"/>
			<path class="st5" d="M363.93,219.91h0.32c0.4,0,0.59,0.12,0.59,0.39c0,0.26-0.19,0.38-0.57,0.38h-0.34V219.91 M363.41,219.58
				v2.43h0.52V221h0.38l0.49,1.02h0.58l-0.55-1.1c0.35-0.08,0.55-0.32,0.55-0.68c0-0.42-0.34-0.65-1.03-0.65H363.41z M364.3,218.98
				c0.5,0,0.95,0.19,1.32,0.56c0.35,0.35,0.53,0.8,0.53,1.33c0,0.49-0.19,0.94-0.54,1.28c-0.37,0.35-0.83,0.54-1.34,0.54
				c-0.47,0-0.93-0.19-1.28-0.55c-0.34-0.36-0.53-0.81-0.53-1.3c0-0.49,0.19-0.95,0.56-1.32
				C363.36,219.17,363.8,218.98,364.3,218.98 M364.29,218.66c-0.59,0-1.1,0.21-1.51,0.62c-0.42,0.42-0.65,0.97-0.65,1.55
				c0,0.57,0.22,1.1,0.63,1.52c0.42,0.42,0.96,0.65,1.54,0.65c0.57,0,1.11-0.22,1.54-0.64c0.42-0.41,0.64-0.94,0.64-1.54
				c0-0.58-0.21-1.11-0.62-1.52C365.42,218.89,364.89,218.66,364.29,218.66"/>
			<polygon class="st5" points="344.45,196.35 353.19,206.78 362.51,196.33 372.25,196.33 357.1,213.29 357.1,222.99 349.36,222.99 
				349.36,213.39 335.29,196.35 			"/>
			<path class="st5" d="M190.38,203.2h15.4c1.04,0,1.89,0.85,1.89,1.89v8.97c0,1.04-0.85,1.89-1.89,1.89h-15.4
				c-1.03,0-1.89-0.85-1.89-1.89v-8.97C188.49,204.05,189.35,203.2,190.38,203.2 M183.81,196.33h28.55c1.58,0,2.87,1.29,2.87,2.86
				v20.92c0,1.57-1.29,2.87-2.87,2.87h-28.55c-1.58,0-2.87-1.3-2.87-2.87V199.2C180.94,197.62,182.23,196.33,183.81,196.33"/>
			<polygon class="st5" points="262.21,196.33 262.21,223 253.63,223 253.63,202.67 242.91,223 237.9,223 227.32,202.93 227.32,223 
				218.73,223 218.73,196.33 233.32,196.33 240.4,210.99 247.47,196.33 			"/>
			<path class="st5" d="M177.42,196.33h-27.19c-1.5,0-2.73,1.23-2.73,2.74v10.14c0.02,2.82,2.61,3.3,5.74,3.32h14.92
				c0.94,0,1.7,0.77,1.7,1.7c0,0.94-0.77,1.7-1.7,1.7h-0.04h-20.6v7.06h27.33l-0.01-0.01c1.44-0.08,2.59-1.27,2.59-2.73v-10.33
				c0.13-2.57-1.89-3.68-6.06-3.45h-14.51h-0.1h-0.05h-0.07c-0.85-0.06-1.53-0.78-1.53-1.65c0-0.9,0.74-1.64,1.65-1.64h0.14h20.53
				V196.33"/>
			<polygon class="st5" points="325.91,196.34 333.66,196.34 333.66,222.99 321.39,223 307.55,202.66 307.55,223.01 299.8,223.01 
				299.8,196.33 312.69,196.34 325.91,215.78 			"/>
			<path class="st5" d="M285.13,213.27l-4.41-8.91l-4.22,8.89L285.13,213.27z M297.53,222.97l-8.11-0.03l-1.85-3.97l-13.82,0.02
				l-1.89,3.95l-7.68,0.01l12.79-26.67h7.76L297.53,222.97z"/>
			<polygon class="st5" points="376.49,189.42 355.69,189.43 355.69,196.74 352.97,196.74 352.97,186.75 379.22,186.72 
				379.22,212.98 367.29,212.98 367.34,210.25 376.55,210.26 			"/>
		</g>
	</g>
</g>
</svg>
