<?xml version="1.0" encoding="utf-8"?>
<!-- Generator: Adobe Illustrator 23.0.3, SVG Export Plug-In . SVG Version: 6.00 Build 0)  -->
<svg version="1.1" id="Layer_1" xmlns="http://www.w3.org/2000/svg" xmlns:xlink="http://www.w3.org/1999/xlink" x="0px" y="0px"
	 viewBox="0 0 2232 812" style="enable-background:new 0 0 2232 812;" xml:space="preserve">
<style type="text/css">
	.st0{fill:#EA2227;}
	.st1{fill:#1B92D0;}
	.st2{fill:url(#SVGID_1_);}
	.st3{fill:#209CD8;stroke:#209CD8;stroke-width:8;stroke-miterlimit:10;}
	.st4{fill:#231F20;}
</style>
<polygon class="st0" points="1645.35,281.07 1645.35,281.07 1524.52,103.39 1406.74,103.31 1406.74,347.1 1477.63,347.1 
	1477.63,161.09 1603.99,347.06 1716.19,346.86 1716.19,103.36 1645.35,103.36 "/>
<path class="st0" d="M14.85,128.19L14.85,128.19v92.7c0.13,25.75,23.87,30.29,52.43,30.32h136.37c8.49,0.05,15.44,7.06,15.44,15.61
	c0,8.61-6.98,15.58-15.5,15.58h-0.4H14.85v64.46h249.78c13.12-0.72,23.58-11.62,23.58-24.94v-94.44c1.23-23.5-17.21-33.7-55.3-31.54
	h-132.7c-0.21,0.05-0.56,0.05-0.85,0.05H98.9c-0.23,0.06-0.42,0.06-0.65-0.05c-7.82-0.58-14.02-7.1-14.02-14.98
	c0-8.35,6.8-15.13,15.13-15.13c0.44,0,0.8,0.08,1.28,0.08H288.2v-62.64H39.77C26.04,103.28,14.85,114.5,14.85,128.19z"/>
<path class="st0" d="M1268.96,102.73h-70.97l-116.86,243.8l70.22-0.1l17.31-36.14l64.51-0.06h61.7l16.94,36.36l74.06,0.19
	L1268.96,102.73z M1233.18,257.97l-39.47-0.13l38.72-81.22l0.75,1.69l39.37,79.74L1233.18,257.97z"/>
<polygon class="st0" points="863.87,237.24 799.12,103.31 665.82,103.31 665.82,347.01 744.28,347.01 744.28,163.63 840.96,347.01 
	886.72,347.01 984.73,161.14 984.73,347.01 1063.16,347.01 1063.16,103.31 928.51,103.31 "/>
<path class="st0" d="M607.51,103.31H346.62c-14.43,0-26.25,11.77-26.25,26.16v191.21c0,14.41,11.82,26.18,26.25,26.18h260.89
	c14.41,0,26.26-11.77,26.26-26.18V129.47C633.76,115.08,621.91,103.31,607.51,103.31z M564.65,265.35c0,9.53-7.8,17.29-17.23,17.29
	H406.76c-9.54,0-17.29-7.76-17.29-17.29v-82.09c0-9.49,7.75-17.26,17.29-17.26h140.65c9.43,0,17.23,7.77,17.23,17.26V265.35z"/>
<polygon class="st0" points="1979.9,103.31 1894.67,198.74 1814.78,103.45 1731.02,103.45 1859.66,259.17 1859.66,346.86 
	1930.44,346.86 1930.44,258.27 2068.89,103.31 "/>
<polygon class="st1" points="2107.6,40.1 1917.51,40.22 1917.51,107.05 1892.65,107.05 1892.65,15.65 2132.58,15.52 2132.58,255.41 
	2023.44,255.41 2024.02,230.4 2108.11,230.46 "/>
<linearGradient id="SVGID_1_" gradientUnits="userSpaceOnUse" x1="1185.8419" y1="753.8713" x2="1917.4054" y2="753.8713">
	<stop  offset="0" style="stop-color:#084F7F"/>
	<stop  offset="0.3088" style="stop-color:#227EA5"/>
	<stop  offset="0.6105" style="stop-color:#37A5C5"/>
	<stop  offset="0.8509" style="stop-color:#44BCD9"/>
	<stop  offset="1" style="stop-color:#49C5E0"/>
</linearGradient>
<path class="st2" d="M1186.4,771.72c0.67-0.61,1.18-1.7,1.77-2.22c1.23-1.08,2.65-1.82,4.12-2.53c3.17-1.52,6.35-3,9.56-4.45
	c6.56-2.96,13.18-5.77,19.86-8.43c24.41-9.71,49.63-17.31,75.21-23.27c6.54-1.51,13.11-2.89,19.7-4.12
	c32.86-6.13,66.26-9.05,99.67-9.62c13.12-0.22,26.25-0.08,39.36,0.37c45.43,1.55,90.74,6.96,135.24,16.22
	c36.85,7.66,73.41,16.66,110.22,24.57c7.6,1.63,15.2,3.3,22.8,4.92c64.45,13.71,130.92,25.27,193.49-2.32
	c-26.33,18.18-60.26,24.6-91.5,27.88c-3.24,0.34-6.49,0.64-9.74,0.91c-34.67,2.86-69.49-0.09-103.86-4.81
	c-3.11-0.43-6.22-0.87-9.33-1.32c-87.98-12.85-172.54-42.56-261.2-51.06c-43.98-4.21-88.55-4.01-132.24,2.96
	c-33.32,5.31-65.49,14.98-97.12,26.55c-8.9,3.26-17.76,6.64-26.58,10.14C1186.04,772.01,1186.22,771.88,1186.4,771.72z"/>
<g>
	<path class="st3" d="M665.24,677.98c-21.96,0-41.05-7.89-56.71-23.46c-15.58-15.68-23.48-34.76-23.48-56.73
		c0-22.06,7.9-41.14,23.47-56.72c15.67-15.67,34.75-23.62,56.72-23.62c14.88,0,28.81,3.9,41.39,11.59
		c7.69,4.63,14.45,10.38,20.11,17.11l3.55,4.23v-28.43h15.28v151.53h-15.28v-28.43l-3.55,4.23c-5.66,6.73-12.43,12.49-20.13,17.12
		C694.03,674.09,680.12,677.98,665.24,677.98z M665.24,532.74c-18.05,0-33.05,6.23-45.86,19.04
		c-12.81,12.81-19.04,27.86-19.04,46.01c0,18.05,6.23,33.05,19.04,45.87c12.81,12.81,27.81,19.04,45.86,19.04
		c18.15,0,33.2-6.23,46.01-19.04c12.81-12.81,19.04-27.82,19.04-45.86c0-18.15-6.23-33.2-19.04-46.01
		C698.43,538.97,683.38,532.74,665.24,532.74z"/>
	<path class="st3" d="M867.97,677.98c-17.35,0-32.34-6.24-44.54-18.55c-12.3-12.2-18.53-27.17-18.53-44.52V481.76h15.28v40.92h50.64
		v15.14h-50.64v77.1c0,13.27,4.57,24.34,13.97,33.83c9.49,9.39,20.54,13.95,33.81,13.95h2.85v15.28H867.97z"/>
	<path class="st3" d="M1042.31,673.63v-93.1c0-13.27-4.61-24.33-14.11-33.82c-9.4-9.4-20.46-13.96-33.82-13.96
		c-13.27,0-24.34,4.57-33.83,13.98c-9.4,9.49-13.96,20.54-13.96,33.81v93.1h-15.28V459.71h15.28v79.27l3.46-3.57
		c11.53-11.91,26.44-17.95,44.33-17.95c17.35,0,32.38,6.24,44.68,18.54c12.3,12.3,18.54,27.28,18.54,44.53v93.1H1042.31z"/>
	<polygon class="st3" points="1271.87,673.63 1225.99,546.27 1179.97,673.63 1162.9,673.63 1108.32,521.95 1124.54,521.95 
		1171.44,652.21 1218.47,521.95 1233.51,521.95 1280.4,652.19 1327.3,521.95 1343.52,521.95 1288.94,673.63 	"/>
	<path class="st3" d="M1474.14,677.98c-21.96,0-41.05-7.89-56.71-23.46c-15.58-15.67-23.48-34.76-23.48-56.73
		c0-22.06,7.9-41.15,23.47-56.72c15.67-15.67,34.76-23.62,56.72-23.62c14.88,0,28.81,3.9,41.39,11.59
		c7.69,4.63,14.45,10.38,20.11,17.11l3.55,4.23v-28.43h15.28v151.53h-15.28v-28.43l-3.55,4.23c-5.66,6.73-12.43,12.49-20.12,17.12
		C1502.94,674.09,1489.02,677.98,1474.14,677.98z M1474.14,532.74c-18.05,0-33.05,6.23-45.87,19.04
		c-12.81,12.82-19.04,27.87-19.04,46.01c0,18.05,6.23,33.05,19.04,45.86c12.81,12.81,27.82,19.04,45.86,19.04
		c18.15,0,33.2-6.23,46.01-19.04c12.81-12.81,19.04-27.82,19.04-45.87c0-18.15-6.23-33.2-19.04-46.01
		C1507.34,538.97,1492.29,532.74,1474.14,532.74z"/>
	<path class="st3" d="M1613.8,673.63V521.95h15.29v28.34l3.56-4.24c5.6-6.68,12.32-12.4,19.98-17.01
		c12.68-7.69,26.59-11.58,41.37-11.58h2.85v15.28H1694c-18.05,0-33.05,6.23-45.87,19.04c-12.81,12.81-19.04,27.81-19.04,45.87v75.98
		H1613.8z"/>
	<path class="st3" d="M1828.97,677.98c-21.96,0-41.04-7.89-56.72-23.46c-15.58-15.68-23.48-34.76-23.48-56.73
		c0-22.06,7.9-41.15,23.47-56.72c15.67-15.67,34.76-23.62,56.72-23.62c22.07,0,41.15,7.95,56.73,23.62
		c15.67,15.57,23.61,34.65,23.61,56.71v7.64h-144.87l0.34,2.3c2.14,14.65,8.64,26.9,19.86,37.45
		c12.62,11.78,27.12,17.51,44.33,17.51c18.15,0,33.2-6.23,46.01-19.04l2.04-2.04l10.67,10.9l-2,2
		C1870.12,670.09,1851.03,677.98,1828.97,677.98z M1828.97,532.74c-17.21,0-31.71,5.77-44.33,17.65
		c-11.23,10.47-17.73,22.73-19.86,37.46l-0.33,2.3h129.07l-0.32-2.29c-2.07-14.73-8.57-26.98-19.87-37.45
		C1860.78,538.52,1846.27,532.74,1828.97,532.74z"/>
	<path class="st3" d="M333.96,677.98c-4.9,0-8.74-3.83-8.74-8.73V449.5c0-4.9,3.84-8.73,8.74-8.73h88.62
		c9.22,0,90.05,1.75,90.05,62.2c0,20.47-9.25,36.15-26.75,45.34l-4.19,2.2l4.49,1.49c20.08,6.67,44.02,22.06,44.02,57.54
		c0,26.25-11.71,45.34-34.82,56.74c-19.57,9.66-43.62,11.69-60.35,11.69H333.96z M341.96,662.72h93.09
		c25.75,0,45.5-4.63,58.68-13.76c12.86-8.9,19.38-22.16,19.38-39.41c0-15.14-5.7-27.01-16.95-35.28
		c-11.36-8.35-28.44-12.77-49.4-12.77h-104.8V662.72z M341.96,545.52h85.4c19.41,0,35.03-2.81,46.42-8.34
		c14.64-7.11,21.76-18.3,21.76-34.2c0-36.2-45.87-46.54-72.98-46.95h-80.6V545.52z"/>
</g>
<g>
	<path class="st4" d="M2166.2,19.36h-11.8v-4.27h28.48v4.27h-11.9v31.69h-4.77V19.36z"/>
	<path class="st4" d="M2187.8,15.09h7.13l8.49,25.46c1.21,3.57,1.41,4.27,1.66,5.32h0.1c0.6-1.96,0.75-2.36,1.91-5.78l8.59-25.01
		h6.33v35.96h-4.52V20.97h-0.1l-10.35,30.08h-4.27l-10.29-30.59h-0.15v30.59h-4.52V15.09z"/>
</g>
</svg>
