<?xml version="1.0" encoding="utf-8"?>
<!-- Generator: Adobe Illustrator 23.0.3, SVG Export Plug-In . SVG Version: 6.00 Build 0)  -->
<svg version="1.1" id="Layer_1" xmlns="http://www.w3.org/2000/svg" xmlns:xlink="http://www.w3.org/1999/xlink" x="0px" y="0px"
	 viewBox="0 0 500 500" style="enable-background:new 0 0 500 500;" xml:space="preserve">
<style type="text/css">
	.st0{clip-path:url(#SVGID_2_);}
	.st1{clip-path:url(#SVGID_4_);fill:#FFFFFF;}
	.st2{clip-path:url(#SVGID_4_);fill:#58595B;}
	.st3{clip-path:url(#SVGID_4_);fill:#C4161C;}
</style>
<g>
	<g>
		<defs>
			<rect id="SVGID_1_" x="13" y="71" width="474" height="357.74"/>
		</defs>
		<clipPath id="SVGID_2_">
			<use xlink:href="#SVGID_1_"  style="overflow:visible;"/>
		</clipPath>
		<g class="st0">
			<defs>
				<rect id="SVGID_3_" x="13" y="71" width="474" height="357.74"/>
			</defs>
			<clipPath id="SVGID_4_">
				<use xlink:href="#SVGID_3_"  style="overflow:visible;"/>
			</clipPath>
			<path class="st1" d="M173.85,233l-15.66-65.06l3.61-8.43l48.19-6.62l32.78-28.2l46.29,20.19l18.74,9.09l-0.28,11.07l10.79,13.06
				c0,0,3.41,36.34,3.41,37.48c0,1.14-1.46,26.86-1.46,26.86l-9.33,17.44l-9.93,5.11l-26.41,30.1l-23.57,18.45l-11.07,1.99
				l-15.61-8.24l-33.79-25.83L173.85,233z"/>
			<path class="st2" d="M242.82,124.54c-0.03,0-0.05,0-0.1,0c0,0-0.02,0.01-0.03,0.01h0.13L242.82,124.54z"/>
			<path class="st2" d="M242.54,124.58c0,0,0.04,0.02,0.05,0.02c0.03-0.01,0.07-0.02,0.1-0.04
				C242.41,124.56,242.07,124.57,242.54,124.58"/>
			<path class="st3" d="M273.13,258.72v-0.03c-10.93-0.22-19.91-3.91-26.95-10.34c-10.38-9.49-10.04-21.15-9.96-37.28
				c0.02-4.6,0.03-8.82,0.25-12.74l-21.91,59.31l-15.06-0.07l-33.6-93.5l20.86,0.1l20.43,60.92l35.59-100.4
				c-0.09-0.04-0.14-0.07-0.18-0.09c-2.63,1.21-6.51,2.34-10.43,3.77c-14.66,6.23-29.65,11.8-45.65,14.96
				c-9.62,1.9-19.39,3.2-29.09,4.75c-2.6,0.41-5.21,0.74-7.82,1.09c-1.25,0.17-1.87,0.58-1.82,1.86c0.51,11.61,0.85,23.23,1.4,34.84
				c0.29,6.08,0.5,12.19,1.49,18.2c1.17,7.08,2.95,14.11,4.79,21.09c2.45,9.33,6.02,18.37,10.47,27.13
				c5.08,10,11.7,19.24,18.89,28.21c7.76,9.67,17.32,17.84,27.48,25.59c7.66,5.85,15.8,11.01,24.79,15.19
				c1.93,0.9,3.61,1.04,5.64,0.17c7.61-3.26,14.74-7.11,21.24-11.85c8.73-6.38,17.35-12.86,24.76-20.42
				c7.71-7.86,14.22-16.45,20.15-25.39c1.12-1.68,2.18-3.37,3.19-5.08H273.13z"/>
			<path class="st3" d="M325.48,148.85c-9.33-1.54-18.71-2.86-27.95-4.7c-12.79-2.54-24.94-6.73-36.77-11.57l-15.84,42.88
				c0.51-0.53,1.04-1.05,1.61-1.56c7.27-6.52,16.56-10.15,27.86-10.1c4.51,0.02,8.41,0.54,11.91,1.47v18.6
				c-3.22-2.39-6.59-3.79-11.98-3.82c-5.5-0.03-9.86,1.79-12.77,4.79c-3.93,3.91-5.11,8.36-5.19,26.32
				c-0.08,17.96,1.06,22.42,4.95,26.38c2.8,2.94,6.97,4.75,12.23,4.89h46.73c2.89-6.88,5.25-13.93,7.26-21.11
				c3.14-11.21,4.62-22.57,5.21-34.05c0.46-8.91,0.97-17.82,1.47-26.73c0.02-0.4,0.16-0.8,0.24-1.2c0.01-3.02,0.02-6.04,0.04-9.06
				C331.47,149.8,328.47,149.35,325.48,148.85"/>
			<path class="st1" d="M234.81,284.03l0.08-16.83l-2.55-0.01l-0.08,16.83L234.81,284.03z M227.39,284l0.08-16.83l-2.55-0.01
				l-0.03,7.19l-6.83-0.03l0.03-7.18l-2.55-0.01l-0.08,16.83l2.55,0.01l0.03-7.35l6.83,0.03l-0.03,7.35L227.39,284z M211.58,279.12
				c0.01-1.44-0.44-2.65-1.35-3.46c-0.71-0.64-1.58-1.02-3.14-1.27l-1.91-0.29c-0.78-0.12-1.46-0.41-1.89-0.79
				c-0.45-0.4-0.63-0.95-0.63-1.56c0.01-1.49,1.1-2.62,3.09-2.61c1.42,0.01,2.62,0.32,3.66,1.32l1.64-1.6
				c-1.44-1.35-2.99-1.93-5.21-1.94c-3.5-0.02-5.63,1.98-5.65,4.91c-0.01,1.37,0.39,2.44,1.21,3.22c0.73,0.69,1.81,1.17,3.18,1.36
				l1.98,0.29c0.99,0.15,1.42,0.31,1.84,0.72c0.45,0.4,0.66,1.02,0.65,1.75c-0.01,1.63-1.29,2.57-3.49,2.56
				c-1.73-0.01-3.07-0.39-4.29-1.63l-1.71,1.67c1.6,1.64,3.42,2.24,5.95,2.25C209.02,284.05,211.56,282.22,211.58,279.12"/>
			<polygon class="st1" points="250.43,283.92 250.45,281.63 242.24,281.59 242.27,276.53 249.26,276.57 249.27,274.3 
				242.28,274.26 242.3,269.35 250.5,269.39 250.51,267.09 239.76,267.04 239.68,283.87 			"/>
			<path class="st1" d="M277.89,275.7c-0.01,2.32-0.04,4.14-0.92,5.1c-0.71,0.78-1.66,1.13-2.86,1.12l-3.1-0.01l0.06-12.24l3.1,0.01
				c1.21,0.01,2.15,0.36,2.85,1.15C277.89,271.8,277.9,273.39,277.89,275.7 M280.44,275.71c0.01-2.43,0.14-4.89-1.67-6.72
				c-1.06-1.07-2.59-1.6-4.34-1.6l-5.91-0.03l-0.08,16.83l5.91,0.03c1.75,0.01,3.29-0.5,4.36-1.56
				C280.54,280.84,280.43,278.15,280.44,275.71 M265.54,284.18l0.01-2.29l-8.11-0.04l0.07-14.54l-2.55-0.01l-0.08,16.83
				L265.54,284.18z"/>
			<path class="st1" d="M249.15,300.8l0.04-8.21l-0.88,0l-0.04,8.21L249.15,300.8z M245.3,300.78l0-0.78l-4.22-0.02l0.01-2.97
				l3.6,0.02l0-0.78l-3.6-0.02l0.01-2.9l4.22,0.02l0-0.78l-5.1-0.02l-0.04,8.21L245.3,300.78z M236.53,294.94
				c0,1.08-0.72,1.64-1.75,1.63l-2.1-0.01l0.02-3.26l2.1,0.01C235.82,293.31,236.53,293.85,236.53,294.94 M237.4,294.94
				c0.01-1.48-1.03-2.42-2.53-2.42l-3.06-0.01l-0.04,8.21l0.88,0l0.02-3.38l2.18,0.01C236.35,297.36,237.4,296.42,237.4,294.94"/>
			<path class="st1" d="M251.18,312.37l-2.93-5.06l2.6-3.16l-1.07,0l-3.85,4.7l0.02-4.72l-0.88,0l-0.04,8.21l0.88,0l0.01-2.3
				l1.74-2.07l2.48,4.38L251.18,312.37z M241.1,310.09c0,0.9-0.51,1.57-1.43,1.56c-0.91,0-1.42-0.68-1.41-1.58l0.02-3.74
				c0-0.9,0.51-1.57,1.43-1.56c0.91,0,1.42,0.68,1.41,1.58L241.1,310.09z M241.93,310.14l0.02-3.83c0.01-1.36-0.96-2.27-2.24-2.27
				c-1.28-0.01-2.25,0.89-2.26,2.25l-0.02,3.83c-0.01,1.36,0.96,2.27,2.24,2.27C240.95,312.39,241.93,311.5,241.93,310.14
				 M234.83,309.58c0-0.77-0.07-1.6-0.67-2.21c-0.32-0.32-0.81-0.52-1.42-0.53c-0.65,0-1.15,0.2-1.48,0.56l0.01-2.61l3.4,0.02
				l0-0.74l-4.15-0.02l-0.02,4.32l0.75,0c0.16-0.48,0.65-0.8,1.37-0.8c1.19,0.01,1.38,1,1.37,2c0,0.59-0.03,1.25-0.46,1.67
				c-0.24,0.24-0.61,0.38-1.02,0.38c-0.87,0-1.29-0.47-1.39-1.29l-0.83,0c0.04,0.59,0.21,1.06,0.57,1.43
				c0.36,0.36,0.93,0.59,1.65,0.6c0.73,0,1.26-0.22,1.64-0.6C234.75,311.18,234.83,310.4,234.83,309.58"/>
			<path class="st2" d="M291.48,331.49v-1.64h-8.44v1.64h3.31v10.38h1.82v-10.38H291.48z M276.76,337.91h-3.7l1.87-5.33
				L276.76,337.91z M280.03,341.88l-4.41-12.02h-1.47l-4.41,12.02h1.94l0.83-2.41h4.74l0.83,2.41H280.03z M263.46,335.87
				c0,2.41-0.12,3.09-0.71,3.73c-0.42,0.46-1.08,0.74-1.79,0.74c-0.71,0-1.37-0.29-1.79-0.74c-0.59-0.64-0.71-1.32-0.71-3.73
				c0-2.41,0.12-3.09,0.71-3.73c0.42-0.46,1.08-0.74,1.79-0.74c0.71,0,1.37,0.29,1.79,0.74
				C263.34,332.78,263.46,333.45,263.46,335.87 M265.28,335.87c0-2.31,0.03-3.65-1.15-4.83c-0.83-0.83-1.89-1.28-3.17-1.28
				c-1.28,0-2.33,0.46-3.16,1.28c-1.18,1.18-1.16,2.52-1.16,4.83c0,2.31-0.02,3.65,1.16,4.83c0.83,0.83,1.87,1.28,3.16,1.28
				c1.28,0,2.35-0.46,3.17-1.28C265.31,339.51,265.28,338.18,265.28,335.87 M251.69,340.56l-1.22-1.23
				c-0.62,0.62-1.15,1.01-2.14,1.01c-0.71,0-1.35-0.27-1.77-0.73c-0.59-0.64-0.71-1.33-0.71-3.75c0-2.41,0.12-3.11,0.71-3.75
				c0.42-0.46,1.06-0.73,1.77-0.73c1,0,1.52,0.39,2.14,1.01l1.22-1.23c-0.89-0.88-1.86-1.42-3.36-1.42c-1.25,0-2.33,0.46-3.16,1.28
				c-1.18,1.18-1.16,2.52-1.16,4.83c0,2.31-0.02,3.65,1.16,4.83c0.83,0.83,1.91,1.28,3.16,1.28
				C249.83,341.98,250.79,341.44,251.69,340.56 M232.49,335.78c0,1.65-0.02,2.95-0.64,3.65c-0.51,0.56-1.18,0.81-2.04,0.81h-2.21
				v-8.75h2.21c0.86,0,1.54,0.25,2.04,0.81C232.48,333,232.49,334.13,232.49,335.78 M234.32,335.78c0-1.74,0.08-3.5-1.22-4.8
				c-0.76-0.76-1.86-1.13-3.11-1.13h-4.22v12.02h4.22c1.25,0,2.35-0.37,3.11-1.13C234.4,339.45,234.32,337.52,234.32,335.78
				 M217.91,333.39c0,1.18-0.83,1.87-2.04,1.87h-2.7v-3.76h2.7C217.08,331.49,217.91,332.2,217.91,333.39 M220.1,341.88l-2.77-5.32
				c1.35-0.37,2.4-1.47,2.4-3.19c0-2.04-1.45-3.51-3.73-3.51h-4.66v12.02h1.82v-5.06h2.28l2.53,5.06H220.1z M202.98,337.91h-3.7
				l1.87-5.33L202.98,337.91z M206.26,341.88l-4.41-12.02h-1.47l-4.41,12.02h1.94l0.83-2.41h4.74l0.83,2.41H206.26z M190.89,341.88
				v-12.02h-1.82v5.13h-4.88v-5.13h-1.82v12.02h1.82v-5.25h4.88v5.25H190.89z"/>
			<path class="st2" d="M305.19,350.12h-1.99l-2.52,5.28l-2.52-5.28h-1.99l3.6,7.07v4.95h1.82v-4.95L305.19,350.12z M291.85,357.44
				v-1.81h-4.34v1.55h2.52v0.66c0,0.74-0.15,1.42-0.59,1.91c-0.47,0.54-1.13,0.84-1.92,0.84c-0.71,0-1.37-0.27-1.79-0.73
				c-0.59-0.64-0.71-1.33-0.71-3.75c0-2.41,0.12-3.09,0.71-3.73c0.42-0.46,1.08-0.74,1.79-0.74c1.08,0,1.64,0.42,2.4,1.18l1.23-1.23
				c-1.08-1.08-1.99-1.59-3.63-1.59c-1.28,0-2.33,0.46-3.16,1.28c-1.18,1.18-1.17,2.52-1.17,4.83c0,2.31-0.02,3.65,1.17,4.83
				c0.83,0.83,1.91,1.28,3.16,1.28c1.32,0,2.43-0.49,3.28-1.38C291.58,360.01,291.85,359,291.85,357.44 M275.73,356.13
				c0,2.41-0.12,3.09-0.71,3.73c-0.42,0.46-1.08,0.74-1.79,0.74s-1.37-0.29-1.79-0.74c-0.59-0.64-0.71-1.32-0.71-3.73
				c0-2.41,0.12-3.09,0.71-3.73c0.42-0.46,1.08-0.74,1.79-0.74s1.37,0.29,1.79,0.74C275.61,353.04,275.73,353.71,275.73,356.13
				 M277.55,356.13c0-2.31,0.03-3.65-1.15-4.83c-0.83-0.83-1.89-1.28-3.17-1.28c-1.28,0-2.33,0.46-3.16,1.28
				c-1.18,1.18-1.17,2.52-1.17,4.83c0,2.31-0.02,3.65,1.17,4.83c0.83,0.83,1.87,1.28,3.16,1.28c1.28,0,2.35-0.46,3.17-1.28
				C277.59,359.77,277.55,358.44,277.55,356.13 M264.4,362.14v-1.64h-5.79v-10.38h-1.82v12.02H264.4z M248.89,356.13
				c0,2.41-0.12,3.09-0.71,3.73c-0.42,0.46-1.08,0.74-1.79,0.74c-0.71,0-1.37-0.29-1.79-0.74c-0.59-0.64-0.71-1.32-0.71-3.73
				c0-2.41,0.12-3.09,0.71-3.73c0.42-0.46,1.08-0.74,1.79-0.74c0.71,0,1.37,0.29,1.79,0.74
				C248.77,353.04,248.89,353.71,248.89,356.13 M250.71,356.13c0-2.31,0.03-3.65-1.15-4.83c-0.83-0.83-1.89-1.28-3.17-1.28
				c-1.28,0-2.33,0.46-3.16,1.28c-1.18,1.18-1.16,2.52-1.16,4.83c0,2.31-0.02,3.65,1.16,4.83c0.83,0.83,1.87,1.28,3.16,1.28
				c1.28,0,2.35-0.46,3.17-1.28C250.74,359.77,250.71,358.44,250.71,356.13 M235.99,362.14v-12.02h-1.82v8.44l-5.55-8.44h-1.67
				v12.02h1.82v-8.46l5.55,8.46H235.99z M220.42,362.14v-12.02h-1.82v5.13h-4.88v-5.13h-1.82v12.02h1.82v-5.25h4.88v5.25H220.42z
				 M206.07,360.82l-1.22-1.23c-0.62,0.62-1.15,1.01-2.14,1.01c-0.71,0-1.35-0.27-1.77-0.73c-0.59-0.64-0.71-1.33-0.71-3.75
				c0-2.41,0.12-3.11,0.71-3.75c0.42-0.46,1.06-0.73,1.77-0.73c1,0,1.52,0.39,2.14,1.01l1.22-1.23c-0.89-0.88-1.86-1.42-3.36-1.42
				c-1.25,0-2.33,0.46-3.16,1.28c-1.18,1.18-1.16,2.52-1.16,4.83c0,2.31-0.02,3.65,1.16,4.83c0.83,0.83,1.91,1.28,3.16,1.28
				C204.21,362.24,205.18,361.7,206.07,360.82 M192.95,362.14v-1.64h-5.86v-3.61h5v-1.62h-5v-3.51h5.86v-1.64h-7.68v12.02H192.95z
				 M179.82,351.75v-1.64h-8.44v1.64h3.31v10.38h1.82v-10.38H179.82z"/>
			<path class="st2" d="M190.24,110.84c0.42,1.1-0.09,2.02-1.2,2.44l-2.3,0.87l-1.33-3.49l2.3-0.87
				C188.82,109.38,189.82,109.74,190.24,110.84 M191.83,110.24c-0.69-1.83-2.52-2.68-4.57-1.91l-3.98,1.51l3.98,10.49l1.59-0.6
				l-1.57-4.13l2.39-0.91C191.72,113.92,192.52,112.07,191.83,110.24"/>
			<path class="st2" d="M205.07,110.67l-3.34,0.87l0.44-5.26L205.07,110.67z M208.96,113.48l-6.81-9.82l-1.33,0.35l-1.15,11.89
				l1.75-0.46l0.18-2.38l4.28-1.12l1.32,1.99L208.96,113.48z"/>
			<polygon class="st2" points="220.22,101.72 219.99,100.21 212.2,101.41 212.43,102.92 215.49,102.45 216.97,112.03 
				218.65,111.77 217.17,102.19 			"/>
			<polygon class="st2" points="236.15,110.27 236.08,108.75 230.62,109 230.47,105.63 235.13,105.42 235.06,103.91 230.4,104.12 
				230.24,100.85 235.71,100.59 235.64,99.07 228.47,99.4 228.99,110.61 			"/>
			<polygon class="st2" points="252.27,110.94 253.05,99.75 251.35,99.63 250.8,107.49 246.18,99.26 244.63,99.15 243.84,110.35 
				245.54,110.47 246.09,102.59 250.71,110.83 			"/>
			<polygon class="st2" points="269.04,103.79 269.32,102.29 261.58,100.85 261.3,102.35 264.33,102.92 262.56,112.44 
				264.24,112.75 266.01,103.23 			"/>
			<polygon class="st2" points="281.24,117.13 281.68,115.67 276.44,114.1 277.41,110.87 281.88,112.21 282.31,110.76 
				277.84,109.42 278.78,106.28 284.02,107.85 284.46,106.38 277.59,104.33 274.37,115.07 			"/>
			<path class="st2" d="M296.49,117.01c-0.61,1.42-1.1,2.53-1.89,2.89c-0.64,0.29-1.31,0.26-2.05-0.06l-1.9-0.81l3.22-7.5l1.9,0.81
				c0.74,0.32,1.22,0.78,1.45,1.45C297.5,114.62,297.09,115.59,296.49,117.01 M298.05,117.68c0.64-1.49,1.36-2.97,0.72-4.56
				c-0.37-0.93-1.18-1.65-2.25-2.11l-3.62-1.55l-4.42,10.31l3.62,1.55c1.07,0.46,2.15,0.55,3.08,0.17
				C296.77,120.86,297.41,119.17,298.05,117.68"/>
			<rect x="159.34" y="371.36" class="st2" width="158.22" height="1.36"/>
			<rect x="261.64" y="319.02" class="st2" width="55.93" height="1.36"/>
			<rect x="159.34" y="319.02" class="st2" width="55.93" height="1.36"/>
		</g>
	</g>
</g>
</svg>
