<?xml version="1.0" encoding="utf-8"?>
<!-- Generator: Adobe Illustrator 23.0.3, SVG Export Plug-In . SVG Version: 6.00 Build 0)  -->
<svg version="1.1" id="Layer_1" xmlns="http://www.w3.org/2000/svg" xmlns:xlink="http://www.w3.org/1999/xlink" x="0px" y="0px"
	 viewBox="0 0 500 500" style="enable-background:new 0 0 500 500;" xml:space="preserve">
<style type="text/css">
	.st0{clip-path:url(#SVGID_2_);}
	.st1{clip-path:url(#SVGID_4_);fill:#EB2227;}
	.st2{clip-path:url(#SVGID_4_);fill:#1D93D1;}
	.st3{clip-path:url(#SVGID_6_);fill:url(#SVGID_7_);}
	.st4{clip-path:url(#SVGID_9_);fill:#1F9DD9;}
</style>
<g>
	<g>
		<defs>
			<rect id="SVGID_1_" x="7" y="145" width="470.2" height="194.76"/>
		</defs>
		<clipPath id="SVGID_2_">
			<use xlink:href="#SVGID_1_"  style="overflow:visible;"/>
		</clipPath>
		<g class="st0">
			<defs>
				<rect id="SVGID_3_" x="7" y="145" width="470.2" height="194.76"/>
			</defs>
			<clipPath id="SVGID_4_">
				<use xlink:href="#SVGID_3_"  style="overflow:visible;"/>
			</clipPath>
			<path class="st1" d="M422.97,232.9L422.97,232.9v0.56h-0.08h-0.54v1.28h0.57h0.05v0.55h-0.62V237h-0.9v-4.11H422.97z
				 M422.96,231.35h0.01v0.53c-0.85,0-1.59,0.31-2.19,0.9c-0.61,0.62-0.95,1.41-0.95,2.23c0,0.82,0.33,1.6,0.91,2.19
				c0.59,0.6,1.38,0.93,2.16,0.93h0.06v0.55h-0.01c-0.98,0-1.9-0.4-2.59-1.11c-0.69-0.7-1.09-1.61-1.09-2.58
				c0-0.97,0.41-1.91,1.12-2.61C421.08,231.71,421.96,231.35,422.96,231.35 M422.97,235.28L422.97,235.28v-0.55
				c0.62,0,0.91-0.19,0.91-0.63c0-0.44-0.3-0.64-0.91-0.65v-0.56h0.08c1.16,0,1.73,0.39,1.73,1.12c0,0.59-0.32,1-0.92,1.14
				l0.92,1.85h-0.97l-0.82-1.72H422.97z M422.97,238.69c0.94,0,1.86-0.38,2.58-1.07c0.7-0.69,1.08-1.59,1.08-2.61
				c0-0.98-0.37-1.87-1.04-2.57c-0.71-0.72-1.62-1.09-2.62-1.09v0.53c0.86,0,1.62,0.32,2.23,0.93c0.58,0.6,0.89,1.36,0.89,2.25
				c0,0.82-0.33,1.59-0.91,2.16c-0.61,0.59-1.37,0.9-2.21,0.91V238.69z"/>
			<polygon class="st1" points="358.1,226.48 358.1,226.48 335.76,193.63 313.98,193.61 313.98,238.69 327.09,238.69 327.09,204.3 
				350.45,238.68 371.19,238.65 371.19,193.63 358.1,193.63 			"/>
			<path class="st1" d="M56.63,198.22L56.63,198.22v17.14c0.02,4.76,4.41,5.6,9.69,5.61h25.21c1.57,0.01,2.85,1.3,2.85,2.89
				c0,1.59-1.29,2.88-2.87,2.88h-0.07H56.63v11.92h46.18c2.43-0.13,4.36-2.15,4.36-4.61v-17.46c0.23-4.35-3.18-6.23-10.22-5.83
				H72.41c-0.04,0.01-0.1,0.01-0.16,0.01h-0.08c-0.04,0.01-0.08,0.01-0.12-0.01c-1.45-0.11-2.59-1.31-2.59-2.77
				c0-1.54,1.26-2.8,2.8-2.8c0.08,0,0.15,0.01,0.24,0.01h34.68v-11.58H61.23C58.7,193.61,56.63,195.68,56.63,198.22"/>
			<path class="st1" d="M288.51,193.51h-13.12l-21.61,45.08l12.98-0.02l3.2-6.68l11.93-0.01h11.41l3.13,6.72l13.69,0.03
				L288.51,193.51z M281.89,222.21l-7.3-0.02l7.16-15.02l0.14,0.31l7.28,14.74L281.89,222.21z"/>
			<polygon class="st1" points="213.61,218.38 201.63,193.61 176.99,193.61 176.99,238.67 191.5,238.67 191.5,204.77 209.37,238.67 
				217.83,238.67 235.95,204.31 235.95,238.67 250.45,238.67 250.45,193.61 225.56,193.61 			"/>
			<path class="st1" d="M166.21,193.61h-48.24c-2.67,0-4.85,2.18-4.85,4.84v35.35c0,2.66,2.19,4.84,4.85,4.84h48.24
				c2.66,0,4.85-2.18,4.85-4.84v-35.35C171.06,195.79,168.87,193.61,166.21,193.61 M158.28,223.57c0,1.76-1.44,3.2-3.19,3.2h-26.01
				c-1.76,0-3.2-1.43-3.2-3.2V208.4c0-1.75,1.43-3.19,3.2-3.19h26.01c1.74,0,3.19,1.44,3.19,3.19V223.57z"/>
			<polygon class="st1" points="419.95,193.61 404.2,211.26 389.42,193.64 373.94,193.64 397.72,222.43 397.72,238.65 
				410.81,238.65 410.81,222.27 436.41,193.61 			"/>
			<polygon class="st2" points="443.56,181.93 408.42,181.95 408.42,194.31 403.82,194.31 403.82,177.41 448.18,177.38 
				448.18,221.74 428.01,221.74 428.11,217.11 443.66,217.12 			"/>
		</g>
		<g class="st0">
			<defs>
				<path id="SVGID_5_" d="M315.75,307.1c-6.18,0.1-12.35,0.65-18.43,1.78c-1.22,0.23-2.43,0.48-3.64,0.76
					c-4.73,1.1-9.39,2.51-13.91,4.3c-1.24,0.49-2.46,1.01-3.67,1.56c-0.59,0.27-1.18,0.54-1.77,0.82c-0.27,0.13-0.53,0.27-0.76,0.47
					c-0.11,0.1-0.2,0.3-0.33,0.41c-0.03,0.03-0.07,0.05-0.1,0.07c1.63-0.65,3.27-1.27,4.91-1.87c5.85-2.14,11.8-3.93,17.96-4.91
					c8.08-1.29,16.32-1.33,24.45-0.55c16.39,1.57,32.03,7.06,48.29,9.44c0.57,0.08,1.15,0.17,1.72,0.24
					c6.36,0.87,12.79,1.42,19.2,0.89c0.6-0.05,1.2-0.11,1.8-0.17c5.78-0.61,12.05-1.79,16.92-5.15c-11.57,5.1-23.86,2.96-35.77,0.43
					c-1.41-0.3-2.81-0.61-4.22-0.91c-6.8-1.46-13.57-3.13-20.38-4.54c-8.23-1.71-16.61-2.71-25.01-3c-1.67-0.06-3.33-0.09-5-0.09
					C317.27,307.08,316.51,307.09,315.75,307.1"/>
			</defs>
			<clipPath id="SVGID_6_">
				<use xlink:href="#SVGID_5_"  style="overflow:visible;"/>
			</clipPath>
			
				<linearGradient id="SVGID_7_" gradientUnits="userSpaceOnUse" x1="-1.031" y1="-1.268" x2="-0.5672" y2="-1.268" gradientTransform="matrix(291.6385 0 0 -291.6385 573.8198 -55.7499)">
				<stop  offset="0" style="stop-color:#0A4F7F"/>
				<stop  offset="0.3121" style="stop-color:#247FA6"/>
				<stop  offset="0.6126" style="stop-color:#39A5C6"/>
				<stop  offset="0.8519" style="stop-color:#46BDDA"/>
				<stop  offset="1" style="stop-color:#4BC6E1"/>
			</linearGradient>
			<rect x="273.14" y="307.08" class="st3" width="135.26" height="13.96"/>
		</g>
		<g class="st0">
			<defs>
				<rect id="SVGID_8_" x="7" y="145" width="470.2" height="194.76"/>
			</defs>
			<clipPath id="SVGID_9_">
				<use xlink:href="#SVGID_8_"  style="overflow:visible;"/>
			</clipPath>
			<path class="st4" d="M176.88,299.87c-4.06,0-7.59-1.46-10.49-4.34c-2.88-2.9-4.34-6.43-4.34-10.49c0-4.08,1.46-7.61,4.34-10.49
				c2.9-2.9,6.43-4.37,10.49-4.37c2.75,0,5.33,0.72,7.65,2.14c1.42,0.86,2.67,1.92,3.72,3.16l0.66,0.78v-5.26h2.83v28.02h-2.83
				v-5.26l-0.66,0.78c-1.05,1.24-2.3,2.31-3.72,3.16C182.2,299.15,179.63,299.87,176.88,299.87 M176.88,273.01
				c-3.34,0-6.11,1.15-8.48,3.52c-2.37,2.37-3.52,5.15-3.52,8.51c0,3.34,1.15,6.11,3.52,8.48c2.37,2.37,5.14,3.52,8.48,3.52
				c3.36,0,6.14-1.15,8.51-3.52c2.37-2.37,3.52-5.14,3.52-8.48c0-3.36-1.15-6.14-3.52-8.51
				C183.02,274.17,180.24,273.01,176.88,273.01"/>
			<path class="st4" d="M214.37,299.87c-3.21,0-5.98-1.15-8.24-3.43c-2.27-2.25-3.43-5.02-3.43-8.23v-24.62h2.83v7.57h9.36v2.8
				h-9.36v14.25c0,2.45,0.85,4.5,2.58,6.26c1.75,1.74,3.8,2.58,6.25,2.58h0.53v2.83H214.37z"/>
			<path class="st4" d="M246.6,299.06v-17.21c0-2.45-0.85-4.5-2.61-6.25c-1.74-1.74-3.78-2.58-6.25-2.58c-2.45,0-4.5,0.85-6.26,2.58
				c-1.74,1.75-2.58,3.8-2.58,6.25v17.21h-2.83v-39.55h2.83v14.66l0.64-0.66c2.13-2.2,4.89-3.32,8.2-3.32
				c3.21,0,5.99,1.15,8.26,3.43c2.27,2.27,3.43,5.04,3.43,8.23v17.21H246.6z"/>
			<polygon class="st4" points="289.04,299.06 280.56,275.52 272.05,299.06 268.9,299.06 258.8,271.02 261.8,271.02 270.47,295.1 
				279.17,271.02 281.95,271.02 290.62,295.1 299.29,271.02 302.29,271.02 292.2,299.06 			"/>
			<path class="st4" d="M326.44,299.87c-4.06,0-7.59-1.46-10.49-4.34c-2.88-2.9-4.34-6.43-4.34-10.49c0-4.08,1.46-7.61,4.34-10.49
				c2.9-2.9,6.43-4.37,10.49-4.37c2.75,0,5.33,0.72,7.65,2.14c1.42,0.86,2.67,1.92,3.72,3.16l0.66,0.78v-5.26h2.83v28.02h-2.83
				v-5.26l-0.66,0.78c-1.05,1.24-2.3,2.31-3.72,3.16C331.77,299.15,329.19,299.87,326.44,299.87 M326.44,273.01
				c-3.34,0-6.11,1.15-8.48,3.52c-2.37,2.37-3.52,5.15-3.52,8.51c0,3.34,1.15,6.11,3.52,8.48c2.37,2.37,5.14,3.52,8.48,3.52
				c3.36,0,6.14-1.15,8.51-3.52c2.37-2.37,3.52-5.14,3.52-8.48c0-3.36-1.15-6.14-3.52-8.51
				C332.58,274.17,329.8,273.01,326.44,273.01"/>
			<path class="st4" d="M352.27,299.06v-28.04h2.83v5.24l0.66-0.78c1.03-1.24,2.28-2.29,3.69-3.15c2.34-1.42,4.92-2.14,7.65-2.14
				h0.53v2.83h-0.53c-3.34,0-6.11,1.15-8.48,3.52c-2.37,2.37-3.52,5.14-3.52,8.48v14.05H352.27z"/>
			<path class="st4" d="M392.05,299.87c-4.06,0-7.59-1.46-10.49-4.34c-2.88-2.9-4.34-6.43-4.34-10.49c0-4.08,1.46-7.61,4.34-10.49
				c2.9-2.9,6.43-4.37,10.49-4.37c4.08,0,7.61,1.47,10.49,4.37c2.9,2.88,4.37,6.41,4.37,10.49v1.41h-26.78l0.06,0.43
				c0.4,2.71,1.6,4.97,3.67,6.92c2.33,2.18,5.01,3.24,8.2,3.24c3.36,0,6.14-1.15,8.51-3.52l0.38-0.38l1.97,2.01l-0.37,0.37
				C399.66,298.41,396.13,299.87,392.05,299.87 M392.05,273.01c-3.18,0-5.86,1.07-8.2,3.26c-2.08,1.94-3.28,4.2-3.67,6.93
				l-0.06,0.43h23.87l-0.06-0.42c-0.38-2.72-1.58-4.99-3.67-6.92C397.93,274.08,395.25,273.01,392.05,273.01"/>
			<path class="st4" d="M115.63,299.87c-0.91,0-1.62-0.71-1.62-1.61v-40.63c0-0.9,0.71-1.61,1.62-1.61h16.39
				c1.7,0,16.65,0.32,16.65,11.5c0,3.78-1.71,6.68-4.95,8.38l-0.77,0.41l0.83,0.28c3.71,1.23,8.14,4.08,8.14,10.64
				c0,4.85-2.17,8.38-6.44,10.49c-3.62,1.79-8.07,2.16-11.16,2.16H115.63z M117.11,297.05h17.21c4.76,0,8.41-0.86,10.85-2.54
				c2.38-1.65,3.58-4.1,3.58-7.29c0-2.8-1.05-4.99-3.13-6.52c-2.1-1.54-5.26-2.36-9.13-2.36h-19.38V297.05z M117.11,275.38h15.79
				c3.59,0,6.48-0.52,8.58-1.54c2.71-1.31,4.02-3.38,4.02-6.32c0-6.69-8.48-8.61-13.49-8.68h-14.9V275.38z"/>
		</g>
	</g>
</g>
</svg>
