<?xml version="1.0" encoding="utf-8"?>
<!-- Generator: Adobe Illustrator 23.0.3, SVG Export Plug-In . SVG Version: 6.00 Build 0)  -->
<svg version="1.1" id="Layer_1" xmlns="http://www.w3.org/2000/svg" xmlns:xlink="http://www.w3.org/1999/xlink" x="0px" y="0px"
	 viewBox="0 0 500 500" style="enable-background:new 0 0 500 500;" xml:space="preserve">
<style type="text/css">
	.st0{clip-path:url(#SVGID_2_);}
	.st1{clip-path:url(#SVGID_4_);fill:#231F20;}
	.st2{clip-path:url(#SVGID_4_);fill-rule:evenodd;clip-rule:evenodd;fill:#ED1C24;}
	.st3{clip-path:url(#SVGID_4_);fill-rule:evenodd;clip-rule:evenodd;fill:#0095DA;}
	.st4{clip-path:url(#SVGID_4_);fill:#ED1C24;}
	.st5{clip-path:url(#SVGID_4_);fill:#0095DA;}
	.st6{clip-path:url(#SVGID_4_);fill:#FFFFFF;}
	.st7{clip-path:url(#SVGID_4_);fill:#A10C11;}
</style>
<g>
	<g>
		<defs>
			<rect id="SVGID_1_" x="-81" y="133" width="587.56" height="241"/>
		</defs>
		<clipPath id="SVGID_2_">
			<use xlink:href="#SVGID_1_"  style="overflow:visible;"/>
		</clipPath>
		<g class="st0">
			<defs>
				<rect id="SVGID_3_" x="-81" y="133" width="587.56" height="241"/>
			</defs>
			<clipPath id="SVGID_4_">
				<use xlink:href="#SVGID_3_"  style="overflow:visible;"/>
			</clipPath>
			<path class="st1" d="M441.61,235.45c-3.75,0-7.51,0-11.26,0c-0.3,0-0.3,0-0.2-0.27c1.15-3.36,2.35-6.69,3.69-9.98
				c0.06-0.15,0.1-0.23-0.14-0.23c-2.35,0.01-4.7,0.01-7.05,0c-0.14,0-0.2,0.04-0.25,0.18c-1.06,3.4-2.26,6.75-3.5,10.09
				c-0.06,0.17-0.15,0.21-0.33,0.21c-0.54,0-1.09,0-1.64,0c3.35,2.36,5.65,4.76,6.79,7.16c0.06-0.02,0.11-0.04,0.2-0.04
				c2.89,0.01,5.77,0.01,8.66,0.01c0.85,0,1.7,0,2.56,0.01c0.19,0,0.3-0.04,0.37-0.25c0.76-2.21,1.53-4.41,2.3-6.61
				C441.91,235.45,441.91,235.45,441.61,235.45"/>
			<path class="st1" d="M136.1,268.77l-0.01-2.76l-0.01-2.43l-0.34-1.77l-0.36-1.32l-0.58-0.77l-0.94-0.77l-1.16-0.66l-1.62-0.54
				l-0.22,0l-0.24-0.11l-0.22,0l-0.24,0l-0.34,0l-0.24-0.11l-0.35,0l-0.22,0l-0.22,0l-0.24-0.11l-0.35,0l-0.22,0l-0.47,0l-0.35,0
				l-0.34,0l-0.35-0.11l0-0.22l0-0.33l0-0.33l0.33-0.33L127,256l0.34,0l0.35-0.11l0.45,0l0.47,0l0.45,0l0.47,0l0.47,0l0.45,0l0.58,0
				l0.45,0l0.58,0l0.24,0l0.22,0.11l0.69,0l0.45,0l0.35,0l0.22,0l0.47,0l0.67,0l0.47,0l0.34,0l0.2,0l0.77,0.22l0.76,0l0.76,0l0.65,0
				l0.56,0l0.43,0l0.56,0l0.45,0l0.45,0l0.58,0l0.67,0l0.78,0l0.69,0l0.89-0.23l0.45,0l0.47,0l0.45,0l0.56,0l0.45,0l0.69,0l0.67,0
				l0.67,0l0.34,0l0.24,0l0.34,0l0.22-0.11l0.45,0l0.34,0l0.22,0l0.45,0l0.35,0.11l0.34,0l0.22,0.11l0.34,0.33l0,0.11l0,0.22l0,0.11
				l0,0.22l0,0.22l-0.28,0l-0.28,0.11l-0.22,0l-0.11,0l-0.22,0h-0.11l-0.24,0l-0.22,0l-0.35,0.11l-0.24,0l-0.35,0.22l-0.58,0
				l-0.35,0l-1.42,0.34l-0.84,0.45l-0.82,0.56l-0.46,0.66l-0.46,0.89l-0.24,1l0,1.1l0.01,1.33l0,0.22l0,0.11l0,0.22l0,0.22l0,0.22
				l0,0.11l0,0.22l0,0.22l-0.22,1.22l0.01,1.1l0.01,1.22l0.01,1.11l0.01,1.21l0.01,1.21l0.01,1.44l0.01,1.44l0.06,12.04l0,0.99
				l0,0.88l0,0.66l0,0.55l0,0.44l0,0.44l0,0.44l-0.28,0.66l-0.13,0.44l-0.28,0.22l-0.28,0.33l-0.15,0l-0.11,0.11l-0.11,0l-0.11,0.11
				l-0.67,0.33l-0.54,0.33l-0.67,0.33c-0.35,0.08-0.58,0.15-0.65,0.22l-1.32,0.45l-1.32,0.45l-0.56,0.22l-0.43,0.11
				c-0.37,0.08-0.6,0.15-0.67,0.22l-0.45,0l-0.54,0.11l-0.45,0l-0.56,0l-0.45,0.22l-0.33,0.11l-0.45,0l-0.67,0.22l-0.89,0.11
				l-0.89,0.22l-0.9,0l-0.8,0.26l-1.68,0.25l-1.68,0.27l-1.68,0.14l-1.57,0.01l-0.78,0l-0.67,0l-0.67,0l-0.67,0l-2.37,0.01
				l-2.57,0.01l-1.46-0.33l-1.34,0.01l-1.57-0.21l-1.57-0.1l-1.7-0.21l-1.57-0.21l-1.68-0.32l-1.68-0.32
				c-1.27-0.14-2.29-0.34-3.08-0.59c-0.78-0.26-1.36-0.44-1.74-0.54c-0.37-0.11-1.03-0.38-1.92-0.82l-1.68-0.54l-1.68-0.77
				l-1.57-0.77l-1.57-0.99l-1.68-0.99l-1.57-1.1l-1.59-1.1l-1.46-1.32l-2.58-2.42l-2.36-2.97l-2.25-3.3l-2.16-3.97l-1.81-4.3
				l-1.25-4.52l-0.81-4.75l-0.25-5.19l0.31-6.41l0.98-5.86l1.65-5.42c0.74-1.77,1.59-3.4,2.55-4.87l2.78-4.32
				c0.74-1.03,1.26-1.72,1.56-2.05c0.3-0.33,0.85-0.91,1.67-1.72l3.34-3.22c1.11-1.04,2.34-1.93,3.68-2.67l0.45-0.33l0.67-0.33
				l0.45-0.22l0.67-0.34L92,217.5l1.12-0.56l1.12-0.45l1.12-0.56l0.45-0.22c0.37-0.08,0.6-0.15,0.67-0.22l0.45-0.11
				c0.37-0.08,0.67-0.15,0.89-0.22c0.22-0.08,0.45-0.15,0.67-0.22c0.22-0.07,0.37-0.15,0.45-0.22l0.67-0.11
				c0.37-0.08,0.67-0.15,0.89-0.22c0.22-0.07,0.45-0.15,0.67-0.22c0.22-0.07,0.37-0.15,0.45-0.22l0.67-0.11l0.78-0.22
				c0.6,0,1.04-0.08,1.34-0.23c0.6,0,1.04-0.08,1.34-0.23l1.34-0.12c0.6,0,1.04-0.08,1.34-0.23l2.57-0.12
				c1.12,0,1.98-0.16,2.57-0.45l1.12-0.01l1.34-0.01l1.12-0.01l1.23-0.01l0.34,0l0.34,0l0.22,0l0.34,0l0.34,0l0.34,0l0.34,0.11
				l0.34,0l0.56,0l0.67,0l0.56,0.11l0.67,0l0.67,0l0.67,0.11l0.56,0.11l0.67,0l0.45,0.22l0.67,0l0.67,0l0.56,0l0.45,0.22l0.67,0
				l0.56,0l0.56,0.11l0.45,0.11l0.34,0.11l0.45,0l0.34,0l0.45,0.11l0.34,0.11l0.34,0l0.34,0.11l0.56,0.22l0.56,0l0.45,0.11l0.45,0
				l0.45,0.22l0.67,0l0.56,0.22l0.67,0l0.34,0.22l0.67,0l0.45,0l0.34,0.11l0.67,0l0.78,0.22l0.56,0l0.45,0l0.56,0l0.22,0l0.22,0.11
				l0.56,0l0.45,0l0.45,0l0.34,0.22l0.56,0.11l0.23,0.33h0.11l0,0.11l0.11,0.11l0,0.11l0,0.22l0,0.33l-0.11,0.33l0,0.44l-0.22,0.77
				l0,0.66l0,0.77l0,0.77l-0.22,1l0.01,1.11l-0.11,1.22l0.01,1.21l-0.11,1.44l0.01,1.66l0.01,1.77l0.01,1.99l0,0.66l-0.11,0.33
				l0,0.44l-0.11,0.33l-0.22,0.33l-0.33,0.22l-0.45,0l-0.34-0.22l-0.23-0.44l0-0.55l0-0.44l-0.23-0.44l0-0.55l-0.11-0.55l-0.12-0.77
				c-0.08-0.37-0.15-0.59-0.23-0.66l-0.12-0.88l-0.23-0.44l0-0.44l-0.23-0.33l-0.11-0.44l-0.23-0.22l-0.23-0.44l-0.22-0.22l0-0.22
				l-0.23-0.22l0-0.22l-0.11-0.11l-0.11-0.11l-0.11-0.11l-0.11-0.22l-0.11-0.11l-0.11-0.11l-0.11-0.11l-0.11-0.11l-0.11-0.22
				l-0.11-0.11l-0.11-0.11l-0.79-0.77l-0.79-0.77l-1.01-0.66l-1.12-0.66l-2.58-1.2l-2.91-1.2l-3.36-0.98l-3.81-0.76l-4.25-0.42
				l-4.7-0.2l-2.8,0.12c-1.19,0.01-2.13,0.08-2.8,0.23c-0.97,0-1.94,0.16-2.91,0.46l-2.91,0.46l-3.13,0.9
				c-0.37,0.08-0.88,0.23-1.51,0.45c-0.63,0.22-1.17,0.48-1.62,0.78l-3.12,1.78l-3.12,2.22l-2.34,2.22l-2.11,2.44l-1.89,2.99
				l-1.55,3.43l-1.44,3.76l-0.87,4.2l-0.65,4.42l-0.09,4.75l0.13,3.87l0.35,3.53l0.69,3.42l1.02,3.2l1.13,2.98l1.24,2.76l1.24,2.54
				l1.35,2.09l0.45,1.1l0.68,0.88l0.68,0.88l0.68,0.77l0.34,0.44l0.34,0.33l0.23,0.33l0.34,0.33l0.56,0.66l0.56,0.44
				c0.75,0.81,1.29,1.38,1.63,1.71c0.34,0.33,0.88,0.75,1.63,1.26l3.48,2.52l3.59,2.08l3.81,1.53l3.7,1.2l3.81,0.76l3.81,0.53
				l4.03,0.09l0.45,0l0.67,0l0.67,0l0.67,0l0.67,0l0.67-0.11l0.67,0c0.37-0.08,0.6-0.15,0.67-0.22l0.45,0l0.56-0.11l0.56-0.11
				l0.56,0l0.45,0l0.56-0.22l0.45,0l0.56-0.22l0.45,0l0.56-0.22l0.45-0.11l0.45-0.22l0.78-0.34l0.78-0.45l0.45-0.22l0.45-0.33
				l0.22-0.22l0.22-0.22l0.33-0.44l0.11-0.44c0.07-0.37,0.15-0.59,0.22-0.66l0.11-0.55l0.11-0.77l-0.11-0.33L136.1,268.77z"/>
			<path class="st1" d="M160.24,274.71l0.02,3.32l0.01,2.89l0.01,2.44c0,0.82,0.07,1.44,0.2,1.86c0,0.69,0.05,1.2,0.14,1.54
				l0.26,1.22l0.33,0.89l0.46,0.57l0.47,0.39l0.52,0.32l0.65,0.25l0.78,0.19l0.92,0.19l1.23,0.06l1.49,0.06l1.76-0.01l1.23-0.01
				l1.24-0.07l1.1-0.07c0.47,0,0.84-0.05,1.11-0.13l0.97-0.2l0.84-0.33l0.78-0.46l0.65-0.71l0.19-0.2l0.19-0.26l0.13-0.26l0.13-0.2
				l0.06-0.13l0.13-0.26l0.13-0.4l0.13-0.26l0-0.19l0-0.13l0-0.14l0-0.06l0.32-0.13l0-0.13l0-0.14l0-0.07l0.13-0.21l0-0.2l0-0.43
				l0-0.21l0.13-0.14l0-0.26l0.16-0.19l0.15-0.06l0.16,0l0.16,0l0.08,0.06l0,0.19l0,0.13l0.19,0.13l0,0.26l0,0.19l0,0.26l-0.19,0.32
				l0,0.38l0,0.26l0,0.45l0,0.26l0,0.32l0,0.26l-0.19,0.58l0,0.57l-0.13,0.19l0,0.38l-0.13,0.38l0,0.32l-0.06,0.19
				c-0.04,0.26-0.08,0.41-0.13,0.45l0,0.32l-0.13,0.26l0,0.26v0.06l-0.06,0.14l0,0.13l-0.13,0.27l-0.06,0.2l-0.13,0.14l-0.13,0.13
				l-0.26,0.14l-0.26,0.13l-0.45,0.07l-0.65,0.14l-0.45,0l-0.45,0l-0.52,0l-0.58,0l-0.91,0l-0.78,0l-0.84,0l-0.78,0l-0.78,0l-0.71,0
				l-0.71,0l-0.65,0l-1.3-0.19l-1.17,0.01l-1.1,0.01l-1.04,0c-0.43,0-0.78-0.04-1.04-0.12l-0.91,0l-0.91,0l-0.78,0l-0.78-0.06
				l-0.78,0l-0.78,0l-0.65,0l-0.13,0l-0.19,0h-0.13l-0.19,0l-0.26,0.07l-0.19,0l-0.19,0l-0.26,0l-0.19,0h-0.19l-0.26,0l-0.19,0
				l-0.26,0l-0.13,0h-0.06l-0.13,0l-0.13,0l-0.13,0l-0.07,0h-0.13l-0.06,0.06h-0.06l-0.39,0l-0.32,0l-0.39,0l-0.39,0l-0.39,0h-0.13
				l-0.19,0.06l-0.13,0l-0.19,0l-0.26,0l-0.26,0l-0.19-0.06l-0.19,0l-0.13-0.06l-0.19-0.06l-0.06-0.13l0-0.13l0.13-0.13l0.06-0.06
				h0.06l0.13-0.06l0.13,0h0.19l0.26,0l0.13,0l0.13-0.06l0.13,0l0.13,0l0.13,0l0.13-0.06l0.13,0h0.13l0.13,0l0.13-0.06h0.06
				l0.06-0.06h0.06l0.45-0.13l0.32-0.25l0.26-0.31l0.26-0.44l0.06-0.26l0.13-0.24l0-0.26l0.13-0.31l0.13-0.57l0.13-0.69l0.06-1.07
				c0-0.54,0.08-0.98,0.25-1.31l0-0.74l0-0.8l0-0.86l0-0.93l0-0.9l0-0.96l0-1.02l0-1.02l-0.01-1.02l0-1.09l-0.01-1.09l-0.01-1.15
				l-0.05-11.44l-0.02-3.13l-0.01-2.77l-0.01-2.13l-0.01-1.55l0-0.59l0-0.64l0-0.51l0-0.52l0-0.45l0-0.46l0-0.45l0-0.38l0-0.06
				l0-0.13c0-0.35-0.05-0.61-0.13-0.78l-0.07-0.64l-0.21-0.58l-0.26-0.51l-0.34-0.33l-0.53-0.32l-0.59-0.25l-0.74-0.25l-0.13,0
				l-0.14-0.06l-0.13,0l-0.13,0l-0.2,0l-0.13-0.06l-0.19,0l-0.14,0l-0.13,0l-0.13-0.06l-0.2,0l-0.13,0l-0.26,0l-0.2,0l-0.19,0
				l-0.21-0.06l-0.13-0.14l0-0.19l0.06-0.19l0.19-0.19l0.13,0l0.19,0l0.19,0l0.26,0l0.26,0l0.26,0l0.26,0l0.26,0l0.26,0l0.32,0
				l0.26,0l0.32,0l0.13,0l0.13,0.06l0.39,0l0.26,0l0.19,0l0.13,0l0.26,0l0.39,0l0.26,0l0.19,0l0.13,0l0.45,0.13l0.45,0l0.45,0
				l0.39,0l0.32,0l0.26,0l0.32,0l0.26,0l0.26,0l0.45,0l0.39,0l0.45,0l0.52,0c0.3-0.04,0.5-0.09,0.58-0.13l0.19,0l0.26,0l0.26,0
				l0.26,0l0.45,0l0.39,0l0.45,0l0.39,0l0.39,0l0.39-0.07l0.19,0l0.13,0l0.19,0l0.13,0l0.26,0l0.19,0.06l0.19,0l0.13,0.06l0.2,0.19
				l0.07,0.06l0,0.13v0.06l-0.06,0.13l-0.13,0.13l-0.06,0l-0.06,0.06l-0.13,0l-0.06,0l-0.19,0l-0.13,0l-0.19,0.06l-0.19,0l-0.26,0
				l-0.19,0l-0.26,0.07l-0.19,0l-0.13,0l-0.13,0.06l-0.13,0h-0.13l-0.71,0.2l-0.52,0.26l-0.45,0.32l-0.26,0.38l-0.26,0.52
				l-0.13,0.58l-0.13,0.64l-0.06,0.77l0,0.13v0.06l-0.13,0.83l0.07,0.9l0.01,1.02l0.01,1.23l0.01,1.53l0.01,2.12l0.01,2.75
				l0.02,3.33l0-0.19L160.24,274.71z"/>
			<path class="st1" d="M183.44,272.43c0.27,1.58,0.65,3.14,1.16,4.69c0.5,1.55,1.14,2.97,1.9,4.24c0.76,1.28,1.63,2.45,2.61,3.54
				s2.05,2.07,3.22,2.96c0.61,0.38,1.19,0.74,1.75,1.08c0.17,0.08,0.78,0.4,1.82,0.95c0.69,0.3,1.45,0.57,2.27,0.82
				c0.13,0.04,0.65,0.19,1.56,0.44c1.3,0.25,2.7,0.37,4.21,0.36l0.71,0l0.84-0.07l0.91-0.07l0.97-0.2l0.97-0.2
				c0.43-0.09,0.75-0.2,0.97-0.32c0.43-0.09,0.75-0.2,0.97-0.32l1.03-0.45c0.6-0.26,1.23-0.59,1.87-1c0.65-0.41,1.27-0.91,1.87-1.51
				l1.74-1.73c0.13-0.13,0.4-0.46,0.8-0.99c0.41-0.54,0.72-0.95,0.93-1.25c0.47-0.73,0.94-1.58,1.41-2.56l1.02-3.2
				c0.25-1.19,0.44-2.45,0.57-3.77l0.24-4.35c-0.01-1.87-0.11-3.46-0.31-4.76c-0.2-1.3-0.39-2.32-0.57-3.07
				c-0.18-0.74-0.4-1.52-0.66-2.33c-0.53-1.49-1.16-2.82-1.9-3.99c-0.74-1.17-1.63-2.3-2.67-3.41c-0.39-0.38-0.89-0.83-1.5-1.34
				c-0.43-0.34-0.97-0.76-1.62-1.27c-1.08-0.76-2.21-1.4-3.38-1.9c-1.17-0.51-2.35-0.88-3.53-1.13c-1.19-0.25-2.43-0.37-3.72-0.37
				c-0.65,0-1.29,0.03-1.94,0.07c-0.65,0.05-1.45,0.16-2.39,0.33c-0.95,0.17-1.98,0.5-3.1,0.97c-1.12,0.39-2.2,0.95-3.23,1.68
				c-0.56,0.39-1.03,0.73-1.42,1.03c-0.21,0.17-0.69,0.6-1.42,1.28c-0.9,0.9-1.66,1.86-2.29,2.89c-0.62,1.03-1.21,2.26-1.76,3.72
				c-0.38,1.32-0.67,2.61-0.86,3.87c-0.19,1.26-0.3,2.17-0.34,2.75c-0.04,0.58-0.06,1.44-0.05,2.59l0-0.19
				c0,0.94,0.03,1.86,0.08,2.78C183.21,270.63,183.3,271.54,183.44,272.43 M176.94,268.05l0.06-0.83l0.06-0.9
				c0-0.43,0.04-0.75,0.12-0.96c0-0.43,0.04-0.75,0.12-0.96l0.25-0.96l0.26-0.96l0.25-0.96c0.34-1.11,0.74-2.18,1.21-3.2l1.73-3.14
				c0.64-1.03,1.37-2.01,2.19-2.95l2.77-2.89c0.99-0.9,2.07-1.7,3.26-2.41c1.18-0.71,2.43-1.28,3.75-1.71
				c1.31-0.43,2.77-0.78,4.36-1.04c1.6-0.26,3.26-0.4,4.98-0.41c1.94-0.01,3.7,0.12,5.28,0.39c1.58,0.27,3.16,0.67,4.76,1.19
				c1.6,0.52,3.05,1.19,4.35,1.99c1.43,0.79,2.73,1.7,3.9,2.72c1.17,1.02,2.23,2.18,3.19,3.5c0.83,1.1,1.57,2.41,2.22,3.94
				c0.65,1.53,1.14,3.15,1.45,4.85c0.13,0.81,0.25,1.66,0.34,2.54c0.09,0.89,0.14,1.81,0.14,2.75c0.01,1.92-0.13,3.64-0.43,5.18
				c-0.25,1.65-0.7,3.25-1.34,4.79c-0.51,1.58-1.24,3.05-2.18,4.41c-0.43,0.73-0.88,1.42-1.35,2.08c-0.47,0.66-1.03,1.31-1.67,1.96
				c-1.03,1.16-2.32,2.29-3.87,3.39c-1.33,0.9-2.8,1.7-4.39,2.39c-0.78,0.26-1.57,0.5-2.39,0.71c-0.39,0.09-1.38,0.29-2.97,0.62
				c-1.6,0.33-3.32,0.49-5.18,0.5c-2.07,0.01-3.83-0.11-5.28-0.36c-1.45-0.25-2.34-0.41-2.69-0.47c-0.35-0.06-1.08-0.26-2.2-0.6
				c-1.3-0.46-2.64-1.08-4.02-1.89c-1.26-0.8-2.36-1.72-3.31-2.75c-0.95-1.04-1.87-2.13-2.73-3.27c-0.7-0.98-1.39-2.1-2.09-3.38
				l-1.51-3.56c-0.18-0.54-0.35-1.15-0.53-1.81c-0.18-0.66-0.33-1.31-0.46-1.95l-0.13-0.24l0-0.32l0-0.32l-0.07-0.32l-0.13-0.26
				l0-0.32l0-0.26l0-0.32l0-0.32l-0.07-0.26l0-0.26l0-0.38l0-0.26l0-0.32l0-0.26l0-0.32l0-0.19L176.94,268.05z"/>
			<path class="st1" d="M234.53,293.69l-1.1,0.01c-0.52,0-0.91-0.06-1.17-0.19c-0.43,0-0.78-0.04-1.04-0.12
				c-0.43,0-0.82-0.08-1.17-0.25l-1.04-0.25l-1.04-0.25l-0.97-0.38l-0.06,0v-0.06h-0.06l-0.06,0v-0.06l-0.06,0l-0.32-0.13l0-0.19
				l-0.2-0.19l-0.1-0.19l-0.1-0.26l0-0.32l0-0.45l0-0.58l0-0.64l0-0.64l0-0.64l0.06-0.64l0-0.26l0-0.32l0-0.26l0-0.26l0-0.51
				l0.13-0.51l0-0.26l0-0.38l0-0.26l0.19-0.32l0-0.26l0-0.26l0-0.19l0-0.19l0-0.26l0-0.19l0-0.13l0-0.13l0.15-0.19l0.15-0.07l0.15,0
				l0.15,0l0.08,0.06l0.23,0.13l0,0.13v0.06v0.13l0,0.32l0,0.32l0,0.36l0,0.3l0,0.36l0,0.29l0,0.35l0.13,0.26l0.4,1.64l0.78,1.39
				c0.31,0.42,0.66,0.8,1.05,1.14l1.3,0.81l1.44,0.7l1.49,0.43l1.57,0.25l1.62,0.06l0.78,0c0.3,0,0.72-0.05,1.24-0.13l1.75-0.46
				l1.56-0.72c0.43-0.26,0.86-0.62,1.29-1.1l1.04-1.23l0.77-1.36l0.51-1.36l0.25-1.42v-0.06l0.06-0.13l0-0.06l0-0.13l0-0.13l0-0.13
				l-0.07-0.77l-0.07-0.77c0-0.31-0.05-0.54-0.13-0.71c0-0.3-0.05-0.53-0.13-0.7l-0.13-0.26l-0.07-0.38l-0.13-0.32
				c-0.04-0.21-0.09-0.34-0.13-0.38l-0.13-0.13l-0.13-0.32l-0.07-0.2l-0.13-0.13l-0.13-0.32l-0.07-0.19l-0.52-0.64l-0.59-0.7
				l-0.65-0.64l-0.65-0.77l-0.78-0.7l-0.85-0.76l-0.98-0.83l-0.97-0.89l-2.93-2.55l-1.04-0.71l-0.98-0.83l-0.91-0.76l-0.78-0.76
				l-1.37-1.47l-1.04-1.47l-0.39-0.64l-0.39-0.78l-0.39-0.64l-0.26-0.7l-0.26-0.64l-0.2-0.77l-0.2-0.65c0-0.3-0.05-0.53-0.13-0.7
				l0-0.13l-0.06-0.13l0-0.32l-0.07-0.26l0-0.26l0-0.26l0-0.32l0-0.26l0-0.33l0.18-2.43c0.12-0.86,0.36-1.59,0.7-2.19
				c0.3-0.77,0.66-1.43,1.09-2l1.61-1.73c0.6-0.51,1.23-0.96,1.87-1.35c0.65-0.4,1.39-0.73,2.23-1.01c0.84-0.28,1.73-0.49,2.68-0.62
				l2.98-0.27l0.39,0l0.52,0l0.39,0l0.45,0l0.78,0l0.78,0.08l0.65,0.17l0.71,0.08l0.65,0.17c0.3,0,0.55,0.03,0.74,0.09
				c0.19,0.06,0.31,0.12,0.36,0.16l0.39,0.06l0.26,0.06l0.32,0l0.26,0.06l0.19,0l0.26,0l0.19,0l0.19,0l0.13,0.06h0.13l0.07,0.06
				l0.06,0.06l0,0.06l0.06,0.06l0,0.13l0,0.13l0,0.13l-0.06,0.13l0,0.19l0,0.26l0,0.13l0,0.19l-0.06,0.13l0,0.19l0,0.38l-0.13,0.51
				l0,0.45l0,0.26l0,0.26l0,0.32l0,0.26l0,0.7l0,0.64l0,0.77l0,0.77l0,0.38l-0.06,0.19l0,0.26l-0.06,0.26l-0.13,0.26l-0.13,0.13
				l-0.19,0l-0.26-0.06l-0.13-0.26l0-0.32l0-0.19l-0.07-0.13l0-0.19l-0.07-0.19l-0.13-0.32l0-0.45l0-0.26l-0.13-0.13l0-0.26
				l-0.13-0.19l0-0.13l-0.07-0.13l-0.13-0.32l-0.07-0.26l-0.07-0.13l-0.13-0.26l-0.2-0.32l-0.13-0.19l-0.2-0.19l-0.13-0.13
				l-0.13-0.13l-0.26-0.26l-0.26-0.25l-0.52-0.25l-0.58-0.38l-0.71-0.25l-0.71-0.32l-0.84-0.25l-0.97-0.19l-1.1-0.06l-1.23-0.06
				c-0.69,0-1.23,0.05-1.62,0.14l-1.49,0.39c-0.52,0.13-0.97,0.35-1.36,0.65l-1.23,0.84c-0.39,0.26-0.73,0.62-1.03,1.09l-0.71,1.28
				l-0.38,1.41l-0.12,1.66l0,0.51l0,0.45l0,0.45c0.04,0.21,0.09,0.34,0.13,0.38l0.13,0.45c0.04,0.21,0.09,0.38,0.13,0.51
				c0.04,0.13,0.09,0.21,0.13,0.25l0.2,0.38l0.2,0.37l0.26,0.38l0.26,0.45l0.26,0.38l0.65,0.83l0.85,0.83l0.98,0.95l1.11,0.95
				l1.24,1.08l1.43,1.13l1.82,1.21l1.69,1.53l1.5,1.34l1.3,1.27l1.17,1.2l0.91,1.15l0.78,1.15l0.65,1.15l0.59,1.08l0.07,0.38
				l0.13,0.26c0.04,0.21,0.09,0.34,0.13,0.38l0.13,0.26l0,0.38l0.13,0.31l0,0.38l0.13,0.26l0.07,0.7l0.07,0.64l0,0.38l0.07,0.26
				l0,0.38l0,0.32l-0.06,0.64l-0.06,0.64l-0.13,0.7l-0.06,0.7c-0.04,0.21-0.08,0.33-0.13,0.37l-0.06,0.38l-0.13,0.45
				c-0.04,0.21-0.08,0.38-0.13,0.51c-0.04,0.13-0.09,0.21-0.13,0.26l-0.19,0.38l-0.13,0.45l-0.19,0.38l-0.19,0.38l-0.13,0.26
				l-0.19,0.38l-0.19,0.26l-0.45,0.64l-0.45,0.58l-0.51,0.64l-0.58,0.58l-0.71,0.5l-0.64,0.51l-1.1,0.71l-1.1,0.52l-1.16,0.33
				l-1.23,0.33l-1.29,0.26l-1.29,0.2l-1.29,0.13l-1.29,0.07L234.53,293.69z"/>
			<path class="st1" d="M261.03,293.65l-1.1,0.01c-0.52,0-0.91-0.06-1.17-0.19c-0.43,0-0.78-0.04-1.04-0.12
				c-0.43,0-0.82-0.08-1.17-0.25l-1.04-0.25l-1.04-0.25l-0.97-0.38l-0.06,0l0-0.06h-0.06l-0.06,0l0-0.06l-0.07,0l-0.32-0.13l0-0.19
				l-0.19-0.19l-0.1-0.19l-0.1-0.26l0-0.32l0-0.45l0-0.57l0-0.64l0-0.64l0-0.64l0.06-0.64l0-0.26l0-0.32l0-0.26l0-0.26l0-0.51
				l0.13-0.51l0-0.26l0-0.38l0-0.26l0.19-0.32l0-0.26l0-0.26l0-0.19l0-0.19l0-0.26l0-0.19l0-0.13l0-0.13l0.15-0.19l0.15-0.06l0.15,0
				l0.15,0l0.08,0.06l0.23,0.13l0,0.13l0,0.06l0,0.13l0,0.32l0,0.32l0,0.36l0,0.3l0,0.36l0,0.29l0,0.35l0.13,0.25l0.4,1.64
				l0.78,1.39c0.31,0.42,0.66,0.8,1.05,1.13l1.3,0.81l1.44,0.7l1.49,0.43l1.57,0.25l1.62,0.06l0.78,0c0.3,0,0.72-0.05,1.24-0.13
				l1.75-0.46l1.56-0.72c0.43-0.26,0.86-0.62,1.29-1.1l1.04-1.23l0.77-1.36l0.51-1.36l0.25-1.42v-0.06l0.06-0.13v-0.06l0-0.13
				l0-0.13l0-0.13l-0.07-0.77l-0.07-0.77c0-0.31-0.05-0.54-0.13-0.71c0-0.3-0.05-0.53-0.13-0.7l-0.13-0.25l-0.07-0.38l-0.13-0.32
				c-0.04-0.21-0.09-0.34-0.13-0.38l-0.13-0.13l-0.13-0.32l-0.07-0.2l-0.13-0.13l-0.13-0.32l-0.07-0.19l-0.52-0.64l-0.59-0.7
				l-0.65-0.64l-0.65-0.77l-0.78-0.7l-0.85-0.76l-0.98-0.83l-0.97-0.89l-2.93-2.55l-1.04-0.71l-0.97-0.83l-0.91-0.76L258.7,266
				l-1.37-1.47l-1.04-1.47l-0.39-0.64l-0.39-0.78l-0.39-0.64l-0.26-0.7l-0.26-0.64l-0.2-0.77l-0.2-0.65c0-0.3-0.05-0.53-0.13-0.7
				v-0.13l-0.07-0.13l0-0.32l-0.07-0.25l0-0.26l0-0.26l0-0.32l0-0.26l0-0.33l0.18-2.43c0.13-0.86,0.36-1.59,0.7-2.19
				c0.3-0.77,0.66-1.43,1.09-2l1.61-1.73c0.6-0.51,1.23-0.96,1.87-1.35c0.65-0.4,1.39-0.73,2.23-1.01c0.84-0.28,1.73-0.49,2.68-0.62
				l2.98-0.27l0.39,0l0.52,0l0.39,0l0.45,0l0.78,0l0.78,0.08l0.65,0.17l0.71,0.08l0.65,0.17c0.3,0,0.55,0.03,0.75,0.09
				c0.19,0.06,0.31,0.12,0.36,0.16l0.39,0.06l0.26,0.06l0.32,0l0.26,0.06l0.19,0l0.26,0l0.19,0l0.19,0l0.13,0.06l0.13,0l0.06,0.06
				l0.06,0.06l0,0.06l0.06,0.06l0,0.13v0.13l0,0.13l-0.06,0.13l0,0.19l0,0.26l0,0.13l0,0.19l-0.06,0.13l0,0.19l0,0.38l-0.13,0.51
				l0,0.45l0,0.26l0,0.26l0,0.32l0,0.26l0,0.7l0,0.64l0,0.77l0,0.77l0,0.38l-0.06,0.19l0,0.26l-0.06,0.26l-0.13,0.26l-0.13,0.13
				l-0.19,0l-0.26-0.06l-0.13-0.26l0-0.32l0-0.19l-0.07-0.13v-0.19l-0.07-0.19l-0.13-0.32l0-0.45l0-0.26l-0.13-0.13l0-0.26
				l-0.13-0.19l0-0.13l-0.07-0.13l-0.13-0.32l-0.07-0.26l-0.07-0.13l-0.13-0.26l-0.2-0.32l-0.13-0.19l-0.2-0.19l-0.13-0.13
				l-0.13-0.13l-0.26-0.25l-0.26-0.26l-0.52-0.25l-0.58-0.38l-0.71-0.25l-0.71-0.32l-0.84-0.25l-0.97-0.19l-1.1-0.06l-1.23-0.06
				c-0.69,0-1.23,0.05-1.62,0.14l-1.49,0.39c-0.52,0.13-0.97,0.34-1.36,0.64l-1.23,0.84c-0.39,0.26-0.73,0.62-1.03,1.09l-0.71,1.28
				l-0.38,1.41l-0.12,1.66l0,0.51l0,0.45l0,0.45c0.04,0.21,0.09,0.34,0.13,0.38l0.13,0.45c0.04,0.21,0.09,0.38,0.13,0.51
				c0.04,0.13,0.09,0.21,0.13,0.26l0.2,0.38l0.2,0.37l0.26,0.38l0.26,0.45l0.26,0.38l0.65,0.83l0.85,0.83l0.98,0.95l1.11,0.95
				l1.23,1.08l1.43,1.13l1.82,1.21l1.69,1.53l1.5,1.34l1.3,1.27l1.17,1.2l0.91,1.15l0.78,1.15l0.65,1.15l0.59,1.08l0.07,0.38
				l0.13,0.26c0.04,0.21,0.09,0.34,0.13,0.38l0.13,0.26l0,0.38l0.13,0.31l0,0.38l0.13,0.26l0.07,0.7l0.07,0.64l0,0.38l0.07,0.26
				l0,0.38l0,0.32l-0.06,0.64l-0.06,0.64l-0.13,0.7l-0.06,0.7c-0.04,0.21-0.09,0.33-0.13,0.37l-0.06,0.38l-0.13,0.45
				c-0.04,0.21-0.08,0.38-0.13,0.51c-0.04,0.13-0.09,0.21-0.13,0.26l-0.19,0.38l-0.13,0.45l-0.19,0.38l-0.19,0.38l-0.13,0.26
				l-0.19,0.38l-0.19,0.26l-0.45,0.64l-0.45,0.58l-0.51,0.64l-0.58,0.58l-0.71,0.5l-0.65,0.51l-1.1,0.71l-1.1,0.52l-1.16,0.33
				l-1.23,0.33l-1.29,0.26l-1.29,0.2l-1.29,0.13l-1.29,0.07L261.03,293.65z"/>
			<path class="st1" d="M300.99,274.11l0.01,2.43l0.01,2.11l0.01,2.05l0.01,1.85l0.01,1.73l0.2,1.47c0,0.6,0,1.04,0.01,1.34
				c0,0.47,0,0.83,0.01,1.09l0.07,0.7l0.13,0.57l0.13,0.57l0.27,0.51l0.26,0.45l0.46,0.32l0.53,0.25l0.72,0.12l0.13,0.13l0.26,0
				l0.26,0l0.33,0l0.32,0.06l0.19,0.06l0.4,0l0.26,0l0.26,0l0.19,0l0.19,0h0.14l0.13,0l0.06,0.06l0.13,0l0.07,0.06l0.06,0.06l0,0.06
				l0.06,0.06l0,0.06v0.13h-0.06l-0.19,0.19h-0.13l-0.19,0l-0.19,0l-0.26,0l-0.39,0l-0.26,0l-0.39,0l-0.26,0l-0.26,0l-0.26,0
				l-0.26,0l-0.26,0l-0.26,0l-0.26,0l-0.26,0l-0.26,0l-0.52,0l-0.45,0l-0.45,0l-0.39,0l-0.58-0.19l-0.52,0l-0.45,0l-0.39,0l-0.32,0
				l-0.26,0l-0.26,0l-0.32,0l-0.26,0l-0.32,0l-0.39,0l-0.39,0l-0.45,0l-0.45,0.19l-0.26,0l-0.26,0l-0.13,0l-0.19,0l-0.26,0l-0.39,0
				l-0.39,0l-0.39,0l-0.26,0l-0.39,0l-0.13,0l-0.19,0l-0.26,0l-0.26,0l-0.26,0l-0.19,0l-0.19,0h-0.13l-0.19-0.07l-0.07-0.17l0-0.16
				l0.13-0.16l0.06-0.08h0.06l0.13-0.06l0.13,0l0.19,0l0.26,0l0.13,0l0.13-0.06l0.13,0l0.13,0l0.13,0l0.13-0.06h0.13l0.13,0l0.13,0
				l0.13-0.06l0.06,0l0.06-0.06l0.06,0l0.45-0.13l0.32-0.26l0.26-0.32l0.26-0.45l0.06-0.26l0.13-0.26l0-0.26l0.15-0.32l0.15-0.58
				l0.15-0.7l-0.01-1.09c0-0.55,0-1-0.01-1.34l0-0.7l0.25-0.77l0-0.83l0-0.89l0-0.9l0-0.96l-0.01-1.02l0-1.02l0-1.02l-0.01-1.09
				l0-1.09l-0.01-1.15l-0.13-27.29l-9.61,0.17l-0.79,0.2l-0.65,0l-0.65,0.13l-0.52,0.07l-0.52,0.13l-0.53,0
				c-0.22,0.04-0.34,0.09-0.39,0.13l-0.39,0.07c-0.26,0-0.5,0.09-0.71,0.26l-0.58,0.32l-0.53,0.45l-0.39,0.51l-0.26,0.45l-0.19,0.32
				l-0.19,0.32l-0.13,0.19l-0.13,0.19l0,0.19l0,0.19l-0.26,0.26l0,0.19l-0.13,0.13v0.06l-0.06,0l-0.13,0.13h-0.13l-0.06,0l-0.13,0
				l-0.13,0l-0.07-0.19l0-0.26l0-0.26l0-0.32l0-0.32l0.14-0.45l0.07-0.51l0.14-0.51l0.15-0.51c0.04-0.3,0.09-0.49,0.14-0.58l0-0.13
				l0.06-0.06l0-0.06l0-0.26l0.13-0.26l0-0.26l0.13-0.26l0-0.26l0.06-0.19l0-0.26l0.13-0.26l0.06-0.38l0.06-0.32l0.13-0.38
				l0.06-0.13l0-0.14l0-0.14l0.13-0.13l0-0.14l0.06-0.14V244l0.13-0.14l0.13-0.2h0.06h0.06l0.13,0h0.06l0.13,0l0.13,0l0.13,0.15
				l0.32,0.16l0.32,0.15l0.39,0.16l0.39,0.15l0.26,0l0.26,0l0.32,0l0.2,0.13l0.39,0l0.39,0l0.39,0l0.71,0.12l0.52,0l0.52,0l0.52,0
				l0.45,0.06l0.39,0l0.32,0l0.32,0l24.34-0.3l0.26,0.19l0.32,0l0.26,0l0.26,0l0.45,0l0.52-0.07l0.45,0l0.45,0l0.39,0
				c0.22-0.04,0.34-0.09,0.39-0.13h0.06l0.13-0.07l0.06,0l0.13,0l0.13,0l0.13-0.06h0.06l0.13,0l0.32-0.06l0.26,0l0.26,0l0.32-0.13
				l0.19-0.06l0.19,0l0.13-0.06h0.13l0.13,0l0.06,0.06l0.06,0.06l0,0.13v0.13l0.07,0.13l0,0.13l0,0.13l0,0.13l0,0.19l0,0.13l0,0.19
				l-0.06,0.19l0,0.38l0,0.7l0,0.38l0,0.38l0,0.26l0,0.32l0,0.06l0,0.13l0,0.13v0.13l0,0.19l-0.13,0.64l0,0.51l0,0.51l0,0.38l0,0.45
				l0,0.26l0,0.26l0,0.26l-0.06,0.19l0,0.19l-0.06,0.13l-0.13,0.13l-0.13,0.07l-0.06,0h-0.13l-0.26-0.06l-0.13-0.25l0-0.45l0-0.32
				l-0.07-0.89l-0.07-0.19c-0.04-0.21-0.09-0.34-0.13-0.38l-0.13-0.25l-0.2-0.32l-0.59-0.57l-0.65-0.51l-0.97-0.44l-1.36-0.31
				l-1.75-0.18l-0.78,0c-0.22,0-0.67-0.04-1.36-0.12l-8.22-0.28L300.99,274.11z"/>
			<path class="st1" d="M329.28,247.33l0.1,20.96l0,0.32l0,0.26l0.06,0.19l0.26,0.19l0.52,0.19l0.58,0.19l0.65,0.19l0.84,0.12
				l0.91,0.12l0.91,0.12l0.97,0.06l1.04,0l0.13,0l0.13,0l0.13,0l0.13,0l0.26,0l0.26,0l0.26,0l0.26,0l0.26,0l0.32-0.07l0.26,0
				l0.32-0.13l0.26,0c0.22-0.04,0.34-0.09,0.39-0.13l0.26-0.07c0.22-0.04,0.34-0.09,0.39-0.13l0.26-0.13
				c0.22-0.04,0.34-0.09,0.39-0.13l0.19-0.07l0.19-0.13l0.13-0.13l0.19-0.13l0.77-0.64l0.77-0.83l0.64-1.03l0.64-1.15l0.51-1.34
				l0.32-1.47l0.19-1.6l0.12-1.85l-0.21-2.81l-0.59-2.49l-0.98-2.17c-0.31-0.55-0.52-0.92-0.65-1.12c-0.13-0.19-0.35-0.46-0.65-0.8
				l-1.69-1.4l-1.95-1.08l-2.2-0.63l-2.4-0.24l-0.39,0l-0.32,0l-0.39,0.07l-0.32,0l-0.39,0l-0.26,0l-0.32,0.07l-0.26,0l-0.58,0.13
				l-0.45,0c-0.22,0.04-0.35,0.09-0.39,0.13l-0.26,0l-0.13,0.13l-0.26,0.07l-0.13,0.19l0,0.26V247.33z M324.17,262.82l-0.02-3.13
				l-0.01-2.75l-0.01-2.17l-0.01-1.53l0-0.57l0-0.64l0-0.51l0-0.51l0-0.45l0-0.45l-0.26-0.46l0-0.39v-0.06l0-0.13
				c0-0.35,0-0.61,0-0.79l0-0.65l-0.2-0.58l-0.26-0.53l-0.34-0.32l-0.52-0.33l-0.59-0.25l-0.72-0.26h-0.13l-0.13-0.06l-0.13,0
				l-0.13,0l-0.2,0l-0.13-0.06l-0.19,0h-0.13l-0.13,0l-0.13-0.06l-0.21,0l-0.13,0l-0.26,0l-0.19,0l-0.21,0l-0.19-0.07l-0.13-0.13
				l0-0.19l0.06-0.2l0.19-0.19l0.13,0l0.19,0l0.19,0l0.26,0l0.26,0l0.26,0l0.26,0l0.26,0l0.26,0l0.32,0l0.26,0l0.32,0l0.13,0l0.13,0
				l0.39,0l0.26,0l0.19,0l0.13,0l0.26,0l0.39,0l0.26,0l0.19,0l0.13,0l0.45,0.19l0.45,0l0.45,0l0.39,0l0.32,0l0.26,0l0.32,0l0.39,0
				l0.32,0l0.45,0l0.52,0l0.52,0l0.52,0l0.65-0.19l0.19,0l0.19,0h0.13l0.13,0l0.06,0l0.13,0l0.26,0l0.19,0l0.26,0l0.26,0l0.39,0
				l0.26,0l0.26,0l0.39,0l0.26,0l0.19,0l0.19,0h0.13l0.39,0l0.19,0l0.13,0l0.39,0l0.32,0l0.39,0l0.39,0l0.39,0l0.32,0l0.39,0
				c0.52,0,0.91,0.06,1.17,0.19c0.52,0,0.91,0.04,1.17,0.12c0.43,0,0.82,0.08,1.17,0.25l1.17,0.25l1.1,0.31l1.1,0.44l1.04,0.57
				l1.1,0.63l0.19,0.13l0.19,0.19l0.2,0.13l0.19,0.19l0.19,0.19l0.2,0.26l0.13,0.13l0.26,0.19l0.13,0.13l0.46,0.7l0.52,0.7
				l0.39,0.83l0.52,0.83l0.39,0.96l0.26,0.96l0.2,1.09l0.07,1.09l0,0.38l0,0.47l0,0.23l-0.06,0.19l0,0.13l-0.13,0.9
				c0,0.34-0.04,0.6-0.13,0.77l-0.19,0.83l-0.19,0.77l-0.32,0.9c-0.08,0.34-0.19,0.6-0.32,0.77l-0.38,0.9l-0.39,0.77l-1.09,1.67
				l-1.29,1.67l-0.77,0.9l-0.77,0.83l-0.9,0.9l-0.9,0.9l1.95,2.48l1.89,2.36l1.82,2.23l1.76,2.1l1.63,2.04l1.56,1.85l1.5,1.72
				l1.5,1.53l1.24,1.27l1.23,1.02l1.1,0.76l1.1,0.51l0.91,0.44l0.84,0.25l0.78,0.19c0.3,0,0.54,0.04,0.71,0.12l0.19,0.06l0.26,0
				l0.2,0.06l0.39,0.06l0.32,0l0.45,0l0.32,0l0.39,0l0.13,0l0.06,0.06l0.13,0l0.06,0.07l0.13,0.16l0.06,0.09l0,0.07l-0.13,0.17
				l-0.19,0.08l-0.26,0l-0.26,0l-0.32,0l-0.39,0l-4.6,0.02l-0.52,0l-0.39,0l-0.39,0l-0.39,0l-0.39,0l-0.32,0l-0.39,0l-0.26,0
				l-0.32,0l-0.26-0.19l-0.26,0l-0.26,0l-0.78-0.06l-0.65-0.12l-0.65-0.25l-0.58-0.32l-0.06,0l0-0.06l-0.06,0l-0.32-0.13l-0.26-0.19
				l-0.26-0.19l-0.26-0.19l-0.26-0.19l-0.26-0.19l-0.26-0.19l-0.26-0.26l-0.39-0.25l-0.39-0.38l-0.39-0.38l-0.33-0.45l-0.39-0.38
				l-0.39-0.45l-0.39-0.45l-0.39-0.51l-0.85-1.02l-0.85-1.08l-0.52-0.57l-0.39-0.64l-0.52-0.64l-0.46-0.64l-0.13-0.13l-0.19-0.13
				l-0.13-0.19l-0.13-0.19l-0.13-0.19l-0.13-0.19l-0.13-0.19l-0.13-0.19l-0.13-0.13l-0.19-0.25l-0.2-0.26l-0.2-0.25l-0.07-0.19
				l-0.85-1.02l-0.78-1.02l-0.39-0.51l-0.39-0.51l-0.39-0.45l-0.33-0.51l-0.65-0.89l-0.59-0.83c-0.13-0.26-0.3-0.47-0.52-0.64
				l-0.39-0.57l-0.06,0v-0.06h-0.06v-0.06l-0.06,0l0-0.06l-0.13,0v-0.06l-0.13,0v-0.06l-0.07,0h-0.13v-0.06l-0.13,0h-0.06
				l-7.96-0.28l-0.13,0.19l-0.19,0.06l-0.06,0.06l-0.06,0.13l0,0.19l0.01,1.41l0.01,2.43l0.01,2.11l0.01,2.05l0.01,1.85l0.01,1.73
				l0.07,1.47c0,0.6,0.05,1.04,0.14,1.34c0,0.47,0.05,0.83,0.14,1.09l0.07,0.7l0.13,0.57l0.13,0.57l0.26,0.51l0.26,0.45l0.45,0.32
				l0.52,0.25l0.71,0.13l0.13,0.13l0.26,0l0.26,0l0.32,0l0.32,0.06l0.19,0.06l0.39,0l0.26,0l0.26,0l0.19,0l0.19,0l0.13,0l0.13,0
				l0.06,0.06l0.13,0l0.06,0.06l0.07,0.06v0.06l0.06,0.06v0.06l0,0.13l-0.06,0l-0.19,0.06l-0.13,0.06l-0.19,0l-0.19,0.06l-0.26,0
				l-0.39,0l-0.26,0l-0.39,0l-0.26,0l-0.26,0l-0.26,0l-0.26,0l-0.26,0l-0.26-0.06l-0.26,0l-0.26,0l-0.26,0l-0.52,0l-0.45,0l-0.45,0
				l-0.39,0l-0.58-0.13l-0.52,0l-0.45,0l-0.39,0l-0.32,0l-0.26,0l-0.26,0l-0.19,0l-0.26,0l-0.26,0l-0.32,0l-0.39,0l-0.45,0
				l-0.45,0.13l-0.39,0l-0.26,0l-0.13,0l-0.19,0l-0.26,0l-0.39,0l-0.32,0.07l-0.39,0l-0.26,0l-0.39,0l-0.26,0l-0.26,0l-0.26,0
				l-0.26,0l-0.19-0.06l-0.19,0l-0.13-0.06l-0.19-0.06l-0.07-0.13l0-0.13l0.13-0.13l0.06-0.06l0.06,0l0.13-0.06l0.13,0l0.19,0
				l0.26,0h0.13l0.13-0.07h0.13l0.13,0l0.13,0l0.13-0.06l0.13,0l0.13,0l0.13,0l0.13-0.07h0.07l0.06-0.06h0.06l0.45-0.13l0.32-0.26
				l0.26-0.32l0.26-0.45l0.06-0.26l0.13-0.26l0-0.26l0.13-0.32l0.13-0.57l0.13-0.7l0.06-1.09c0-0.55,0.04-1,0.12-1.34l0-0.7
				l0.06-0.76l0-0.83l0-0.89l0-0.9l0-0.96l0-1.01l0.06-1.02l0-1.02l0-1.09l-0.01-1.09l-0.01-1.14l0-0.19L324.17,262.82z"/>
			<path class="st1" d="M395.04,260.84l0.1,0.29l0.19-0.02l0.06-0.27l0.03,0.1l0-0.3l-9.33-26.36l-0.19-0.19l-0.21-0.27l-0.21-0.19
				l-0.31-0.09l-0.11,0.1l-0.1,0.1l-0.21,0.27l-0.11,0.29l-0.1,0.18l-8.39,25.79l0,0.4l-0.05,0.19l0,0.19l0.1,0.1l0.1,0.09l0.19,0
				l0-0.29L395.04,260.84z M366.97,271.59l17.69-49.1l0.32-0.56l0.29-0.77l0.11-0.29l0.21-0.29l0.27-0.45l0.02-0.34l0.21-0.29
				l0.27-0.16l0.21-0.29h0.1l0.19,0l0.19,0h0.1l0,0.1l0.19,0.19l0.39,0.38l0.19,0.29l0.2,0.48c0.07,0.32,0.13,0.51,0.2,0.57
				l0.29,0.67l0.39,0.76l0.49,1.34l0.88,2.29l1.28,3.34l1.76,4.2l1.96,4.87l1.95,5.06l2.12,5.24l2.11,5.46l1.47,3.82l1.47,3.63
				l0.69,1.91l0.8,1.72l0.59,1.72l0.78,1.72l1.28,3.44l1.27,2.96l1.08,2.67l0.98,2.29l1.27,2.96l1.27,2.39l1.07,1.72l1.05,1.24
				l0.97,0.89l0.97,0.7l0.87,0.49l0.87,0.3l0.39,0.19c0.32,0,0.52,0,0.58,0l0.58,0l0.58,0l0.39,0l0.48,0l0.39,0l0.48,0l0.19,0
				l0.19,0l0.1,0.38l0.19,0l0.19,0l0.1,0.11l0,0.24l-0.19,0.22l-0.39,0l-0.29,0.38l-0.39,0l-0.29,0l-0.39,0l-0.78,0l-1.07,0
				l-1.45,0.01l-1.84,0.01l-1.07,0.01l-1.07,0l-1.07,0.01l-1.07,0l-1.16,0.01l-1.07,0.01l-1.16-0.38l-1.16,0.01l-0.19,0h-0.1
				l-0.19,0l-0.19,0l-0.29,0l-0.29,0l-0.19,0l-0.19,0l-0.19,0l-0.19,0l-0.48,0l-0.39,0l-0.39,0l-0.58,0l-0.29,0l0-0.29l0-0.1
				l0.19-0.19l0.1-0.38l0.1,0l0.29,0l0.1,0h0.1l0.1,0v-0.1l0.19-0.19l0.19-0.38l0.1-0.29l0-0.38l0-0.19l0-0.29l0-0.21l-0.1-0.09
				l0-0.19l-0.07-0.19l-9.29-23.75l-0.16,0.08l0-0.1l-0.1-0.1l-0.1-0.1l-0.19,0l-0.1-0.1l-0.19,0l-20.85-0.19l-0.19,0.29l-0.29,0.1
				l-0.1,0.1l-0.19,0.19l-0.19,0.29l-5.73,16.77l-0.38,1.15l-0.29,0.97l-0.17,0.88l-0.19,0.77l-0.19,0.88l0,0.77l-0.09,0.78l0,0.57
				l0,0.69l0.2,0.48l0.29,0.48l0.39,0.3l0.39,0.29c0.32,0.06,0.52,0.12,0.58,0.19l0.48,0l0.58,0l0.19,0l0.19,0l0.19,0l0.19,0l0.97,0
				l0.19,0l0.2,0.38l0.19,0l0.2,0.29l0.1,0l0.1,0.14l0,0.14h-0.1l-0.19,0l-0.29,0l-0.19,0.38l-0.29,0l-0.29,0l-0.29,0l-0.39,0
				l-0.29,0l-0.39,0l-0.39,0l-0.39,0l-0.48,0l-0.39,0l-0.39,0l-0.29,0l-0.29,0l-0.29,0c-0.39-0.13-0.62-0.25-0.68-0.38l-0.48,0
				l-0.58,0l-0.39,0l-0.39,0l-0.39,0l-0.48,0l-0.58,0l-0.48,0l-0.48,0l-0.58,0l-0.39,0l-0.97,0l-0.68,0.39l-0.58,0l-0.48,0l-0.58,0
				l-0.58,0l-0.58,0l-0.58,0l-0.39,0l-0.58,0l-0.48,0l-0.29,0l-0.19,0l-0.29,0l-0.29,0l-0.29,0l-0.49,0l-0.39,0l-0.29,0l-0.29-0.38
				l-0.29,0l-0.29,0l-0.1,0l0.1-0.29l0.1,0l0.19-0.29l0.19,0h0.1l0.19-0.38l0.19,0l0.1,0l0.19,0l0.19,0l0.19,0l0.39,0l0.19,0l0.19,0
				l0.19,0l0.19,0l0.19,0l0.1,0l1.65-0.29l1.45-0.66l1.26-0.87l0.96-1.14l0.77-1.23l0.77-1.42l0.67-1.52l0.77-1.81l0-0.29
				L366.97,271.59z"/>
			<polygon class="st2" points="219.52,182.38 225.78,189.75 232.46,182.37 239.43,182.37 228.58,194.35 228.58,201.21 
				223.04,201.21 223.04,194.42 212.96,182.38 			"/>
			<path class="st2" d="M109.21,187.22h11.02c0.74,0,1.35,0.6,1.35,1.34v6.35c0,0.73-0.61,1.34-1.35,1.34h-11.02
				c-0.74,0-1.35-0.6-1.35-1.34v-6.35C107.86,187.82,108.47,187.22,109.21,187.22 M104.5,182.36h20.44c1.13,0,2.05,0.91,2.05,2.03
				v14.79c0,1.11-0.92,2.03-2.05,2.03H104.5c-1.13,0-2.05-0.91-2.05-2.03v-14.79C102.45,183.28,103.37,182.36,104.5,182.36"/>
			<polygon class="st2" points="160.64,182.36 160.64,201.22 154.5,201.22 154.5,186.84 146.82,201.22 143.23,201.22 135.66,187.03 
				135.66,201.22 129.51,201.22 129.51,182.36 139.96,182.36 145.02,192.73 150.09,182.36 			"/>
			<path class="st2" d="M99.93,182.36H80.47c-1.08,0-1.96,0.87-1.96,1.93v0v7.17c0.01,1.99,1.87,2.34,4.11,2.34H93.3h0.01
				c0.67,0,1.22,0.54,1.22,1.21c0,0.66-0.55,1.21-1.22,1.21c-0.01,0-0.02,0-0.03,0H78.52v4.99h19.46h0.11c0,0,0,0,0,0
				c1.03-0.06,1.85-0.9,1.85-1.93c0-2.44,0-4.87,0-7.31c0.1-1.82-1.35-2.61-4.34-2.44H85.2c-0.02,0-0.05,0-0.07,0
				c-0.01,0-0.02,0-0.03,0c-0.02,0-0.04,0-0.05,0c-0.61-0.04-1.1-0.55-1.1-1.16c0-0.64,0.53-1.17,1.18-1.17c0.03,0,0.07,0,0.1,0
				h14.7V182.36z"/>
			<polygon class="st2" points="206.25,182.37 211.8,182.37 211.8,201.21 203.01,201.22 193.11,186.84 193.11,201.22 187.55,201.22 
				187.55,182.37 196.79,182.37 206.25,196.12 			"/>
			<path class="st2" d="M177.05,194.34l-3.15-6.3l-3.02,6.29L177.05,194.34z M185.93,201.2l-5.8-0.01l-1.32-2.81l-9.89,0.01
				l-1.36,2.79l-5.5,0.01l9.16-18.86h5.56L185.93,201.2z"/>
			<polygon class="st3" points="242.46,177.48 227.57,177.48 227.57,182.65 225.62,182.65 225.62,175.59 244.42,175.57 
				244.42,194.13 235.88,194.13 235.92,192.2 242.5,192.21 			"/>
			<path class="st2" d="M234.06,198.16l0.34-0.01c0.42-0.01,0.63,0.1,0.64,0.39c0.01,0.28-0.18,0.4-0.59,0.41l-0.36,0.01
				L234.06,198.16z M233.5,197.84l0.08,2.55l0.56-0.02l-0.04-1.06l0.4-0.01l0.55,1.05l0.62-0.02l-0.61-1.13
				c0.37-0.09,0.56-0.35,0.55-0.72c-0.02-0.45-0.39-0.68-1.11-0.66L233.5,197.84z M234.42,197.18c0.54-0.02,1.03,0.17,1.42,0.53
				c0.38,0.36,0.59,0.83,0.61,1.37c0.02,0.51-0.17,1-0.53,1.36c-0.38,0.38-0.86,0.59-1.4,0.61c-0.5,0.02-0.99-0.18-1.38-0.54
				c-0.38-0.36-0.6-0.83-0.61-1.34c-0.02-0.51,0.18-1.01,0.55-1.4C233.43,197.4,233.89,197.2,234.42,197.18 M234.4,196.85
				c-0.62,0.02-1.17,0.26-1.59,0.7c-0.43,0.46-0.66,1.04-0.64,1.65c0.02,0.6,0.27,1.15,0.72,1.57c0.45,0.43,1.04,0.65,1.66,0.63
				c0.6-0.02,1.17-0.27,1.61-0.72c0.43-0.44,0.64-1,0.62-1.63c-0.02-0.61-0.27-1.16-0.71-1.57
				C235.62,197.04,235.04,196.83,234.4,196.85"/>
			<path class="st4" d="M136.04,266.86l-0.01-2.76l-0.01-2.43l-0.34-1.77l-0.36-1.32l-0.58-0.77l-0.94-0.77l-1.16-0.66l-1.62-0.55
				l-0.22,0l-0.24-0.11l-0.22,0l-0.24,0l-0.34,0l-0.24-0.11l-0.35,0l-0.22,0l-0.22,0l-0.24-0.11l-0.35,0l-0.22,0l-0.47,0l-0.35,0
				l-0.34,0l-0.36-0.11l0-0.22l0-0.33l0-0.33l0.33-0.33l0.24-0.11l0.34,0l0.35-0.11l0.45,0l0.47,0l0.45,0l0.47,0l0.47,0l0.45,0
				l0.58,0l0.45,0l0.58,0l0.24,0l0.22,0.11l0.69,0l0.45,0l0.35,0l0.22,0l0.47,0l0.67,0l0.47,0l0.34,0l0.21,0l0.77,0.22l0.76,0
				l0.76,0l0.65,0l0.56,0l0.43,0l0.56,0l0.45,0l0.45,0l0.58,0l0.67,0l0.78,0l0.69,0l0.89-0.22l0.45,0l0.47,0l0.45,0l0.56,0l0.45,0
				l0.69,0l0.67,0l0.67,0l0.34,0l0.24,0l0.34,0l0.22-0.11l0.45,0l0.34,0l0.22,0l0.45,0l0.35,0.11l0.34,0l0.22,0.11l0.34,0.33l0,0.11
				l0,0.22l0,0.11l0,0.22l0,0.22l-0.28,0l-0.28,0.11l-0.22,0h-0.11l-0.22,0h-0.11l-0.24,0l-0.22,0l-0.35,0.11l-0.24,0l-0.35,0.22
				l-0.58,0l-0.35,0l-1.42,0.34l-0.84,0.45l-0.82,0.56l-0.46,0.66l-0.46,0.89l-0.24,1l0.01,1.1l0.01,1.33l0,0.22l0,0.11l0,0.22
				l0,0.22l0,0.22v0.11l0,0.22l0,0.22l-0.22,1.22l0.01,1.1l0.01,1.22l0.01,1.1l0.01,1.22l0.01,1.21l0.01,1.44l0.01,1.44l0.06,12.04
				l0,0.99l0,0.88l0,0.66l0,0.55l0,0.44l0,0.44l0,0.44l-0.28,0.66l-0.13,0.44l-0.28,0.22l-0.28,0.33l-0.15,0l-0.11,0.11l-0.11,0
				l-0.11,0.11l-0.67,0.33l-0.54,0.33l-0.67,0.33c-0.35,0.08-0.58,0.15-0.65,0.22l-1.32,0.45l-1.32,0.45l-0.56,0.22l-0.43,0.11
				c-0.37,0.08-0.6,0.15-0.67,0.22l-0.45,0l-0.54,0.11l-0.45,0l-0.56,0l-0.45,0.22l-0.34,0.11l-0.45,0l-0.67,0.22l-0.89,0.11
				l-0.89,0.23l-0.9,0l-0.8,0.26l-1.68,0.25l-1.68,0.27l-1.68,0.14l-1.57,0.01l-0.78,0l-0.67,0l-0.67,0l-0.67,0l-2.37,0.01
				l-2.57,0.01l-1.46-0.33l-1.34,0.01l-1.57-0.21l-1.57-0.1l-1.7-0.21l-1.57-0.21l-1.68-0.32l-1.68-0.32
				c-1.27-0.14-2.29-0.34-3.08-0.59c-0.78-0.25-1.36-0.44-1.74-0.54c-0.37-0.11-1.03-0.38-1.92-0.82l-1.68-0.54l-1.68-0.77
				l-1.57-0.77l-1.57-0.99l-1.68-0.99l-1.57-1.1l-1.59-1.1l-1.46-1.32l-2.58-2.42l-2.36-2.97l-2.25-3.3l-2.16-3.97l-1.81-4.3
				l-1.25-4.52l-0.81-4.75l-0.25-5.19l0.3-6.41l0.98-5.86l1.65-5.42c0.74-1.77,1.59-3.4,2.55-4.87l2.78-4.32
				c0.74-1.04,1.26-1.72,1.56-2.05c0.3-0.33,0.85-0.91,1.67-1.72l3.34-3.22c1.11-1.04,2.34-1.93,3.68-2.67l0.45-0.33l0.67-0.34
				l0.45-0.22l0.67-0.33l1.12-0.56l1.12-0.56l1.12-0.45l1.12-0.56l0.45-0.22c0.37-0.08,0.6-0.15,0.67-0.22l0.45-0.11
				c0.37-0.08,0.67-0.15,0.89-0.23c0.22-0.07,0.45-0.15,0.67-0.22c0.22-0.07,0.37-0.15,0.45-0.22l0.67-0.11
				c0.37-0.08,0.67-0.15,0.89-0.23c0.22-0.07,0.45-0.15,0.67-0.22c0.22-0.07,0.37-0.15,0.45-0.22l0.67-0.11l0.78-0.22
				c0.6,0,1.04-0.08,1.34-0.23c0.6,0,1.04-0.08,1.34-0.23l1.34-0.12c0.6,0,1.04-0.08,1.34-0.23l2.57-0.12
				c1.12,0,1.98-0.16,2.57-0.45l1.12-0.01l1.34-0.01l1.12,0l1.23-0.01l0.34,0l0.34,0l0.22,0l0.34,0l0.34,0l0.34,0l0.34,0.11l0.34,0
				l0.56,0l0.67,0l0.56,0.11l0.67,0l0.67,0l0.67,0.11l0.56,0.11l0.67,0l0.45,0.22l0.67,0l0.67,0l0.56,0l0.45,0.22l0.67,0l0.56,0
				l0.56,0.11l0.45,0.11l0.34,0.11l0.45,0l0.34,0l0.45,0.11l0.34,0.11l0.34,0l0.34,0.11l0.56,0.22l0.56,0l0.45,0.11l0.45,0
				l0.45,0.22l0.67,0l0.56,0.22l0.67,0l0.34,0.22l0.67,0l0.45,0l0.34,0.11l0.67,0l0.78,0.22l0.56,0l0.45,0l0.56,0l0.22,0l0.22,0.11
				l0.56,0l0.45,0l0.45,0l0.34,0.22l0.56,0.11l0.23,0.33l0.11,0l0,0.11l0.11,0.11l0,0.11l0,0.22l0,0.33l-0.11,0.33l0,0.44
				l-0.22,0.77l0,0.66l0,0.77l0,0.77l-0.22,1l0.01,1.1l-0.11,1.22l0.01,1.21l-0.11,1.44l0.01,1.66l0.01,1.77l0.01,1.99l0,0.66
				l-0.11,0.33l0,0.44l-0.11,0.33l-0.22,0.33l-0.33,0.22l-0.45,0l-0.34-0.22l-0.23-0.44l0-0.55l0-0.44l-0.23-0.44l0-0.55l-0.11-0.55
				l-0.12-0.77c-0.08-0.37-0.15-0.59-0.23-0.66l-0.12-0.88l-0.23-0.44l0-0.44l-0.23-0.33l-0.11-0.44l-0.22-0.22l-0.23-0.44
				l-0.23-0.22l0-0.22l-0.22-0.22l0-0.22l-0.11-0.11l-0.11-0.11l-0.11-0.11l-0.11-0.22l-0.11-0.11l-0.11-0.11l-0.11-0.11l-0.11-0.11
				l-0.11-0.22l-0.11-0.11l-0.11-0.11l-0.79-0.77l-0.79-0.77l-1.01-0.66l-1.12-0.66l-2.58-1.2l-2.91-1.2l-3.36-0.98L123.6,215
				l-4.25-0.42l-4.7-0.2l-2.8,0.12c-1.19,0.01-2.13,0.08-2.8,0.23c-0.97,0-1.94,0.16-2.91,0.46l-2.91,0.45l-3.13,0.9
				c-0.37,0.08-0.87,0.23-1.51,0.45c-0.63,0.22-1.17,0.48-1.62,0.78l-3.12,1.78l-3.12,2.22L88.4,224l-2.11,2.44l-1.89,2.99
				l-1.55,3.43l-1.44,3.76l-0.88,4.2l-0.65,4.42L79.8,250l0.13,3.87l0.35,3.53l0.69,3.42l1.02,3.2l1.13,2.98l1.24,2.76l1.24,2.53
				l1.35,2.09l0.45,1.1l0.68,0.88l0.68,0.88l0.67,0.77l0.34,0.44l0.34,0.33l0.23,0.33l0.34,0.33l0.56,0.66l0.56,0.44
				c0.75,0.81,1.29,1.37,1.63,1.7c0.34,0.33,0.88,0.75,1.63,1.26l3.48,2.52l3.59,2.08l3.81,1.53l3.7,1.2l3.81,0.76l3.81,0.54
				l4.03,0.09l0.45,0l0.67,0l0.67,0l0.67,0l0.67,0l0.67-0.11l0.67,0c0.37-0.08,0.6-0.15,0.67-0.22l0.45,0l0.56-0.11l0.56-0.11
				l0.56,0l0.45,0l0.56-0.22l0.45,0l0.56-0.22l0.45,0l0.56-0.22l0.45-0.11l0.45-0.22l0.78-0.34l0.78-0.45l0.45-0.22l0.45-0.33
				l0.22-0.22l0.22-0.22l0.33-0.44l0.11-0.44c0.07-0.37,0.15-0.59,0.22-0.66l0.11-0.55l0.11-0.77l-0.11-0.33L136.04,266.86z"/>
			<path class="st4" d="M160.18,272.8l0.02,3.32l0.01,2.89l0.01,2.44c0,0.82,0.07,1.44,0.2,1.86c0,0.69,0.05,1.2,0.14,1.54
				l0.26,1.22l0.33,0.89l0.46,0.57l0.47,0.39l0.52,0.32l0.65,0.25l0.78,0.19l0.92,0.19l1.23,0.06l1.49,0.06l1.76-0.01l1.23-0.01
				l1.24-0.07l1.1-0.07c0.47,0,0.84-0.05,1.11-0.13l0.97-0.2l0.84-0.33l0.78-0.46l0.65-0.71l0.19-0.2l0.19-0.26l0.13-0.26l0.13-0.2
				l0.06-0.13l0.13-0.26l0.13-0.4l0.13-0.26l0-0.19l0-0.13l0-0.14v-0.06l0.32-0.13l0-0.13l0-0.14l0-0.07l0.13-0.21l0-0.2l0-0.43
				l0-0.21l0.13-0.14l0-0.26l0.16-0.19l0.15-0.06l0.16,0l0.16,0l0.08,0.06l0,0.19l0,0.13l0.19,0.13l0,0.26l0,0.19l0,0.26l-0.19,0.32
				l0,0.38l0,0.26l0,0.45l0,0.26l0,0.32l0,0.26l-0.19,0.58l0,0.57l-0.13,0.19l0,0.38l-0.13,0.38l0,0.32l-0.06,0.19
				c-0.04,0.26-0.08,0.4-0.13,0.45l0,0.32l-0.13,0.26l0,0.26v0.06l-0.06,0.14l0,0.13l-0.13,0.27l-0.06,0.2l-0.13,0.14l-0.13,0.13
				l-0.26,0.14l-0.26,0.13l-0.45,0.07l-0.65,0.14l-0.45,0l-0.45,0l-0.52,0l-0.58,0l-0.91,0l-0.78,0l-0.84,0l-0.78,0l-0.78,0l-0.71,0
				l-0.71,0l-0.65,0l-1.3-0.19l-1.17,0.01l-1.1,0.01l-1.04,0c-0.43,0-0.78-0.04-1.04-0.12l-0.91,0l-0.91,0l-0.78,0l-0.78-0.06
				l-0.78,0l-0.78,0l-0.65,0l-0.13,0l-0.19,0l-0.13,0l-0.19,0l-0.26,0.06l-0.19,0l-0.19,0l-0.26,0l-0.19,0l-0.19,0l-0.26,0l-0.19,0
				l-0.26,0l-0.13,0l-0.06,0h-0.13l-0.13,0l-0.13,0l-0.07,0l-0.13,0l-0.06,0.06h-0.06l-0.39,0l-0.32,0l-0.39,0l-0.39,0l-0.39,0
				l-0.13,0l-0.19,0.07h-0.13l-0.19,0l-0.26,0l-0.26,0l-0.19-0.06l-0.19,0l-0.13-0.06l-0.19-0.06l-0.06-0.13l0-0.13l0.13-0.13
				l0.06-0.06h0.06l0.13-0.06l0.13,0l0.19,0l0.26,0l0.13,0l0.13-0.06l0.13,0l0.13,0h0.13l0.13-0.06l0.13,0l0.13,0l0.13,0l0.13-0.06
				h0.06l0.06-0.06l0.06,0l0.45-0.13l0.32-0.25l0.26-0.31l0.26-0.44l0.06-0.26l0.13-0.24l0-0.26l0.13-0.31l0.13-0.57l0.13-0.69
				l0.06-1.07c0-0.54,0.08-0.98,0.25-1.31l0-0.74l0-0.8l0-0.86l0-0.93l0-0.89l0-0.96l0-1.02l-0.01-1.02l0-1.02l0-1.09l-0.01-1.09
				l-0.01-1.15l-0.05-11.44l-0.02-3.13l-0.01-2.77l-0.01-2.13l-0.01-1.54l0-0.59l0-0.64l0-0.51l0-0.52l0-0.45l0-0.46l0-0.45l0-0.38
				l0-0.06l0-0.13c0-0.35-0.05-0.61-0.13-0.78l-0.07-0.64l-0.21-0.58l-0.26-0.51l-0.34-0.33l-0.53-0.32l-0.59-0.25l-0.74-0.25
				l-0.13,0l-0.14-0.06l-0.13,0l-0.13,0l-0.2,0l-0.13-0.06l-0.19,0l-0.14,0l-0.13,0l-0.13-0.06l-0.2,0h-0.13l-0.26,0l-0.2,0l-0.19,0
				l-0.21-0.06l-0.13-0.14l0-0.19l0.06-0.19l0.19-0.19l0.13,0l0.19,0l0.19,0l0.26,0l0.26,0l0.26,0l0.26,0l0.26,0l0.26,0l0.32,0
				l0.26,0l0.32,0l0.13,0l0.13,0.06l0.39,0l0.26,0l0.19,0h0.13l0.26,0l0.39,0l0.26,0l0.19,0l0.13,0l0.45,0.13l0.45,0l0.45,0l0.39,0
				l0.32,0l0.26,0l0.32,0l0.26,0l0.26,0l0.45,0l0.39,0l0.45,0l0.52,0c0.3-0.04,0.5-0.09,0.58-0.13l0.19,0l0.26,0l0.26,0l0.26,0
				l0.45,0l0.39,0l0.45,0l0.39,0l0.39,0l0.39-0.07l0.19,0l0.13,0l0.19,0h0.13l0.26,0l0.19,0.06l0.19,0l0.13,0.06l0.2,0.19l0.06,0.06
				l0,0.13v0.06l-0.06,0.13l-0.13,0.13h-0.06l-0.06,0.06l-0.13,0h-0.06l-0.19,0l-0.13,0l-0.19,0.06l-0.19,0l-0.26,0l-0.19,0
				l-0.26,0.07h-0.19l-0.13,0l-0.13,0.06l-0.13,0l-0.13,0l-0.71,0.19l-0.52,0.26l-0.45,0.32l-0.26,0.38l-0.26,0.52l-0.13,0.58
				l-0.13,0.64l-0.06,0.77l0,0.13v0.06l-0.13,0.83l0.07,0.89l0,1.02l0.01,1.23l0.01,1.53l0.01,2.12l0.01,2.75l0.02,3.33l0-0.19
				L160.18,272.8z"/>
			<path class="st4" d="M183.37,270.52c0.27,1.58,0.65,3.14,1.16,4.69c0.5,1.55,1.14,2.97,1.9,4.24c0.76,1.27,1.63,2.45,2.61,3.54
				s2.05,2.07,3.22,2.96c0.61,0.38,1.19,0.74,1.75,1.08c0.17,0.08,0.78,0.4,1.82,0.95c0.69,0.29,1.45,0.57,2.27,0.82
				c0.13,0.04,0.65,0.19,1.56,0.44c1.3,0.25,2.7,0.37,4.21,0.36l0.71,0l0.84-0.07l0.91-0.07l0.97-0.2l0.97-0.2
				c0.43-0.09,0.75-0.2,0.97-0.32c0.43-0.09,0.75-0.19,0.97-0.32l1.03-0.45c0.6-0.26,1.23-0.59,1.87-1
				c0.65-0.41,1.27-0.91,1.87-1.51l1.74-1.73c0.13-0.13,0.4-0.46,0.8-0.99c0.41-0.54,0.72-0.95,0.93-1.25
				c0.47-0.73,0.94-1.58,1.41-2.56l1.02-3.2c0.25-1.19,0.44-2.45,0.57-3.77l0.24-4.35c-0.01-1.87-0.11-3.46-0.31-4.76
				c-0.2-1.3-0.39-2.32-0.56-3.07c-0.18-0.74-0.4-1.52-0.66-2.33c-0.53-1.49-1.16-2.82-1.9-3.99c-0.74-1.17-1.63-2.3-2.67-3.41
				c-0.39-0.38-0.89-0.83-1.5-1.34c-0.43-0.34-0.97-0.76-1.62-1.27c-1.08-0.76-2.21-1.4-3.38-1.9s-2.35-0.88-3.53-1.13
				c-1.19-0.25-2.43-0.37-3.72-0.37c-0.65,0-1.29,0.03-1.94,0.07c-0.65,0.05-1.45,0.16-2.39,0.33c-0.95,0.17-1.98,0.5-3.1,0.97
				c-1.12,0.39-2.2,0.95-3.23,1.68c-0.56,0.39-1.03,0.73-1.42,1.03c-0.22,0.17-0.69,0.6-1.42,1.29c-0.9,0.9-1.66,1.86-2.29,2.89
				c-0.62,1.03-1.21,2.26-1.76,3.72c-0.38,1.32-0.67,2.61-0.86,3.87c-0.19,1.26-0.3,2.17-0.34,2.75c-0.04,0.58-0.06,1.44-0.05,2.59
				l0-0.19c0,0.94,0.03,1.86,0.08,2.78C183.15,268.72,183.24,269.62,183.37,270.52 M176.88,266.14l0.06-0.83l0.06-0.9
				c0-0.43,0.04-0.75,0.12-0.96c0-0.43,0.04-0.75,0.12-0.96l0.25-0.96l0.25-0.96l0.25-0.96c0.34-1.11,0.74-2.18,1.21-3.2l1.73-3.14
				c0.64-1.03,1.37-2.01,2.19-2.95l2.77-2.89c0.99-0.9,2.07-1.7,3.26-2.41c1.18-0.71,2.43-1.28,3.75-1.71
				c1.31-0.43,2.77-0.78,4.37-1.04c1.59-0.26,3.26-0.4,4.98-0.41c1.94-0.01,3.7,0.12,5.28,0.39c1.58,0.27,3.16,0.67,4.76,1.19
				c1.6,0.52,3.05,1.19,4.35,1.99c1.43,0.79,2.73,1.7,3.9,2.72c1.17,1.02,2.23,2.18,3.19,3.5c0.83,1.1,1.57,2.41,2.22,3.94
				c0.65,1.53,1.14,3.15,1.45,4.85c0.13,0.81,0.25,1.66,0.34,2.54c0.09,0.89,0.14,1.81,0.14,2.75c0.01,1.92-0.13,3.64-0.43,5.18
				c-0.25,1.65-0.7,3.25-1.34,4.79c-0.51,1.58-1.24,3.05-2.18,4.41c-0.43,0.73-0.88,1.42-1.35,2.08c-0.47,0.66-1.03,1.31-1.67,1.96
				c-1.03,1.16-2.32,2.29-3.87,3.4c-1.33,0.9-2.8,1.7-4.39,2.39c-0.78,0.26-1.57,0.5-2.39,0.71c-0.39,0.09-1.38,0.29-2.97,0.62
				c-1.6,0.33-3.32,0.5-5.18,0.5c-2.07,0.01-3.83-0.11-5.28-0.36c-1.45-0.25-2.34-0.4-2.69-0.47c-0.35-0.06-1.08-0.26-2.2-0.6
				c-1.3-0.46-2.64-1.09-4.02-1.89c-1.26-0.8-2.36-1.72-3.31-2.75c-0.95-1.04-1.87-2.13-2.73-3.27c-0.7-0.98-1.39-2.1-2.09-3.38
				l-1.51-3.56c-0.18-0.54-0.35-1.15-0.53-1.81c-0.18-0.66-0.33-1.31-0.46-1.95l-0.13-0.24l0-0.32l0-0.32l-0.07-0.32l-0.13-0.25
				l0-0.32l0-0.26l0-0.32l0-0.32l-0.07-0.26l0-0.26l0-0.38l0-0.26l0-0.32l0-0.26l0-0.32l0-0.19L176.88,266.14z"/>
			<path class="st4" d="M234.46,291.77l-1.1,0.01c-0.52,0-0.91-0.06-1.17-0.19c-0.43,0-0.78-0.04-1.04-0.12
				c-0.43,0-0.82-0.08-1.17-0.25l-1.04-0.25l-1.04-0.25l-0.97-0.38h-0.06v-0.06h-0.06h-0.06v-0.06h-0.06l-0.32-0.13l0-0.19
				l-0.2-0.19l-0.1-0.19l-0.1-0.26l0-0.32l0-0.45l0-0.58l0-0.64l0-0.64l0-0.64l0.06-0.64l0-0.26l0-0.32l0-0.26l0-0.26l0-0.51
				l0.13-0.51l0-0.26l0-0.38l0-0.26l0.19-0.32l0-0.26l0-0.26l0-0.19l0-0.19l0-0.26l0-0.19l0-0.13v-0.13l0.15-0.19l0.15-0.07h0.15
				l0.15,0l0.08,0.06l0.23,0.13l0,0.13v0.06l0,0.13l0,0.32l0,0.32l0,0.36l0,0.3l0,0.36l0,0.29l0,0.35l0.13,0.26l0.4,1.64l0.78,1.39
				c0.31,0.42,0.66,0.8,1.05,1.14l1.3,0.81l1.44,0.7l1.49,0.43l1.57,0.25l1.62,0.06l0.78,0c0.3,0,0.72-0.05,1.24-0.13l1.75-0.46
				l1.56-0.72c0.43-0.26,0.86-0.62,1.29-1.1l1.04-1.23l0.77-1.36l0.51-1.36l0.25-1.42v-0.06l0.06-0.13v-0.06l0-0.13l0-0.13l0-0.13
				l-0.07-0.77l-0.07-0.77c0-0.31-0.05-0.54-0.13-0.71c0-0.3-0.05-0.53-0.13-0.7l-0.13-0.26l-0.07-0.38l-0.13-0.32
				c-0.04-0.21-0.09-0.34-0.13-0.38l-0.13-0.13l-0.13-0.32l-0.07-0.2l-0.13-0.13l-0.13-0.32l-0.07-0.19l-0.52-0.64l-0.59-0.7
				l-0.65-0.64l-0.65-0.77l-0.78-0.7l-0.85-0.76l-0.98-0.83l-0.98-0.89l-2.93-2.55l-1.04-0.71l-0.98-0.83l-0.91-0.76l-0.78-0.76
				l-1.37-1.47l-1.04-1.47l-0.39-0.64l-0.39-0.78l-0.39-0.64l-0.26-0.7l-0.26-0.64l-0.2-0.77l-0.2-0.65c0-0.3-0.05-0.53-0.13-0.7
				l0-0.13l-0.07-0.13l0-0.32l-0.07-0.26l0-0.26l0-0.26l0-0.32l0-0.26l0-0.33l0.18-2.43c0.13-0.86,0.36-1.59,0.7-2.19
				c0.3-0.77,0.66-1.43,1.09-2l1.61-1.73c0.6-0.51,1.23-0.96,1.87-1.35c0.65-0.4,1.39-0.73,2.23-1.01c0.84-0.28,1.73-0.49,2.68-0.62
				l2.98-0.27l0.39,0l0.52,0l0.39,0l0.45,0l0.78,0l0.78,0.08l0.65,0.17l0.71,0.08l0.65,0.17c0.3,0,0.55,0.03,0.74,0.09
				c0.19,0.06,0.31,0.12,0.36,0.16l0.39,0.06l0.26,0.06l0.32,0l0.26,0.06l0.19,0l0.26,0l0.19,0l0.19,0l0.13,0.06l0.13,0l0.07,0.06
				l0.06,0.06l0,0.06l0.06,0.06l0,0.13l0,0.13l0,0.13l-0.06,0.13l0,0.19l0,0.26v0.13l0,0.19l-0.06,0.13l0,0.19l0,0.38l-0.13,0.51
				l0,0.45l0,0.26l0,0.26l0,0.32l0,0.26l0,0.7l0,0.64l0,0.77l0,0.77l0,0.38l-0.06,0.19l0,0.26l-0.06,0.26l-0.13,0.26l-0.13,0.13
				l-0.19,0l-0.26-0.06l-0.13-0.26l0-0.32l0-0.19l-0.07-0.13l0-0.19l-0.07-0.19l-0.13-0.32l0-0.45l0-0.26l-0.13-0.13l0-0.26
				l-0.13-0.19l0-0.13l-0.07-0.13l-0.13-0.32l-0.07-0.26l-0.07-0.13l-0.13-0.26l-0.2-0.32l-0.13-0.19l-0.2-0.19l-0.13-0.13
				l-0.13-0.13l-0.26-0.26l-0.26-0.25l-0.52-0.25l-0.58-0.38l-0.71-0.25l-0.71-0.32l-0.84-0.25l-0.97-0.19l-1.1-0.06l-1.23-0.06
				c-0.69,0-1.23,0.05-1.62,0.14l-1.49,0.39c-0.52,0.13-0.97,0.35-1.36,0.65l-1.23,0.84c-0.39,0.26-0.73,0.62-1.03,1.09l-0.71,1.28
				l-0.38,1.41l-0.12,1.66l0,0.51l0,0.45l0,0.45c0.04,0.21,0.09,0.34,0.13,0.38l0.13,0.45c0.04,0.21,0.09,0.38,0.13,0.51
				c0.04,0.13,0.09,0.21,0.13,0.26l0.2,0.38l0.2,0.37l0.26,0.38l0.26,0.45l0.26,0.38l0.65,0.83l0.85,0.83l0.98,0.95l1.11,0.95
				l1.24,1.08l1.43,1.13l1.82,1.21l1.69,1.53l1.5,1.34l1.3,1.27l1.17,1.2l0.91,1.15l0.78,1.15l0.65,1.15l0.59,1.08l0.07,0.38
				l0.13,0.26c0.04,0.21,0.09,0.34,0.13,0.38l0.13,0.26l0,0.38l0.13,0.31l0,0.38l0.13,0.26l0.07,0.7l0.07,0.64l0,0.38l0.07,0.26
				l0,0.38l0,0.32l-0.06,0.64l-0.06,0.64l-0.13,0.7l-0.06,0.7c-0.04,0.21-0.08,0.33-0.13,0.37l-0.06,0.38l-0.13,0.45
				c-0.04,0.21-0.08,0.38-0.13,0.51c-0.04,0.13-0.09,0.21-0.13,0.26l-0.19,0.38l-0.13,0.45l-0.19,0.38l-0.19,0.38l-0.13,0.26
				l-0.19,0.38l-0.19,0.26l-0.45,0.64l-0.45,0.58l-0.51,0.64l-0.58,0.58l-0.71,0.5l-0.64,0.51l-1.1,0.71l-1.1,0.52l-1.16,0.33
				l-1.23,0.33l-1.29,0.26l-1.29,0.2l-1.29,0.13l-1.29,0.07L234.46,291.77z"/>
			<path class="st4" d="M260.97,291.74l-1.1,0.01c-0.52,0-0.91-0.06-1.17-0.19c-0.43,0-0.78-0.04-1.04-0.12
				c-0.43,0-0.82-0.08-1.17-0.25l-1.04-0.25l-1.04-0.25l-0.97-0.38h-0.06v-0.06h-0.06h-0.06l0-0.06l-0.06,0l-0.32-0.13l0-0.19
				l-0.19-0.19l-0.1-0.19l-0.1-0.26l0-0.32l0-0.45l0-0.58l0-0.64l0-0.64l0-0.64l0.06-0.64l0-0.26l0-0.32l0-0.26l0-0.26l0-0.51
				l0.13-0.51l0-0.26l0-0.38l0-0.26l0.19-0.32l0-0.26l0-0.26l0-0.19l0-0.19l0-0.26l0-0.19l0-0.13l0-0.13l0.15-0.19l0.15-0.06h0.15
				l0.15,0l0.08,0.06l0.23,0.13l0,0.13v0.06l0,0.13l0,0.32l0,0.32l0,0.36l0,0.3l0,0.36l0,0.29l0,0.35l0.13,0.26l0.4,1.64l0.78,1.39
				c0.31,0.42,0.66,0.8,1.05,1.14l1.3,0.81l1.44,0.7l1.49,0.43l1.57,0.25l1.62,0.06l0.78,0c0.3,0,0.72-0.05,1.24-0.13l1.75-0.46
				l1.56-0.72c0.43-0.26,0.86-0.62,1.29-1.1l1.04-1.23l0.77-1.36l0.51-1.36l0.25-1.42v-0.06l0.06-0.13v-0.06l0-0.13l0-0.13l0-0.13
				l-0.07-0.77l-0.07-0.77c0-0.31-0.05-0.54-0.13-0.71c0-0.3-0.05-0.53-0.13-0.7l-0.13-0.25l-0.07-0.38l-0.13-0.32
				c-0.04-0.21-0.09-0.34-0.13-0.38l-0.13-0.13l-0.13-0.32l-0.07-0.2l-0.13-0.13l-0.13-0.32l-0.07-0.19l-0.52-0.64l-0.59-0.7
				l-0.65-0.64l-0.65-0.77l-0.78-0.7l-0.85-0.76l-0.98-0.83l-0.97-0.89l-2.93-2.55l-1.04-0.71l-0.97-0.83l-0.91-0.76l-0.78-0.76
				l-1.37-1.47l-1.04-1.47l-0.39-0.64l-0.39-0.78l-0.39-0.64l-0.26-0.7l-0.26-0.64l-0.2-0.77l-0.2-0.65c0-0.3-0.05-0.53-0.13-0.7
				l0-0.13l-0.06-0.13l0-0.32l-0.07-0.26l0-0.26l0-0.26l0-0.32l0-0.26l0-0.33l0.18-2.43c0.13-0.86,0.36-1.59,0.7-2.19
				c0.3-0.77,0.66-1.43,1.09-2l1.61-1.73c0.6-0.51,1.23-0.96,1.87-1.35c0.65-0.4,1.39-0.73,2.23-1.01c0.84-0.28,1.73-0.49,2.68-0.62
				l2.98-0.27l0.39,0l0.52,0l0.39,0l0.45,0l0.78,0l0.78,0.08l0.65,0.17l0.71,0.08l0.65,0.17c0.3,0,0.55,0.03,0.75,0.09
				c0.19,0.06,0.31,0.12,0.36,0.16l0.39,0.06l0.26,0.06l0.32,0l0.26,0.06l0.19,0l0.26,0l0.19,0l0.19,0l0.13,0.06h0.13l0.06,0.06
				l0.06,0.06l0,0.06l0.06,0.06l0,0.13v0.13l0,0.13l-0.06,0.13l0,0.19l0,0.26l0,0.13l0,0.19l-0.06,0.13l0,0.19l0,0.38l-0.13,0.51
				l0,0.45l0,0.26l0,0.26l0,0.32l0,0.26l0,0.7l0,0.64l0,0.77l0,0.77l0,0.38l-0.06,0.19l0,0.26l-0.06,0.26l-0.13,0.26l-0.13,0.13
				l-0.19,0l-0.26-0.06l-0.13-0.26l0-0.32l0-0.19l-0.07-0.13l0-0.19l-0.07-0.19l-0.13-0.32l0-0.45l0-0.26l-0.13-0.13l0-0.26
				l-0.13-0.19l0-0.13l-0.07-0.13l-0.13-0.32l-0.07-0.26l-0.06-0.13l-0.13-0.26l-0.2-0.32l-0.13-0.19l-0.2-0.19l-0.13-0.13
				l-0.13-0.13l-0.26-0.26l-0.26-0.25l-0.52-0.25l-0.58-0.38l-0.71-0.25l-0.71-0.32l-0.84-0.25l-0.97-0.19l-1.1-0.06l-1.23-0.06
				c-0.69,0-1.23,0.05-1.62,0.14l-1.49,0.39c-0.52,0.13-0.97,0.35-1.36,0.65l-1.23,0.84c-0.39,0.26-0.73,0.62-1.03,1.09l-0.71,1.28
				l-0.38,1.41l-0.12,1.66l0,0.51l0,0.45l0,0.45c0.04,0.21,0.09,0.34,0.13,0.38l0.13,0.45c0.04,0.21,0.09,0.38,0.13,0.51
				c0.04,0.13,0.09,0.21,0.13,0.26l0.2,0.38l0.2,0.37l0.26,0.38l0.26,0.45l0.26,0.38l0.65,0.83l0.85,0.83l0.97,0.95l1.11,0.95
				l1.24,1.08l1.43,1.13l1.82,1.21l1.69,1.53l1.5,1.34l1.3,1.27l1.17,1.2l0.91,1.15l0.78,1.15l0.65,1.15l0.59,1.08l0.07,0.38
				l0.13,0.25c0.04,0.21,0.09,0.34,0.13,0.38l0.13,0.26l0,0.38l0.13,0.31l0,0.38l0.13,0.26l0.07,0.7l0.07,0.64l0,0.38l0.07,0.26
				l0,0.38l0,0.32l-0.06,0.64l-0.06,0.64l-0.13,0.7l-0.06,0.7c-0.04,0.21-0.09,0.33-0.13,0.37l-0.06,0.38l-0.13,0.45
				c-0.04,0.21-0.08,0.38-0.13,0.51c-0.04,0.13-0.09,0.21-0.13,0.26l-0.19,0.38l-0.13,0.45l-0.19,0.38l-0.19,0.38l-0.13,0.26
				l-0.19,0.38l-0.19,0.26l-0.45,0.64l-0.45,0.58l-0.51,0.64l-0.58,0.58l-0.71,0.5l-0.65,0.51l-1.1,0.71l-1.1,0.52l-1.16,0.33
				l-1.23,0.33l-1.29,0.26l-1.29,0.2l-1.29,0.13l-1.3,0.07L260.97,291.74z"/>
			<path class="st4" d="M300.93,272.19l0.01,2.43l0.01,2.11l0.01,2.05l0.01,1.85l0.01,1.73l0.2,1.47c0,0.6,0,1.04,0.01,1.34
				c0,0.47,0,0.83,0.01,1.09l0.07,0.7l0.13,0.58l0.13,0.57l0.27,0.51l0.26,0.45l0.45,0.32l0.53,0.25l0.72,0.12l0.13,0.13l0.26,0
				l0.26,0l0.33,0l0.32,0.06l0.19,0.06l0.4,0l0.26,0l0.26,0l0.19,0l0.19,0h0.14l0.13,0l0.07,0.06l0.13,0l0.07,0.06l0.06,0.06l0,0.06
				l0.06,0.06l0,0.06v0.13l-0.06,0l-0.19,0.19l-0.13,0l-0.19,0l-0.19,0l-0.26,0l-0.39,0l-0.26,0l-0.39,0l-0.26,0l-0.26,0l-0.26,0
				l-0.26,0l-0.26,0l-0.26,0l-0.26,0l-0.26,0l-0.26,0l-0.52,0l-0.45,0l-0.45,0l-0.39,0l-0.58-0.19l-0.52,0l-0.45,0l-0.39,0l-0.32,0
				l-0.26,0l-0.26,0l-0.32,0l-0.26,0l-0.32,0l-0.39,0l-0.39,0l-0.45,0l-0.45,0.19l-0.26,0l-0.26,0l-0.13,0l-0.19,0l-0.26,0l-0.39,0
				l-0.39,0l-0.39,0l-0.26,0l-0.39,0l-0.13,0l-0.19,0l-0.26,0l-0.26,0l-0.26,0l-0.19,0l-0.19,0l-0.13,0l-0.19-0.07l-0.06-0.17
				l0-0.16l0.13-0.16l0.06-0.07l0.06,0l0.13-0.06h0.13l0.19,0l0.26,0l0.13,0l0.13-0.06l0.13,0l0.13,0l0.13,0l0.13-0.06h0.13l0.13,0
				l0.13,0l0.13-0.06h0.06l0.06-0.06l0.06,0l0.45-0.13l0.32-0.26l0.26-0.32l0.26-0.45l0.06-0.26l0.13-0.26l0-0.26l0.15-0.32
				l0.15-0.58l0.15-0.7l-0.01-1.09c0-0.55,0-1-0.01-1.34l0-0.7l0.26-0.77l0-0.83l0-0.9l0-0.9l0-0.96l-0.01-1.02l0-1.02l-0.01-1.02
				l0-1.09l0-1.09l-0.01-1.15l-0.13-27.29l-9.61,0.17l-0.79,0.2l-0.65,0l-0.65,0.13l-0.52,0.07l-0.52,0.13l-0.53,0
				c-0.22,0.04-0.35,0.09-0.39,0.13l-0.39,0.07c-0.26,0-0.5,0.09-0.71,0.26l-0.58,0.32l-0.53,0.45l-0.39,0.51L278.8,248l-0.19,0.32
				l-0.19,0.32l-0.13,0.19l-0.13,0.19l0,0.19l0,0.19l-0.26,0.26l0,0.19l-0.13,0.13v0.06h-0.06l-0.13,0.13l-0.13,0l-0.06,0l-0.13,0
				h-0.13l-0.07-0.19l0-0.26l0-0.26l0-0.32l0-0.32l0.14-0.45l0.07-0.51l0.14-0.51l0.15-0.51c0.04-0.3,0.09-0.49,0.14-0.58v-0.13
				l0.06-0.06l0-0.06l0-0.26l0.13-0.26l0-0.26l0.13-0.26l0-0.26l0.06-0.19l0-0.26l0.13-0.26l0.06-0.38l0.06-0.32l0.13-0.38
				l0.06-0.13l0-0.14l0-0.14l0.13-0.13l0-0.14l0.06-0.14v-0.06l0.13-0.14l0.13-0.2h0.06l0.06,0l0.13,0l0.07,0l0.13,0l0.13,0
				l0.13,0.15l0.32,0.16l0.32,0.15l0.39,0.16l0.39,0.15l0.26,0l0.26,0l0.32,0l0.2,0.13l0.39,0l0.39,0l0.39,0l0.71,0.12l0.52,0
				l0.52,0l0.52,0l0.45,0.06l0.39,0l0.32,0l0.32,0l24.34-0.31l0.26,0.19l0.32,0l0.26,0l0.26,0l0.45,0l0.52-0.07l0.45,0l0.45,0
				l0.39,0c0.22-0.04,0.34-0.09,0.39-0.13h0.06l0.13-0.07h0.06l0.13,0l0.13,0l0.13-0.06l0.06,0H316l0.32-0.07l0.26,0l0.26,0
				l0.32-0.13l0.19-0.07l0.19,0l0.13-0.06h0.13l0.13,0l0.06,0.06l0.06,0.06l0,0.13v0.13l0.07,0.13l0,0.13l0,0.13l0,0.13l0,0.19v0.13
				l0,0.19l-0.06,0.19l0,0.38l0,0.7l0,0.38l0,0.38l0,0.26l0,0.32v0.06l0,0.13v0.13l0,0.13l0,0.19l-0.13,0.64l0,0.51l0,0.51l0,0.38
				l0,0.45l0,0.26l0,0.26l0,0.26l-0.06,0.19l0,0.19l-0.06,0.13l-0.13,0.13l-0.13,0.06h-0.06l-0.13,0l-0.26-0.06l-0.13-0.25l0-0.45
				l0-0.32l-0.07-0.89l-0.07-0.19c-0.04-0.21-0.09-0.34-0.13-0.38l-0.13-0.26l-0.2-0.32l-0.59-0.57l-0.65-0.51l-0.97-0.44
				l-1.36-0.31l-1.75-0.18l-0.78,0c-0.22,0-0.67-0.04-1.36-0.12l-8.22-0.28L300.93,272.19z"/>
			<path class="st4" d="M329.21,245.42l0.1,20.96l0,0.32l0,0.26l0.06,0.19l0.26,0.19l0.52,0.19l0.58,0.19l0.65,0.19l0.84,0.12
				l0.91,0.12l0.91,0.12l0.97,0.06l1.04-0.01h0.13l0.13,0l0.13,0h0.13l0.26,0l0.26,0l0.26,0l0.26,0l0.26,0l0.32-0.07l0.26,0
				l0.32-0.13l0.26,0c0.22-0.04,0.34-0.09,0.39-0.13l0.26-0.07c0.22-0.04,0.34-0.09,0.39-0.13l0.26-0.13
				c0.22-0.04,0.34-0.09,0.39-0.13l0.19-0.06l0.19-0.13l0.13-0.13l0.19-0.13l0.77-0.64l0.77-0.83l0.64-1.03l0.64-1.15l0.51-1.34
				l0.32-1.47l0.19-1.6l0.12-1.85l-0.21-2.81l-0.59-2.49l-0.98-2.17c-0.31-0.55-0.52-0.92-0.65-1.12c-0.13-0.19-0.35-0.46-0.65-0.8
				l-1.69-1.4l-1.95-1.08l-2.2-0.63l-2.4-0.24l-0.39,0l-0.32,0l-0.39,0.07l-0.32,0l-0.39,0l-0.26,0l-0.32,0.07l-0.26,0l-0.58,0.13
				l-0.45,0c-0.22,0.04-0.34,0.09-0.39,0.13l-0.26,0l-0.13,0.13l-0.26,0.07l-0.13,0.19l0,0.26V245.42z M324.11,260.91l-0.02-3.13
				l-0.01-2.75l-0.01-2.17l-0.01-1.53l0-0.58l0-0.64l0-0.51l0-0.51l0-0.45l0-0.45l-0.26-0.46l0-0.39l0-0.06l0-0.13
				c0-0.35,0-0.61,0-0.79l0-0.65l-0.2-0.58l-0.26-0.53l-0.34-0.32l-0.52-0.33l-0.59-0.25l-0.72-0.26l-0.13,0l-0.13-0.06l-0.13,0
				l-0.13,0l-0.2,0l-0.13-0.06l-0.19,0l-0.13,0l-0.13,0l-0.13-0.06l-0.21,0l-0.13,0l-0.26,0l-0.19,0l-0.21,0l-0.19-0.07l-0.13-0.13
				l0-0.19l0.06-0.2l0.19-0.19l0.13,0l0.19,0l0.19,0l0.26,0l0.26,0l0.26,0l0.26,0l0.26,0l0.26,0l0.32,0l0.26,0l0.32,0l0.13,0l0.13,0
				l0.39,0l0.26,0l0.19,0l0.13,0l0.26,0l0.39,0l0.26,0l0.19,0h0.13l0.45,0.19l0.45,0l0.45,0l0.39,0l0.32,0l0.26,0l0.32,0l0.39,0
				l0.32,0l0.45,0l0.52,0l0.52,0l0.52,0l0.65-0.2l0.19,0l0.19,0h0.13l0.13,0l0.06,0h0.13l0.26,0l0.19,0l0.26,0l0.26,0l0.39,0l0.26,0
				l0.26,0l0.39,0l0.26,0l0.19,0l0.19,0l0.13,0l0.39,0h0.19l0.13,0l0.39,0l0.32,0l0.39,0l0.39,0l0.39,0l0.32,0l0.39,0
				c0.52,0,0.91,0.06,1.17,0.19c0.52,0,0.91,0.04,1.17,0.12c0.43,0,0.82,0.08,1.17,0.25l1.17,0.25l1.1,0.31l1.1,0.44l1.04,0.57
				l1.1,0.63l0.19,0.13l0.19,0.19l0.2,0.13l0.2,0.19l0.19,0.19l0.2,0.26l0.13,0.13l0.26,0.19l0.13,0.13l0.46,0.7l0.52,0.7l0.39,0.83
				l0.52,0.83l0.39,0.96l0.26,0.96l0.2,1.08l0.07,1.09l0,0.38l0,0.47l0,0.23l-0.06,0.19l0,0.13l-0.12,0.9c0,0.34-0.04,0.6-0.13,0.77
				l-0.19,0.83l-0.19,0.77l-0.32,0.9c-0.08,0.34-0.19,0.6-0.32,0.77l-0.38,0.9l-0.39,0.77l-1.09,1.67l-1.29,1.67l-0.77,0.9
				l-0.77,0.83l-0.9,0.9l-0.9,0.9l1.95,2.48l1.89,2.36l1.82,2.23l1.76,2.1l1.63,2.04l1.56,1.85l1.5,1.72l1.5,1.53l1.24,1.27
				l1.23,1.02l1.1,0.76l1.1,0.51l0.91,0.44l0.84,0.25l0.78,0.19c0.3,0,0.54,0.04,0.71,0.12l0.19,0.06l0.26,0l0.19,0.06l0.39,0.06
				l0.32,0l0.45,0l0.32,0l0.39,0l0.13,0l0.06,0.06l0.13,0l0.07,0.07l0.13,0.16l0.06,0.09v0.07l-0.13,0.17l-0.19,0.08l-0.26,0
				l-0.26,0l-0.33,0l-0.39,0l-4.6,0.02l-0.52,0l-0.39,0l-0.39,0l-0.39,0l-0.39,0l-0.33,0l-0.39,0l-0.26,0l-0.32,0l-0.26-0.19
				l-0.26,0l-0.26,0l-0.78-0.06l-0.65-0.13l-0.65-0.25l-0.58-0.32l-0.06,0l0-0.06h-0.06l-0.32-0.13l-0.26-0.19l-0.26-0.19
				l-0.26-0.19l-0.26-0.19l-0.26-0.19l-0.26-0.19l-0.26-0.25l-0.39-0.25l-0.39-0.38l-0.39-0.38l-0.33-0.45l-0.39-0.38l-0.39-0.45
				l-0.39-0.44l-0.39-0.51l-0.85-1.02l-0.85-1.08l-0.52-0.57l-0.39-0.64l-0.52-0.64l-0.46-0.64l-0.13-0.13l-0.2-0.13l-0.13-0.19
				l-0.13-0.19l-0.13-0.19l-0.13-0.19l-0.13-0.19l-0.13-0.19l-0.13-0.13l-0.19-0.25l-0.2-0.26l-0.2-0.26l-0.07-0.19l-0.85-1.02
				l-0.78-1.02l-0.39-0.51l-0.39-0.51l-0.39-0.45l-0.33-0.51l-0.65-0.89l-0.59-0.83c-0.13-0.26-0.3-0.47-0.52-0.64l-0.39-0.57h-0.06
				v-0.06l-0.06,0v-0.06h-0.06l0-0.06h-0.13l0-0.06l-0.13,0v-0.06h-0.06l-0.13,0l0-0.06l-0.13,0l-0.06,0l-7.96-0.28l-0.13,0.19
				l-0.19,0.06l-0.06,0.06l-0.06,0.13l0,0.19l0.01,1.41l0.01,2.43l0.01,2.11l0.01,2.05l0.01,1.85l0.01,1.73l0.07,1.47
				c0,0.6,0.05,1.04,0.14,1.34c0,0.47,0.05,0.83,0.13,1.09l0.07,0.7l0.13,0.58l0.13,0.57l0.26,0.51l0.26,0.45l0.45,0.32l0.52,0.25
				l0.71,0.12l0.13,0.13l0.26,0l0.26,0l0.32,0l0.32,0.06l0.2,0.06l0.39,0l0.26,0l0.26,0l0.19,0l0.19,0l0.13,0l0.13,0l0.06,0.06
				l0.13,0l0.06,0.06l0.07,0.06v0.06l0.07,0.06v0.06v0.13h-0.06l-0.19,0.07l-0.13,0.06l-0.19,0l-0.19,0.06l-0.26,0l-0.39,0l-0.26,0
				l-0.39,0l-0.26,0l-0.26,0l-0.26,0l-0.26,0l-0.26,0l-0.26-0.06l-0.26,0l-0.26,0l-0.26,0l-0.52,0l-0.45,0l-0.45,0l-0.39,0
				l-0.58-0.13l-0.52,0l-0.45,0l-0.39,0l-0.32,0l-0.26,0l-0.26,0l-0.19,0l-0.26,0l-0.26,0l-0.32,0l-0.39,0l-0.45,0l-0.45,0.13
				l-0.39,0l-0.26,0h-0.13l-0.19,0l-0.26,0l-0.39,0l-0.32,0.06l-0.39,0l-0.26,0l-0.39,0l-0.26,0l-0.26,0l-0.26,0l-0.26,0l-0.2-0.06
				l-0.19,0l-0.13-0.06l-0.19-0.06l-0.07-0.13l0-0.13l0.13-0.13l0.06-0.06h0.07l0.13-0.06l0.13,0l0.19,0l0.26,0l0.13,0l0.13-0.06
				l0.13,0h0.13l0.13,0l0.13-0.06l0.13,0l0.13,0l0.13,0l0.13-0.06l0.06,0l0.06-0.06l0.06,0l0.45-0.13l0.32-0.26l0.26-0.32l0.26-0.45
				l0.06-0.26l0.13-0.26l0-0.26l0.13-0.32l0.13-0.57l0.13-0.7l0.06-1.09c0-0.55,0.04-1,0.12-1.34l0-0.7l0.06-0.76l0-0.83l0-0.89
				l0-0.9l0-0.96l0-1.01l0.06-1.02l0-1.02l0-1.09l-0.01-1.09l-0.01-1.14l0-0.19L324.11,260.91z"/>
			<path class="st4" d="M394.98,258.93l0.1,0.29l0.19-0.02l0.06-0.27l0.03,0.1l0-0.3l-9.33-26.36l-0.19-0.19l-0.21-0.27l-0.21-0.19
				l-0.31-0.09l-0.11,0.1l-0.1,0.1l-0.21,0.27l-0.11,0.29l-0.1,0.18l-8.39,25.79l0,0.4l-0.05,0.19l0,0.19l0.1,0.1l0.1,0.09l0.19,0
				l0-0.29L394.98,258.93z M366.91,269.68l17.69-49.1l0.32-0.56l0.29-0.77l0.11-0.29l0.21-0.29l0.27-0.45l0.01-0.34l0.21-0.29
				l0.27-0.16l0.21-0.29l0.1,0l0.19,0l0.19,0l0.1,0l0,0.1l0.19,0.19l0.39,0.38l0.19,0.29l0.2,0.48c0.07,0.32,0.13,0.51,0.2,0.57
				l0.29,0.67l0.39,0.76l0.49,1.34l0.88,2.29l1.28,3.34l1.76,4.2l1.96,4.87l1.95,5.06l2.12,5.24l2.11,5.46l1.47,3.82l1.47,3.63
				l0.69,1.91l0.8,1.72l0.59,1.72l0.78,1.72l1.28,3.44l1.27,2.96l1.08,2.67l0.98,2.29l1.27,2.96l1.27,2.39l1.07,1.72l1.06,1.24
				l0.97,0.89l0.97,0.7l0.87,0.49l0.87,0.3l0.39,0.19c0.32,0,0.52,0,0.58,0l0.58,0l0.58,0l0.39,0l0.48,0l0.39,0l0.48,0l0.19,0
				l0.19,0l0.1,0.38l0.19,0l0.19,0l0.1,0.11l0,0.24l-0.19,0.22l-0.39,0l-0.29,0.38l-0.39,0l-0.29,0l-0.39,0l-0.78,0l-1.07,0
				l-1.45,0.01l-1.84,0.01l-1.07,0l-1.07,0l-1.07,0.01l-1.07,0.01l-1.16,0l-1.07,0.01l-1.16-0.38l-1.16,0.01h-0.19l-0.1,0l-0.19,0
				l-0.19,0l-0.29,0l-0.29,0l-0.19,0l-0.19,0h-0.19l-0.19,0l-0.48,0l-0.39,0l-0.39,0l-0.58,0l-0.29,0l0-0.29v-0.1l0.19-0.19
				l0.09-0.38h0.1l0.29,0h0.1l0.1,0l0.1,0l0-0.1l0.19-0.19l0.19-0.38l0.1-0.29l0-0.38l0-0.19l0-0.29l0-0.21l-0.1-0.09l0-0.19
				l-0.07-0.19l-9.29-23.75l-0.16,0.08l0-0.1l-0.1-0.1l-0.1-0.09l-0.19,0l-0.1-0.09l-0.19,0l-20.85-0.19l-0.19,0.29l-0.29,0.1
				l-0.1,0.1l-0.19,0.19l-0.19,0.29l-5.73,16.77l-0.38,1.15l-0.29,0.97l-0.17,0.88l-0.19,0.77l-0.19,0.88l0,0.77l-0.09,0.78l0,0.57
				l0,0.69l0.2,0.48l0.29,0.48l0.39,0.3l0.39,0.29c0.32,0.06,0.52,0.13,0.58,0.19l0.48,0l0.58,0l0.19,0l0.19,0l0.19,0l0.19,0l0.97,0
				l0.19,0l0.2,0.38l0.19,0l0.2,0.29l0.1,0l0.1,0.14v0.14l-0.1,0l-0.19,0l-0.29,0l-0.19,0.38l-0.29,0l-0.29,0l-0.29,0l-0.39,0
				l-0.29,0l-0.39,0l-0.39,0l-0.39,0l-0.48,0l-0.39,0l-0.39,0l-0.29,0l-0.29,0l-0.29,0c-0.39-0.13-0.62-0.25-0.68-0.38l-0.48,0
				l-0.58,0l-0.39,0l-0.39,0l-0.39,0l-0.48,0l-0.58,0l-0.48,0l-0.48,0l-0.58,0l-0.39,0l-0.97,0l-0.68,0.39l-0.58,0l-0.48,0l-0.58,0
				l-0.58,0l-0.58,0l-0.58,0l-0.39,0l-0.58,0l-0.48,0l-0.29,0l-0.19,0l-0.29,0l-0.29,0l-0.29,0l-0.48,0l-0.39,0l-0.29,0l-0.29-0.38
				l-0.29,0l-0.29,0h-0.1l0.1-0.29l0.1,0l0.19-0.29l0.19,0h0.1l0.19-0.38l0.19,0l0.1,0l0.19,0l0.19,0l0.19,0l0.39,0l0.19,0l0.19,0
				l0.19,0l0.19,0l0.19,0l0.1,0l1.65-0.29l1.45-0.66l1.26-0.87l0.96-1.14l0.77-1.23l0.77-1.42l0.67-1.52l0.77-1.81l0-0.29
				L366.91,269.68z"/>
			<path class="st3" d="M157.75,261.83c23.77,4.02,51.2,7.18,80.75,9.02c98.38,6.15,182.95-4.46,188.86-23.69
				c4.05-13.17-29.86-26.98-83.24-36.35l0.19,0.47l0.28,0.44c40.37,9.04,64.39,20.37,61.07,31.17
				c-5.91,19.23-96.26,29.48-201.76,22.89C187.87,264.78,172.42,263.44,157.75,261.83"/>
			<path class="st4" d="M373.09,252.53l11.52-31.96l0.32-0.56l0.29-0.77l0.11-0.29l0.21-0.29l0.27-0.45l0.01-0.34l0.21-0.29
				l0.27-0.16l0.21-0.29l0.1,0l0.19,0l0.19,0l0.1,0l0,0.1l0.19,0.19l0.39,0.38l0.19,0.29l0.2,0.48c0.07,0.32,0.13,0.51,0.2,0.57
				l0.29,0.67l0.39,0.76l0.49,1.34l0.88,2.29l1.28,3.34l1.76,4.2l1.96,4.87l1.95,5.06l2.13,5.24l0.29,0.74l-7.76,1.42l-5.92-16.72
				l-0.21-0.19l-0.19-0.29l-0.2-0.19l-0.29-0.09l-0.1,0.1l-0.1,0.1l-0.19,0.29l-0.1,0.29l-0.1,0.19l-6.19,19.01L373.09,252.53z"/>
			<path class="st5" d="M426.8,241.86c-1.22,3.3-2.36,6.62-3.4,9.97c-0.06,0.19-0.13,0.25-0.34,0.25c-2.31-0.01-4.63-0.01-6.94-0.01
				c-0.28,0-0.28,0-0.18-0.24c1.23-3.01,2.29-6.08,3.35-9.15c0.11-0.32,0.21-0.64,0.33-0.95c0.08-0.19,0.02-0.22-0.16-0.22
				c-1.59,0.01-3.18,0-4.76,0c-2.22,0-4.44,0-6.66,0c-0.22,0-0.22-0.05-0.16-0.23c0.79-2.23,1.57-4.47,2.35-6.7
				c0.06-0.16,0.12-0.21,0.3-0.21c1.91,0.01,3.82,0,5.74,0c1.35,0,2.7,0,4.05,0c-12.54-8.84-39.75-17.23-75.91-23.58l0.19,0.47
				l0.28,0.44c40.37,9.04,64.39,20.37,61.07,31.17c-5.91,19.23-96.26,29.48-201.76,22.89c-16.03-1-31.48-2.34-46.15-3.95
				c23.77,4.02,51.2,7.18,80.75,9.02c98.38,6.15,182.95-4.46,188.86-23.69c0.57-1.86,0.36-3.73-0.53-5.6
				C426.97,241.61,426.87,241.68,426.8,241.86"/>
			<path class="st5" d="M441.01,234.39c-3.76,0-7.52,0-11.28,0c-0.3,0-0.3,0-0.2-0.27c1.15-3.36,2.36-6.7,3.69-10
				c0.06-0.15,0.1-0.23-0.14-0.23c-2.35,0.01-4.71,0.01-7.06,0c-0.14,0-0.2,0.04-0.25,0.18c-1.06,3.41-2.27,6.77-3.51,10.11
				c-0.06,0.17-0.15,0.21-0.33,0.21c-0.55,0-1.09,0-1.64,0c3.36,2.37,5.66,4.77,6.8,7.17c0.06-0.02,0.11-0.04,0.2-0.04
				c2.89,0.01,5.78,0.01,8.67,0.01c0.85,0,1.71,0,2.56,0.01c0.19,0,0.3-0.04,0.38-0.25c0.76-2.21,1.54-4.41,2.31-6.62
				C441.32,234.39,441.31,234.39,441.01,234.39"/>
			<path class="st6" d="M420.3,234.39c-1.35,0-2.7,0-4.05,0c-1.91,0-3.82,0-5.74,0c-0.17,0-0.24,0.05-0.3,0.21
				c-0.78,2.24-1.56,4.47-2.35,6.71c-0.06,0.18-0.06,0.23,0.16,0.23c2.22-0.01,4.44,0,6.66,0c1.59,0,3.18,0,4.76,0
				c0.18,0,0.24,0.03,0.17,0.22c-0.12,0.31-0.22,0.63-0.33,0.95c-1.05,3.07-2.12,6.14-3.35,9.15c-0.1,0.24-0.1,0.24,0.18,0.24
				c2.31,0,4.63,0,6.94,0.01c0.21,0,0.28-0.07,0.34-0.25c1.04-3.36,2.18-6.68,3.4-9.97c0.07-0.18,0.17-0.26,0.3-0.3
				C425.96,239.16,423.66,236.76,420.3,234.39"/>
			<polygon class="st2" points="343.23,197.77 345.38,208.67 356.42,206.61 346.6,211.99 351.99,221.73 343.77,214.16 
				336.06,222.24 340.8,212.18 330.64,207.44 341.8,208.78 			"/>
			<polygon class="st4" points="268.4,328.68 405.79,328.68 424.75,298.29 287.37,298.29 			"/>
			<polygon class="st7" points="267.01,323.83 414.29,323.83 427.2,303.14 279.93,303.14 			"/>
			<path class="st6" d="M314.47,307.88c0.24,0.11,0.42,0.27,0.56,0.47c0.13,0.2,0.2,0.45,0.21,0.74c0.01,0.29-0.06,0.62-0.2,0.98
				l-0.67,1.64c-0.15,0.37-0.36,0.71-0.6,1c-0.25,0.29-0.52,0.54-0.82,0.74c-0.3,0.2-0.61,0.35-0.94,0.46
				c-0.32,0.1-0.63,0.16-0.93,0.16h-13.68l-1.54,3.74h-2.72l4.13-10.08h16.4C313.96,307.71,314.23,307.77,314.47,307.88
				 M298.91,310.31l-0.44,1.12h12.78c0.13,0,0.25-0.02,0.38-0.07c0.13-0.05,0.22-0.16,0.29-0.34l0.08-0.21
				c0.07-0.18,0.07-0.31,0-0.38c-0.07-0.08-0.18-0.11-0.34-0.11H298.91z"/>
			<path class="st6" d="M341.58,315.19l-1.07,2.6h-16.42c-0.29,0-0.56-0.05-0.8-0.16c-0.24-0.1-0.42-0.26-0.56-0.46
				c-0.13-0.2-0.2-0.45-0.21-0.74c-0.01-0.29,0.07-0.62,0.22-1l3.16-7.73h2.72l-2.8,6.84c-0.07,0.19-0.08,0.35-0.03,0.47
				c0.05,0.12,0.14,0.18,0.28,0.18H341.58z"/>
			<path class="st6" d="M367.47,315.19l3.05-7.48h2.74l-4.13,10.08h-16.42c-0.29,0-0.56-0.05-0.8-0.16
				c-0.24-0.1-0.43-0.26-0.56-0.46c-0.13-0.2-0.2-0.45-0.21-0.74c-0.01-0.29,0.07-0.62,0.22-1l3.16-7.73h2.72l-2.8,6.84
				c-0.07,0.19-0.09,0.35-0.05,0.47c0.03,0.12,0.12,0.18,0.24,0.18H367.47z"/>
			<path class="st6" d="M395.6,315.19c0.14,0,0.27-0.04,0.4-0.11c0.13-0.08,0.22-0.2,0.29-0.38l0.08-0.19
				c0.07-0.18,0.08-0.3,0.03-0.36c-0.05-0.06-0.16-0.09-0.33-0.09h-13.22c-0.31,0-0.58-0.05-0.81-0.16
				c-0.23-0.1-0.41-0.26-0.55-0.46c-0.13-0.2-0.2-0.45-0.21-0.74c-0.01-0.29,0.07-0.62,0.22-1l0.67-1.64c0.15-0.37,0.35-0.71,0.6-1
				c0.25-0.29,0.52-0.54,0.81-0.74c0.29-0.2,0.6-0.35,0.92-0.46c0.32-0.1,0.63-0.16,0.94-0.16h16.44l-1.07,2.6h-15.54
				c-0.15,0-0.28,0.03-0.39,0.09c-0.11,0.06-0.19,0.18-0.26,0.36l-0.08,0.19c-0.07,0.18-0.07,0.31,0,0.37
				c0.07,0.07,0.18,0.1,0.32,0.1h13.2c0.62,0,1.07,0.22,1.35,0.64c0.28,0.43,0.28,1,0,1.72l-0.67,1.64c-0.15,0.37-0.35,0.71-0.6,1
				c-0.25,0.29-0.52,0.54-0.81,0.74c-0.29,0.2-0.6,0.35-0.93,0.46c-0.32,0.1-0.64,0.16-0.95,0.16h-16.42l1.07-2.6H395.6z"/>
		</g>
	</g>
</g>
</svg>
