<?xml version="1.0" encoding="utf-8"?>
<!-- Generator: Adobe Illustrator 23.0.3, SVG Export Plug-In . SVG Version: 6.00 Build 0)  -->
<svg version="1.1" id="Layer_1" xmlns="http://www.w3.org/2000/svg" xmlns:xlink="http://www.w3.org/1999/xlink" x="0px" y="0px"
	 viewBox="0 0 500 500" style="enable-background:new 0 0 500 500;" xml:space="preserve">
<style type="text/css">
	.st0{clip-path:url(#SVGID_2_);}
	.st1{clip-path:url(#SVGID_4_);fill:#6D6E71;}
	.st2{clip-path:url(#SVGID_4_);fill:#FFFFFF;}
	.st3{clip-path:url(#SVGID_4_);fill:#CE2231;}
	.st4{clip-path:url(#SVGID_4_);fill:#1E95D3;}
	.st5{clip-path:url(#SVGID_4_);fill:none;stroke:#808285;stroke-width:0.5793;stroke-miterlimit:2.613;}
	.st6{clip-path:url(#SVGID_4_);fill:#58595B;}
</style>
<g>
	<g>
		<defs>
			<rect id="SVGID_1_" x="-1" y="141" width="576.27" height="211.65"/>
		</defs>
		<clipPath id="SVGID_2_">
			<use xlink:href="#SVGID_1_"  style="overflow:visible;"/>
		</clipPath>
		<g class="st0">
			<defs>
				<rect id="SVGID_3_" x="-1" y="141" width="576.27" height="211.65"/>
			</defs>
			<clipPath id="SVGID_4_">
				<use xlink:href="#SVGID_3_"  style="overflow:visible;"/>
			</clipPath>
			<path class="st1" d="M411.66,281.32v-32.63h9.2c9.74,0,16.31,6.73,16.31,16.31v0.15c0,9.59-6.57,16.16-16.31,16.16H411.66z
				 M399.76,292.07h21.11c17.01,0,28.76-11.83,28.76-27.06v-0.15c0-15.23-11.75-26.91-28.76-26.91h-21.11V292.07z"/>
			<path class="st2" d="M277.79,218.21L277.79,218.21v0.33h-0.04h-0.32v0.76h0.34h0.02v0.33h-0.36v1.02h-0.54v-2.44H277.79z
				 M277.78,217.3L277.78,217.3l0.01,0.32c-0.5,0-0.94,0.18-1.3,0.54c-0.36,0.37-0.56,0.83-0.56,1.32c0,0.48,0.19,0.94,0.55,1.3
				c0.35,0.35,0.82,0.55,1.28,0.55h0.03v0.33h-0.01c-0.58,0-1.13-0.24-1.53-0.66c-0.42-0.41-0.64-0.95-0.64-1.52
				c0-0.58,0.24-1.14,0.66-1.55C276.67,217.51,277.19,217.3,277.78,217.3 M277.79,219.63L277.79,219.63v-0.33
				c0.37,0,0.55-0.11,0.55-0.37c0-0.27-0.18-0.39-0.55-0.39v-0.33h0.05c0.69,0,1.03,0.24,1.03,0.67c0,0.35-0.18,0.6-0.54,0.68
				l0.54,1.1h-0.58l-0.48-1.02H277.79z M277.79,221.65c0.56,0,1.11-0.22,1.53-0.64c0.42-0.41,0.64-0.94,0.64-1.54
				c0-0.58-0.22-1.11-0.62-1.53c-0.42-0.42-0.96-0.65-1.56-0.65v0.32c0.51,0,0.96,0.19,1.33,0.55c0.35,0.36,0.53,0.81,0.53,1.34
				c0,0.49-0.19,0.94-0.54,1.28c-0.36,0.35-0.81,0.53-1.31,0.54V221.65z"/>
			<path class="st3" d="M194.05,211.87L194.05,211.87l-4.33-0.01l4.25-8.91l0.08,0.18l4.32,8.75L194.05,211.87z M190.19,194.83
				L190.19,194.83l-12.83,26.76l7.71-0.02l1.9-3.97l7.08-0.01h6.77l1.87,3.99l8.12,0.01l-12.83-26.78H190.19z M239.28,214.41
				L239.28,214.41l-13.26-19.49l-12.92-0.01v26.75h7.78v-20.41l13.87,20.41l12.31-0.02V194.9h-7.77V214.41z M60.35,197.63
				L60.35,197.63v10.17c0.01,2.83,2.62,3.33,5.76,3.33h14.96c0.93,0,1.69,0.77,1.69,1.71c0,0.95-0.76,1.71-1.7,1.71h-0.04H60.35
				v7.08h27.41c1.44-0.08,2.59-1.28,2.59-2.74v-10.37c0.14-2.58-1.89-3.7-6.07-3.46H69.71h-0.1h-0.05c-0.03,0.01-0.05,0.01-0.07,0
				c-0.87-0.07-1.54-0.78-1.54-1.64c0-0.92,0.74-1.66,1.66-1.66c0.05,0,0.09,0.01,0.14,0.01h20.58v-6.88H63.08
				C61.58,194.89,60.35,196.13,60.35,197.63 M153.52,209.59L153.52,209.59l-7.11-14.7h-14.63v26.75h8.61v-20.13L151,221.65h5.02
				l10.76-20.4v20.4h8.6V194.9h-14.78L153.52,209.59z M120.68,212.68L120.68,212.68c0,1.05-0.86,1.9-1.89,1.9h-15.44
				c-1.05,0-1.9-0.85-1.9-1.9v-9.01c0-1.04,0.85-1.89,1.9-1.89h15.44c1.03,0,1.89,0.85,1.89,1.89V212.68z M125.39,194.9
				L125.39,194.9H96.75c-1.58,0-2.88,1.29-2.88,2.87v20.99c0,1.58,1.3,2.88,2.88,2.88h28.64c1.58,0,2.88-1.3,2.88-2.88v-20.99
				C128.27,196.19,126.96,194.9,125.39,194.9 M276,194.9l-9.36,10.47l-8.77-10.45h-9.19L262.8,212v9.63h7.77v-9.73l15.19-17.01H276z
				"/>
			<polygon class="st4" points="290.01,187.96 269.15,187.97 269.15,195.31 266.42,195.31 266.42,185.28 292.76,185.26 
				292.76,211.59 280.78,211.59 280.83,208.85 290.07,208.85 			"/>
			<path class="st1" d="M156.22,250.88c0.58-1.6,0.94-3.01,1.04-4.22c0.13-1.22-0.03-2.24-0.47-3.08c-0.43-0.83-1.17-1.46-2.18-1.87
				c-1.03-0.41-2.4-0.63-4.1-0.63h-8.61l-9.64,26.55h7.87c1.82,0,3.41-0.17,4.81-0.51c1.39-0.33,2.63-0.89,3.71-1.68
				c1.09-0.78,2.06-1.83,2.88-3.11c0.83-1.29,1.59-2.87,2.27-4.76L156.22,250.88z M156.33,257.58c-0.88,2.43-1.87,4.42-2.97,5.99
				c-1.1,1.57-2.34,2.8-3.73,3.71c-1.39,0.9-2.93,1.53-4.63,1.87c-1.7,0.34-3.61,0.52-5.7,0.52h-7.79l-8.01,22.06h-2.54l19.18-52.81
				h11.07c1.83,0,3.41,0.2,4.75,0.59c1.33,0.39,2.33,1.06,3.01,1.99c0.69,0.95,1.02,2.18,1.02,3.71c0,1.53-0.41,3.42-1.22,5.67
				L156.33,257.58z M106.67,291.75l19.18-52.81h2.54l-19.18,52.81H106.67z M79.91,291.75l19.18-52.81h2.54L83.2,289.68h17.74
				l-0.75,2.06H79.91z M76.35,278.66c-0.75,2.08-1.66,3.96-2.71,5.65c-1.05,1.67-2.26,3.1-3.66,4.27c-1.41,1.17-2.98,2.08-4.73,2.7
				c-1.76,0.64-3.74,0.96-5.93,0.96c-2.88,0-4.99-0.37-6.36-1.1c-1.36-0.74-2.22-1.72-2.56-2.98c-0.36-1.25-0.31-2.72,0.11-4.4
				c0.43-1.67,0.99-3.45,1.67-5.33l0.52-1.42h2.54l-0.41,1.14c-0.75,2.06-1.28,3.84-1.6,5.35c-0.31,1.51-0.31,2.76,0.01,3.76
				c0.33,1,1.03,1.73,2.13,2.21c1.09,0.47,2.67,0.71,4.72,0.71c1.79,0,3.39-0.28,4.83-0.85c1.43-0.57,2.7-1.36,3.8-2.37
				c1.1-1.02,2.07-2.23,2.89-3.62c0.84-1.39,1.55-2.91,2.14-4.56l0.12-0.34c0.53-1.46,0.83-2.76,0.91-3.89
				c0.08-1.14-0.05-2.16-0.36-3.06c-0.32-0.9-0.82-1.71-1.49-2.42c-0.67-0.7-1.5-1.35-2.47-1.96l-4.72-2.85
				c-1.07-0.65-1.99-1.38-2.73-2.16c-0.74-0.78-1.25-1.7-1.55-2.73c-0.29-1.03-0.37-2.22-0.23-3.56c0.13-1.35,0.53-2.91,1.18-4.7
				l0.19-0.52c0.65-1.8,1.51-3.45,2.55-4.95c1.05-1.49,2.25-2.78,3.62-3.84c1.38-1.07,2.91-1.89,4.61-2.48
				c1.7-0.59,3.54-0.89,5.54-0.89c2.15,0,3.85,0.33,5.12,1c1.27,0.66,2.17,1.57,2.71,2.7c0.55,1.13,0.76,2.46,0.65,3.97
				c-0.11,1.52-0.47,3.13-1.1,4.85l-0.98,2.7h-2.54l1.38-4.02c0.4-1.23,0.61-2.41,0.64-3.51c0.03-1.12-0.18-2.09-0.62-2.92
				c-0.44-0.84-1.15-1.49-2.14-1.98c-0.99-0.49-2.26-0.74-3.83-0.74c-1.79,0-3.39,0.3-4.82,0.9c-1.44,0.6-2.7,1.41-3.79,2.42
				c-1.11,1.01-2.05,2.17-2.82,3.49c-0.79,1.33-1.41,2.72-1.89,4.18l-0.41,1.35c-0.38,1.12-0.55,2.16-0.5,3.13
				c0.04,0.97,0.26,1.86,0.66,2.67c0.38,0.82,0.91,1.55,1.58,2.23c0.69,0.66,1.46,1.28,2.34,1.84l4.73,2.92
				c2.09,1.29,3.38,2.99,3.86,5.09c0.48,2.1,0.25,4.65-0.72,7.66L76.35,278.66z"/>
			<path class="st5" d="M76.45,278.37c0.96-3.01,1.2-5.57,0.71-7.66c-0.49-2.1-1.79-3.79-3.88-5.09l-4.76-2.92
				c-0.89-0.56-1.67-1.17-2.34-1.84c-0.68-0.67-1.21-1.41-1.6-2.23c-0.39-0.81-0.61-1.7-0.66-2.68c-0.05-0.97,0.12-2.01,0.49-3.13
				l0.42-1.36c0.48-1.46,1.11-2.85,1.88-4.17c0.78-1.32,1.72-2.48,2.82-3.49c1.1-1.01,2.37-1.81,3.81-2.41
				c1.44-0.6,3.05-0.9,4.83-0.9c1.58,0,2.86,0.24,3.85,0.73c0.99,0.49,1.7,1.15,2.15,1.98c0.45,0.83,0.66,1.81,0.63,2.92
				c-0.03,1.11-0.24,2.28-0.63,3.51l-1.39,4.03h2.56l0.98-2.71c0.62-1.71,0.99-3.33,1.1-4.85c0.11-1.52-0.11-2.84-0.65-3.98
				c-0.55-1.14-1.46-2.03-2.73-2.69c-1.27-0.66-2.99-0.99-5.13-0.99c-1.99,0-3.84,0.29-5.54,0.88c-1.7,0.59-3.24,1.42-4.61,2.49
				c-1.37,1.07-2.58,2.35-3.63,3.84c-1.05,1.49-1.9,3.14-2.56,4.95l-0.19,0.52c-0.65,1.78-1.04,3.35-1.18,4.69
				c-0.14,1.34-0.06,2.53,0.24,3.56c0.3,1.03,0.81,1.94,1.55,2.73c0.74,0.79,1.65,1.51,2.73,2.15l4.71,2.85
				c0.97,0.6,1.8,1.26,2.47,1.96c0.67,0.71,1.17,1.51,1.49,2.42c0.32,0.9,0.44,1.92,0.37,3.06c-0.08,1.14-0.38,2.43-0.91,3.89
				l-0.13,0.35c-0.6,1.65-1.31,3.16-2.14,4.55c-0.83,1.39-1.8,2.59-2.91,3.61c-1.11,1.02-2.38,1.81-3.81,2.38
				c-1.44,0.57-3.05,0.85-4.83,0.85c-2.07,0-3.65-0.24-4.75-0.71c-1.1-0.47-1.81-1.21-2.13-2.21c-0.32-1-0.33-2.25-0.02-3.75
				c0.31-1.5,0.85-3.29,1.59-5.35l0.42-1.15h-2.48l-0.52,1.42c-0.68,1.88-1.24,3.66-1.67,5.34c-0.43,1.68-0.47,3.14-0.12,4.4
				c0.35,1.25,1.2,2.24,2.57,2.97c1.37,0.73,3.48,1.09,6.36,1.09c2.2,0,4.18-0.32,5.94-0.96c1.76-0.64,3.34-1.54,4.73-2.71
				c1.4-1.17,2.62-2.59,3.67-4.27c1.05-1.68,1.95-3.56,2.71-5.65L76.45,278.37z"/>
			<polygon class="st5" points="100.24,291.75 101.01,289.63 83.27,289.63 101.68,238.92 99.12,238.92 79.94,291.75 			"/>
			<polygon class="st5" points="128.43,238.92 125.87,238.92 106.69,291.75 109.25,291.75 			"/>
			<path class="st5" d="M153.81,257.55c-0.68,1.88-1.44,3.46-2.26,4.74c-0.83,1.29-1.79,2.32-2.87,3.11
				c-1.09,0.79-2.32,1.35-3.71,1.69c-1.39,0.33-2.98,0.5-4.79,0.5h-7.86l9.63-26.52h8.6c1.7,0,3.07,0.21,4.09,0.62
				c1.02,0.42,1.75,1.04,2.18,1.88s0.59,1.86,0.47,3.08c-0.12,1.22-0.47,2.62-1.05,4.22L153.81,257.55z M158.8,250.88
				c0.82-2.25,1.22-4.14,1.22-5.67c0-1.53-0.34-2.76-1.02-3.7c-0.68-0.94-1.69-1.6-3.02-2c-1.33-0.39-2.92-0.59-4.75-0.59h-11.06
				l-19.18,52.82l2.56,0l8.03-22.1h7.79c2.09,0,3.99-0.17,5.69-0.52c1.7-0.35,3.25-0.97,4.63-1.88c1.39-0.9,2.63-2.14,3.73-3.7
				c1.1-1.56,2.09-3.56,2.97-5.99L158.8,250.88z"/>
			<path class="st1" d="M351.9,292.07h38.89v-10.82H363.8v-43.3H351.9V292.07z M300.09,292.07h41.21v-10.59h-29.38v-11.37h25.51
				v-10.59h-25.51v-10.98h28.99v-10.59h-40.82V292.07z M274.66,292.07h11.91v-54.12h-11.91V292.07z M215.35,292.07h11.91v-21.73
				h21.96v21.73h11.91v-54.12h-11.91v21.42h-21.96v-21.42h-11.91V292.07z M185.12,292.85c11.67,0,19.87-6.03,19.87-16.78v-0.15
				c0-9.43-6.19-13.38-17.16-16.24c-9.36-2.4-11.67-3.56-11.67-7.11v-0.15c0-2.63,2.4-4.72,6.96-4.72c4.56,0,9.28,2.01,14.07,5.33
				l6.19-8.97c-5.49-4.41-12.22-6.88-20.1-6.88c-11.06,0-18.94,6.49-18.94,16.31v0.16c0,10.75,7.04,13.76,17.94,16.55
				c9.05,2.32,10.9,3.87,10.9,6.88v0.15c0,3.17-2.94,5.1-7.81,5.1c-6.19,0-11.29-2.55-16.16-6.57l-7.04,8.43
				C168.65,289.99,176.93,292.85,185.12,292.85"/>
			<path class="st2" d="M405.97,216.85c5.85-18.62-4.51-38.45-23.13-44.3c-18.62-5.85-38.45,4.51-44.3,23.13
				c-5.84,18.62,4.51,38.45,23.13,44.29C380.29,245.82,400.13,235.47,405.97,216.85"/>
			<path class="st6" d="M372.27,242.17C372.27,242.17,372.27,242.17,372.27,242.17c-3.64,0-7.26-0.56-10.76-1.66
				c-9.15-2.87-16.63-9.13-21.07-17.63c-4.44-8.5-5.3-18.22-2.43-27.37c2.34-7.44,6.9-13.78,13.2-18.33
				c6.09-4.4,13.56-6.83,21.04-6.83c3.64,0,7.26,0.56,10.76,1.66c9.15,2.87,16.63,9.13,21.07,17.63c4.44,8.5,5.3,18.22,2.43,27.37
				c-2.33,7.44-6.9,13.77-13.2,18.33C387.22,239.74,379.74,242.17,372.27,242.17 M372.24,171.48c-15.26,0-28.59,9.79-33.17,24.37
				c-2.78,8.86-1.94,18.28,2.36,26.51c4.3,8.23,11.55,14.3,20.41,17.08c3.39,1.07,6.9,1.61,10.43,1.61
				c15.26,0,28.59-9.79,33.17-24.37c2.78-8.86,1.95-18.28-2.35-26.51c-4.3-8.23-11.55-14.3-20.41-17.08
				C379.28,172.02,375.77,171.48,372.24,171.48"/>
			<path class="st6" d="M355.31,182.14l-1.05-1.58l0.88-0.59c0.57-0.38,1.11-0.34,1.45,0.17l0.01,0.02c0.3,0.44,0.19,1.01-0.38,1.38
				L355.31,182.14z M355.87,185.47l1.14-0.76l-1.03-1.55l0.87-0.58c1.16-0.77,1.68-2.01,0.88-3.21l-0.01-0.02
				c-0.7-1.06-1.94-1.29-3.17-0.47l-2.12,1.41L355.87,185.47z"/>
			<path class="st6" d="M364.36,178.34l0.31-2.16l1.29,1.76L364.36,178.34z M362.61,181.46l1.35-0.34l0.21-1.49l2.55-0.64l0.89,1.22
				l1.39-0.35l-4.1-5.43l-1.22,0.31L362.61,181.46z"/>
			<polygon class="st6" points="373.69,179.94 375.06,180.06 375.5,175.13 377.39,175.3 377.5,174.04 372.37,173.58 372.25,174.83 
				374.14,175 			"/>
			<polygon class="st6" points="380.89,181.34 385.2,183.32 385.71,182.22 382.64,180.81 383.18,179.62 385.85,180.84 
				386.36,179.74 383.69,178.51 384.22,177.37 387.25,178.76 387.76,177.65 383.49,175.69 			"/>
			<polygon class="st6" points="388.69,185.73 389.63,186.7 392.47,183.94 391.74,188.86 392.55,189.69 397,185.35 396.06,184.38 
				393.32,187.06 394.03,182.3 393.15,181.39 			"/>
			<polygon class="st6" points="395.56,194.84 396.1,196.09 400.65,194.11 401.41,195.84 402.56,195.34 400.5,190.61 399.34,191.12 
				400.1,192.85 			"/>
			<path class="st6" d="M343.78,212.69l1.84-0.47l0.26,1.03c0.17,0.66-0.05,1.16-0.64,1.31l-0.02,0c-0.52,0.13-1.01-0.16-1.18-0.82
				L343.78,212.69z M340.46,212.11l0.33,1.33l1.81-0.46l0.25,1.01c0.34,1.35,1.34,2.26,2.73,1.9l0.02,0c1.23-0.31,1.87-1.4,1.5-2.84
				l-0.62-2.46L340.46,212.11z"/>
			<polygon class="st6" points="344.09,222.23 346.67,226.2 347.69,225.53 345.85,222.71 346.94,221.99 348.55,224.45 
				349.56,223.78 347.96,221.33 349.02,220.64 350.84,223.43 351.86,222.76 349.3,218.83 			"/>
			<polygon class="st6" points="350.87,230.72 351.95,231.53 354.31,228.35 354.37,233.32 355.31,234.02 359.01,229.02 
				357.93,228.22 355.65,231.29 355.59,226.48 354.58,225.73 			"/>
			<path class="st6" d="M362.82,236.05l1-3.61l1.02,0.28c1.08,0.3,1.6,1.25,1.3,2.31l-0.01,0.02c-0.29,1.06-1.23,1.59-2.3,1.29
				L362.82,236.05z M361.17,236.88l2.34,0.65c1.88,0.52,3.55-0.42,4.02-2.11l0-0.02c0.47-1.69-0.47-3.34-2.36-3.86l-2.34-0.65
				L361.17,236.88z"/>
			
				<rect x="372.6" y="232.55" transform="matrix(0.9996 -0.0299 0.0299 0.9996 -6.8871 11.2798)" class="st6" width="1.37" height="6.22"/>
			<polygon class="st6" points="380.3,237.93 381.58,237.49 380.3,233.75 384.43,236.52 385.53,236.14 383.52,230.25 382.24,230.69 
				383.48,234.32 379.49,231.63 378.29,232.04 			"/>
			<path class="st6" d="M393.56,231.1c0.87-0.73,1.26-1.64,1.4-2.46l-1.74-2.07l-2.07,1.74l0.76,0.91l1.06-0.88l0.57,0.68
				c-0.11,0.41-0.37,0.79-0.75,1.11c-0.84,0.71-1.98,0.57-2.71-0.3l-0.01-0.01c-0.68-0.81-0.64-1.99,0.12-2.63
				c0.55-0.46,1.03-0.56,1.65-0.56l-0.01-1.35c-0.85-0.01-1.56,0.2-2.42,0.92c-1.44,1.21-1.57,3.21-0.43,4.56l0.01,0.01
				C390.18,232.16,392.08,232.34,393.56,231.1"/>
			<path class="st6" d="M372.26,230.19c-2.42,0-4.84-0.37-7.17-1.1c-12.59-3.95-19.61-17.4-15.66-29.99
				c3.15-10.03,12.32-16.77,22.82-16.77c2.42,0,4.84,0.37,7.17,1.1c6.1,1.91,11.08,6.09,14.04,11.75
				c2.96,5.67,3.53,12.14,1.62,18.24C391.94,223.46,382.76,230.19,372.26,230.19 M372.25,183.45c-10.01,0-18.75,6.42-21.75,15.98
				c-3.76,12,2.93,24.82,14.93,28.59c2.23,0.7,4.53,1.05,6.84,1.05c10.01,0,18.75-6.42,21.75-15.98c1.82-5.81,1.28-11.99-1.54-17.39
				c-2.82-5.4-7.57-9.38-13.38-11.2C376.86,183.81,374.56,183.45,372.25,183.45"/>
			<path class="st3" d="M388.84,212.73l0.75-2.3l0.65,0.21c0.69,0.23,1,0.85,0.77,1.53l0,0.01c-0.22,0.68-0.84,0.99-1.52,0.76
				L388.84,212.73z M387.75,213.21l1.49,0.49c1.2,0.39,2.3-0.17,2.65-1.24l0-0.01c0.35-1.07-0.21-2.17-1.41-2.56l-1.49-0.49
				L387.75,213.21z M383,211.65l2.91,0.95l0.24-0.75l-2.07-0.68l0.26-0.8l1.8,0.59l0.25-0.75l-1.8-0.59l0.25-0.77l2.04,0.67
				l0.25-0.75l-2.88-0.94L383,211.65z M380.12,210.71l0.84,0.28l1.25-3.82l-0.84-0.27L380.12,210.71z M375.41,209.16l0.84,0.28
				l0.48-1.48l1.82,0.6l0.25-0.76l-1.82-0.6l0.27-0.81l2.07,0.68l0.25-0.76l-2.91-0.95L375.41,209.16z M372.53,208.22l0.84,0.28
				l1.25-3.82l-0.84-0.28L372.53,208.22z M368.75,206.98l0.84,0.28l1-3.04l1.16,0.38l0.25-0.77l-3.16-1.04l-0.25,0.77l1.16,0.38
				L368.75,206.98z M364.31,203.35l0.36-1.1l0.83,0.27c0.41,0.13,0.6,0.4,0.48,0.76l0,0.01c-0.11,0.32-0.41,0.46-0.82,0.33
				L364.31,203.35z M362.83,205.04l0.84,0.28l0.4-1.22l0.65,0.21l0.01,0l0.42,1.49l0.98,0.32l-0.49-1.67c0.54-0.02,1-0.3,1.21-0.92
				l0-0.01c0.12-0.36,0.1-0.7-0.04-0.98c-0.17-0.33-0.5-0.59-0.99-0.75l-1.74-0.57L362.83,205.04z M358.09,203.48l2.91,0.95
				l0.24-0.75l-2.07-0.68l0.26-0.8l1.8,0.59l0.25-0.75l-1.8-0.59l0.25-0.77l2.04,0.67l0.25-0.75l-2.88-0.94L358.09,203.48z
				 M354.74,202.46c0.74,0.24,1.26,0.12,1.79-0.17l-0.36-0.72c-0.39,0.17-0.71,0.26-1.15,0.12c-0.65-0.21-0.93-0.91-0.71-1.56
				l0-0.01c0.21-0.65,0.85-1.04,1.5-0.83c0.38,0.12,0.63,0.39,0.83,0.75l0.74-0.44c-0.24-0.47-0.59-0.85-1.31-1.08
				c-1.17-0.38-2.28,0.24-2.64,1.32l0,0.01C353.07,200.95,353.62,202.09,354.74,202.46"/>
			<polygon class="st4" points="345.4,194.79 345.51,197.1 347.48,198.32 345.32,199.14 344.77,201.39 343.32,199.58 341.01,199.75 
				342.28,197.82 341.41,195.67 343.63,196.28 			"/>
			<polygon class="st4" points="401.48,210.73 401.59,213.04 403.56,214.26 401.4,215.08 400.84,217.32 399.4,215.52 397.09,215.69 
				398.36,213.75 397.48,211.62 399.72,212.22 			"/>
		</g>
	</g>
</g>
</svg>
