<?xml version="1.0" encoding="utf-8"?>
<!-- Generator: Adobe Illustrator 20.0.0, SVG Export Plug-In . SVG Version: 6.00 Build 0)  -->
<svg version="1.1" id="Layer_1" xmlns="http://www.w3.org/2000/svg" xmlns:xlink="http://www.w3.org/1999/xlink" x="0px" y="0px"
	 viewBox="0 0 1169.5 336.4" style="enable-background:new 0 0 1169.5 336.4;" xml:space="preserve">
<style type="text/css">
	.st0{fill:#ED1C24;}
	.st1{fill:#FFFFFF;}
	.st2{fill:#0095DA;}
</style>
<g>
	<rect x="0.1" y="0.4" class="st0" width="1169.5" height="336.4"/>
	<path class="st1" d="M1023.6,210.6L1023.6,210.6v1.4h-0.2h-1.3v3.2h1.4h0.1v1.4h-1.5v4.3h-2.2v-10.2H1023.6z M1023.6,206.7
		L1023.6,206.7l0,1.3c-2.1,0-4,0.8-5.4,2.2c-1.5,1.5-2.4,3.5-2.4,5.5c0,2.1,0.8,4,2.3,5.5c1.5,1.5,3.4,2.3,5.4,2.3h0.1v1.4h0
		c-2.4,0-4.7-1-6.4-2.8c-1.7-1.7-2.7-4-2.7-6.4c0-2.4,1-4.7,2.8-6.5C1018.9,207.6,1021.1,206.7,1023.6,206.7z M1023.6,216.5
		L1023.6,216.5v-1.4c1.5,0,2.3-0.5,2.3-1.6c0-1.1-0.8-1.6-2.3-1.6v-1.4h0.2c2.9,0,4.3,1,4.3,2.8c0,1.5-0.8,2.5-2.3,2.8l2.3,4.6h-2.4
		L1023.6,216.5L1023.6,216.5z M1023.6,225c2.3,0,4.6-0.9,6.4-2.7c1.8-1.7,2.7-3.9,2.7-6.5c0-2.4-0.9-4.6-2.6-6.4
		c-1.8-1.8-4-2.7-6.5-2.7v1.3c2.1,0,4,0.8,5.6,2.3c1.5,1.5,2.2,3.4,2.2,5.6c0,2-0.8,4-2.3,5.4c-1.5,1.5-3.4,2.2-5.5,2.3V225z"/>
	<path class="st1" d="M672.6,184L672.6,184l-18.2-0.1l17.8-37.4l0.3,0.8l18.1,36.7L672.6,184z M656.5,112.6L656.5,112.6l-53.7,112.1
		l32.3,0l8-16.6l29.7,0H701l7.8,16.7l34.1,0.1l-53.8-112.2H656.5z M862.2,194.6L862.2,194.6l-55.6-81.7l-54.2,0V225h32.6v-85.6
		l58.1,85.5l51.6-0.1v-112h-32.6V194.6z M112.3,124.3L112.3,124.3v42.6c0.1,11.8,11,13.9,24.1,13.9h62.7c3.9,0,7.1,3.2,7.1,7.2
		c0,4-3.2,7.2-7.1,7.2h-0.2h-86.6v29.6h114.9c6-0.3,10.8-5.3,10.8-11.5v-43.4c0.6-10.8-7.9-15.5-25.4-14.5h-61c-0.1,0-0.3,0-0.4,0
		H151c-0.1,0-0.2,0-0.3,0c-3.6-0.3-6.4-3.3-6.4-6.9c0-3.8,3.1-7,7-7c0.2,0,0.4,0,0.6,0H238v-28.8H123.8
		C117.4,112.8,112.3,118,112.3,124.3z M502.8,174.4L502.8,174.4L473,112.8h-61.3v112.1h36.1v-84.3l44.5,84.3h21l45.1-85.5v85.5h36.1
		V112.8h-61.9L502.8,174.4z M365.2,187.4L365.2,187.4c0,4.4-3.6,8-7.9,8h-64.7c-4.4,0-8-3.6-8-8v-37.8c0-4.4,3.6-7.9,8-7.9h64.7
		c4.3,0,7.9,3.6,7.9,7.9V187.4z M384.9,112.8L384.9,112.8h-120c-6.6,0-12.1,5.4-12.1,12v87.9c0,6.6,5.4,12,12.1,12h120
		c6.6,0,12.1-5.4,12.1-12v-87.9C397,118.3,391.5,112.8,384.9,112.8z M1016.1,112.8l-39.2,43.9l-36.7-43.8h-38.5l59.2,71.6v40.3h32.6
		v-40.7l63.7-71.3H1016.1z"/>
	<polygon class="st2" points="1074.8,83.8 987.4,83.8 987.4,114.6 976,114.6 976,72.5 1086.3,72.5 1086.3,182.8 1036.1,182.8 
		1036.4,171.3 1075.1,171.3 	"/>
</g>
</svg>
